<?xml version="1.0" encoding="UTF-8" standalone="no"?>
<svg width="28px" height="28px" viewBox="0 0 28 28" version="1.1" xmlns="http://www.w3.org/2000/svg" xmlns:xlink="http://www.w3.org/1999/xlink" xmlns:sketch="http://www.bohemiancoding.com/sketch/ns">
    <!-- Generator: Sketch 3.0.4 (8053) - http://www.bohemiancoding.com/sketch -->
    <title>marker-info</title>
    <desc>Created with Sketch.</desc>
    <defs></defs>
    <g id="Page-1" stroke="none" stroke-width="1" fill="none" fill-rule="evenodd" sketch:type="MSPage">
        <path d="M14,0 C21.732,0 28,6.268 28,14 C28,21.732 21.732,28 14,28 C6.268,28 0,21.732 0,14 C0,6.268 6.268,0 14,0" id="Imported-Layers" fill="#324185" sketch:type="MSShapeGroup"></path>
        <path d="M11.098,20 L11.098,18.344 L13.78,18.344 L13.78,13.106 L11.242,13.106 L11.242,11.45 L15.634,11.45 L15.634,18.344 L18.172,18.344 L18.172,20 L11.098,20 Z M13.753,9.875 C13.542999,9.65299889 13.438,9.3620018 13.438,9.002 C13.438,8.6419982 13.5459989,8.35400108 13.762,8.138 C13.9780011,7.92199892 14.2689982,7.814 14.635,7.814 C15.0010018,7.814 15.282999,7.91899895 15.481,8.129 C15.679001,8.33900105 15.778,8.62999814 15.778,9.002 C15.778,9.37400186 15.676001,9.66799892 15.472,9.884 C15.267999,10.1000011 14.9830018,10.208 14.617,10.208 C14.2509982,10.208 13.9630011,10.0970011 13.753,9.875 L13.753,9.875 Z" id="i" fill="#FFFFFF" sketch:type="MSShapeGroup"></path>
    </g>
</svg>