<?xml version="1.0" encoding="utf-8"?>
<!-- Generator: Adobe Illustrator 16.0.0, SVG Export Plug-In . SVG Version: 6.00 Build 0)  -->
<!DOCTYPE svg PUBLIC "-//W3C//DTD SVG 1.1//EN" "http://www.w3.org/Graphics/SVG/1.1/DTD/svg11.dtd">
<svg version="1.1" id="Layer_1" xmlns="http://www.w3.org/2000/svg" xmlns:xlink="http://www.w3.org/1999/xlink" x="0px" y="0px"
	 width="1357px" height="1772.011px" viewBox="0 0 1357 1772.011" enable-background="new 0 0 1357 1772.011" xml:space="preserve">
<path opacity="0.1" fill="#FFFFFF" d="M845.778,1465.589c-13.008,26.074-22.545,39.1-28.6,39.1c-3.631,0-6.514-10.463-8.635-31.369
	c-2.133-20.918-3.498-51.67-4.086-92.291v-43.646c0-20.598-0.619-46.373-1.828-77.285c-0.609-25.461-1.217-48.336-1.814-68.65
	c-0.609-20.301-0.908-38.332-0.908-54.1c0-3.029,1.363-10.91,4.09-23.643c0.721-3.357,1.521-7.064,2.396-11.092
	c1.07-4.922,8.027-5.125,9.355-0.27l71.275,260.293c0.264,0.967,0.217,2.01-0.125,2.947
	C870.967,1409.248,857.247,1442.634,845.778,1465.589 M1311.393,620.233l-289.281,1021.25c-1.33,4.691-7.98,4.668-9.275-0.029
	l-44.684-161.832c-0.293-1.059-0.201-2.207,0.234-3.211c6.479-14.953,11.133-26.811,13.785-35.225
	c0.031-0.105,0.061-0.207,0.084-0.312c4.832-19.934,10.113-36.539,15.871-49.844c5.602-12.975,11.355-23.381,17.252-31.197
	c0.326-0.426,0.566-0.896,0.725-1.406c8.381-26.945,15.869-49.863,22.482-68.781c6.664-19.092,12.123-35.602,16.373-49.555
	c6.047-23.027,11.203-42.879,15.451-59.555c4.211-16.582,8.148-28.82,11.766-36.709c0.039-0.086,0.07-0.162,0.1-0.246
	c8.465-22.365,15.721-41.729,21.777-58.066c5.906-15.961,9.805-29.613,11.689-40.967c0.096-0.576,0.289-1.09,0.592-1.594
	c4.102-6.885,8.496-19.98,13.18-39.27c4.844-20.006,10.301-46.975,16.365-80.93c6.059-35.755,11.506-64.696,16.365-86.83
	c4.582-20.896,8.625-35.704,12.121-44.443c0.389-0.971,0.465-2.024,0.199-3.038l-11.01-41.502c-0.258-0.973-0.221-1.972,0.137-2.911
	c1.746-4.617,3.988-10.354,6.742-17.219c2.994-7.503,6.594-15.451,10.795-23.859c0.08-0.152,0.146-0.303,0.209-0.466
	c2.375-6.152,4.312-19.266,5.814-39.327c1.5-20.301,2.271-48.944,2.271-85.922c0-13.94-1.213-24.096-3.633-30.463
	c-2.432-6.365-6.684-9.546-12.73-9.546c-7.875,0-18.312,6.675-31.33,20.001c-12.881,13.213-27.412,32.668-43.57,58.351
	c-0.311,0.492-0.535,1.06-0.65,1.629c-2.984,14.784-6.254,27.524-9.816,38.227c-3.432,10.271-6.033,18.931-7.846,25.976
	c-0.227,0.867-0.193,1.752,0.07,2.605l11.004,35.582c0.266,0.853,0.283,1.773,0.059,2.637c-9.543,37.027-17.736,69-24.615,95.953
	c-6.961,27.281-13.482,50.013-19.539,68.195c-10.283,30.919-19.969,60.781-29.051,89.568c-9.018,28.562-18.322,55.785-27.928,81.654
	c-0.156,0.424-0.25,0.869-0.279,1.32c-1.225,18.484-3.623,33.713-7.213,45.686c-3.51,11.699-8.133,20.846-13.889,27.455
	c-0.428,0.492-0.744,1.039-0.938,1.664c-9.619,31.254-20.561,64.59-32.852,99.992c-4.572,13.184-9.334,26.654-14.279,40.41
	c-1.588,4.426-7.924,4.195-9.176-0.338l-84.035-304.338c-0.158-0.578-0.205-1.188-0.143-1.781
	c1.162-11.225,1.971-21.309,2.35-29.982c0.008-0.264,0.043-0.525,0.102-0.783c13.857-63.471,24.109-116.223,30.779-158.271
	c6.654-42.123,10.002-72.585,10.002-91.383c0-15.146-3.041-27.418-9.1-36.822c-5.809-9-15.23-16.197-28.26-21.58
	c-1.107-0.459-2.363-0.477-3.492-0.068l-79.09,28.465c-1.174,0.344-2.338,0.756-3.492,1.22c-2.65,1.065-5.639-0.433-6.398-3.188
	l-9.674-35.02c-0.574-2.087-2.475-3.534-4.641-3.534h-23.93c-2.176,0-4.08,1.462-4.648,3.562l-216.062,799.082
	c-0.103,0.379-0.249,0.742-0.442,1.084l-49.62,89.154c-0.519,0.934-1.324,1.643-2.303,2.074c-1.474,0.646-3.079,1.42-4.805,2.316
	c-2.637,1.369-5.892,0.135-6.826-2.68c-4.942-14.898-13.474-58.031-25.576-129.391c-14.194-83.645-21.601-136.98-22.192-160.025
	v-56.725c0-0.371-0.047-0.752-0.132-1.113c-2.944-12.363-5.007-22.699-6.205-31.031c-0.023-0.166-0.056-0.324-0.103-0.486
	c-1.778-6.564-2.974-12.551-3.562-17.941c-0.609-5.449-0.911-10.295-0.911-14.545c0-6.053,0.302-17.414,0.911-34.1
	c0.601-16.664,1.21-38.328,1.813-65.01c1.21-21.213,1.819-40.148,1.819-56.83c0-16.66-0.609-31.666-1.819-45.006
	c-0.604-16.964-1.673-33.94-3.185-50.92c-1.485-16.669-3.419-32.473-5.777-47.399c-0.085-0.531-0.076-1.075,0.018-1.605
	c1.764-9.87,3.809-18.898,6.141-27.1c0.05-0.186,0.094-0.369,0.12-0.561c5.435-35.66,9.357-70.412,11.774-104.277
	c3.627-31.992,7.547-65.484,11.766-100.488c0.035-0.291,0.059-0.566,0.044-0.857c-0.182-3.164-2.306-9.23-6.349-18.225
	c-4.251-9.391-11.221-22.875-20.921-40.462c-7.878-12.731-14.402-23.483-19.544-32.279c-5.153-8.782-10.456-15.913-15.908-21.366
	c-6.067-6.051-13.799-11.055-23.188-15.006c-9.407-3.936-20.771-5.908-34.099-5.908c-16.368,0-30.009,5.453-40.919,16.363
	c-10.91,10.917-18.495,26.982-22.731,48.194c-16.362,82.446-28.638,160.938-36.823,235.5c-0.009,0.088-0.023,0.171-0.032,0.258
	c-0.571,5.269-7.957,5.929-9.416,0.832l-32.502-113.59c-0.592-2.067-2.479-3.492-4.629-3.492H77.818c-3.199,0-5.508,3.06-4.632,6.14
	l77.206,270.765c0.132,0.469,0.193,0.955,0.182,1.445c-0.519,17.598-0.788,35.012-0.788,52.227c0,26.072,1.049,48.053,3.179,65.924
	c2.027,17.043,4.743,29.812,8.153,38.318c0.331,0.822,0.891,1.514,1.605,2.041l23.514,17.377c6.07,4.25,10.614,13.186,13.649,26.826
	c3.047,13.639,4.86,30.773,5.473,51.375c1.225,25.457,2.288,45.32,3.196,59.555c0.876,13.732,1.887,22.529,3.053,26.406
	c0.091,0.299,0.211,0.562,0.354,0.834c5.355,10.141,9.39,19.096,12.079,26.859c2.728,7.887,4.406,15.162,5.016,21.82
	c0.598,8.496,1.204,17.139,1.819,25.92c0.604,8.742,1.216,17.328,1.819,25.766c0.009,0.1,0.018,0.199,0.032,0.297
	c3.63,27.213,6.964,50.803,9.996,70.771c3.021,19.861,5.435,36.135,7.248,48.826c0.026,0.188,0.067,0.373,0.114,0.557
	c5.443,20.496,10.43,37.973,14.974,52.453c4.28,13.699,8.432,24.715,12.463,33.035c0.483,1.002,0.624,2.092,0.36,3.174
	c-1.181,4.854-3.012,10.799-5.484,17.818c-0.322,0.922-0.369,1.947-0.111,2.891c5.32,19.5,10.5,38.564,15.545,57.197
	c5.159,19.092,10.471,38.041,15.955,56.832c9.105,30.912,18.214,53.951,27.334,69.1c9.108,15.156,18.527,22.732,28.245,22.732
	c20.007,0,38.033-5.912,54.105-17.73c16.002-11.787,30.967-29.453,44.883-52.986c0.079-0.135,0.152-0.279,0.223-0.42
	c19.359-39.938,37.506-79.559,54.46-118.9c16.359-37.58,29.092-66.971,38.183-88.205c8.522-19.875,12.782-32.844,12.788-38.885
	c0-0.73,0.123-1.465,0.457-2.119c14.367-28.119,28.286-54.904,41.763-80.375c11.505-21.715,22.676-42.895,33.527-63.539
	c2.083-3.961,7.972-3.156,8.959,1.209c5.783,25.545,10.107,47.846,12.987,66.877c3.316,22.131,5.593,39.863,6.817,53.193
	c2.417,27.273,4.688,54.094,6.817,80.461c2.115,26.297,4.078,52.447,5.888,78.422c0.012,0.158,0.029,0.314,0.053,0.469
	c6.064,37.48,16.055,65.268,29.975,83.424c13.939,18.178,32.426,27.27,55.465,27.27c4.848,0,11.369-1.816,19.547-5.449
	c7.871-3.502,17.004-8.395,27.389-14.699c0.807-0.486,1.775-0.732,2.713-0.691c10.852,0.473,19.768-0.301,26.73-2.344
	c7.02-2.045,12.896-5.924,17.666-11.645c0.344-0.41,0.75-0.768,1.213-1.035l21.127-12.328c3.641-1.812,10.002-10.904,19.092-27.277
	c9.1-16.365,20.008-39.691,32.74-70.014c0.984-2.361,1.875-4.471,2.83-6.762l45.91,167.65c0.572,2.096,2.473,3.543,4.645,3.543
	h50.791c2.15,0,4.037-1.422,4.629-3.49l313.072-1092.759c0.883-3.08-1.432-6.146-4.629-6.146h-36.158
	C1313.872,616.729,1311.981,618.16,1311.393,620.233"/>
<path opacity="0.1" fill="#FFFFFF" d="M660.946,881.66c-11.104,22.251-19.245,33.373-24.416,33.373c-3.1,0-5.558-8.93-7.368-26.775
	c-1.816-17.857-2.988-44.103-3.492-78.775v-37.254c0-17.582-0.527-39.582-1.556-65.967c-0.519-21.732-1.04-41.258-1.553-58.6
	c-0.519-17.327-0.771-32.714-0.771-46.176c0-2.586,1.163-9.313,3.489-20.18c1.491-6.952,3.39-15.672,5.619-25.801l65.599,239.548
	C682.706,832.935,670.843,861.851,660.946,881.66 M1059.219,157.111l-251.768,888.826l-42.439-153.691
	c5.867-13.478,10.061-24.103,12.389-31.541c4.131-17.078,8.652-31.297,13.58-42.684c4.91-11.377,9.957-20.437,15.137-27.166
	c7.24-23.285,13.699-43.07,19.398-59.373c5.689-16.298,10.348-30.387,13.975-42.296c5.162-19.659,9.559-36.601,13.189-50.836
	c3.609-14.222,6.986-24.702,10.086-31.435c7.242-19.133,13.451-35.699,18.627-49.67c5.174-13.969,8.537-25.865,10.1-35.699
	c3.611-5.689,7.49-17.077,11.637-34.15c4.131-17.075,8.789-40.091,13.969-69.074c5.17-30.521,9.82-55.225,13.965-74.118
	c4.143-18.882,7.77-31.94,10.869-39.192l-10.086-38.031c1.549-4.137,3.611-9.434,6.205-15.908
	c2.584-6.466,5.691-13.314,9.318-20.564c2.061-5.167,3.742-16.426,5.039-33.766c1.283-17.328,1.943-41.778,1.943-73.342
	c0-11.896-1.041-20.564-3.104-25.998c-2.076-5.436-5.703-8.15-10.865-8.15c-6.721,0-15.633,5.7-26.742,17.073
	c-11.104,11.388-23.643,28.208-37.598,50.45c-2.586,12.937-5.426,24.061-8.527,33.373c-3.109,9.314-5.42,17.072-6.982,23.283
	l10.084,32.598c-8.27,32.086-15.365,59.756-21.307,83.04c-5.939,23.285-11.508,42.687-16.68,58.208
	c-8.771,26.389-17.041,51.879-24.793,76.449c-7.758,24.58-15.771,47.994-24.041,70.236c-1.029,16.045-3.092,29.241-6.191,39.586
	c-3.107,10.355-7.238,18.367-12.41,24.053c-8.27,26.91-17.691,55.629-28.285,86.152c-5.244,15.106-10.775,30.662-16.582,46.652
	l-75.37-272.967c1.049-10.035,1.775-19.02,2.098-26.699c11.865-54.326,20.643-99.463,26.347-135.43
	c5.681-35.956,8.537-61.957,8.537-78c0-12.928-2.596-23.404-7.769-31.432c-5.174-8.02-13.714-14.361-25.605-19.018l-69,24.838
	c-2.438,0.711-4.813,1.758-7.157,2.988l-10.377-37.576h-26.698L349.957,842.699l-43.283,77.763
	c-2.578,1.045-5.687,2.598-9.299,4.658c-3.712-5.168-11.631-43.46-23.742-114.867c-12.117-71.397-18.437-116.922-18.94-136.59
	v-48.896c-2.599-10.863-4.409-19.912-5.438-27.166c-1.55-5.686-2.593-10.861-3.103-15.521c-0.519-4.652-0.779-8.791-0.779-12.418
	c0-5.164,0.261-14.863,0.779-29.102c0.51-14.227,1.031-32.719,1.553-55.491c1.028-18.108,1.55-34.271,1.55-48.507
	c0-14.224-0.521-27.031-1.55-38.418c-0.521-14.479-1.43-28.971-2.719-43.461c-1.292-14.479-2.979-28.198-5.042-41.136
	c1.55-8.79,3.357-16.806,5.429-24.058c4.658-30.525,8.019-60.271,10.09-89.254c3.108-27.419,6.466-56.136,10.087-86.147
	c0-2.585-1.816-7.881-5.429-15.911c-3.627-8.018-9.577-19.525-17.856-34.533c-6.724-10.869-12.29-20.05-16.682-27.556
	c-4.4-7.497-8.924-13.583-13.579-18.237c-5.177-5.165-11.774-9.434-19.79-12.806C184.181,1.686,174.483,0,163.11,0
	c-13.975,0-25.617,4.654-34.931,13.967c-9.311,9.318-15.785,23.031-19.4,41.139c-13.966,70.368-24.445,137.367-31.433,201.014
	c-0.806,7.319-1.397,14.482-2.109,21.736L40.69,157.111H0l67.562,236.956c-0.451,15.237-0.688,30.312-0.688,45.21
	c0,22.254,0.896,41.017,2.716,56.271c1.816,15.264,4.28,26.517,7.397,33.759l21.003,15.521c5.177,3.627,9.056,11.253,11.651,22.893
	c2.596,11.644,4.146,26.269,4.673,43.854c1.04,21.729,1.948,38.686,2.725,50.834c0.773,12.163,1.676,19.792,2.719,22.897
	c4.664,8.801,8.171,16.563,10.497,23.279c2.332,6.732,3.762,12.942,4.28,18.627c0.513,7.251,1.031,14.625,1.556,22.119
	c0.521,7.509,1.043,14.883,1.562,22.122c3.105,23.279,5.959,43.457,8.552,60.535c2.596,17.075,4.67,31.043,6.22,41.908
	c4.673,17.597,8.95,32.597,12.844,45.013c3.882,12.42,7.638,22.258,11.276,29.496c-1.04,4.65-2.859,10.605-5.443,17.846
	c4.658,17.076,9.19,33.762,13.608,50.062c4.4,16.295,8.933,32.473,13.617,48.51c7.772,26.385,15.545,46.049,23.329,58.98
	c7.775,12.934,15.814,19.402,24.108,19.402c17.077,0,32.467-5.045,46.184-15.135c13.696-10.09,26.508-25.227,38.411-45.4
	c16.556-34.152,32.074-68.033,46.57-101.672c13.969-32.074,24.835-57.162,32.596-75.285c7.758-18.098,11.379-29.487,10.866-34.145
	c12.416-24.315,24.448-47.464,36.085-69.463c11.646-21.985,22.896-43.329,33.765-64.028c6.208,26.385,10.729,49.028,13.585,67.908
	c2.833,18.891,4.772,34.029,5.818,45.404c2.062,23.277,4.002,46.173,5.821,68.679c1.808,22.516,3.489,44.898,5.039,67.137
	c5.168,32.092,13.708,55.881,25.614,71.406c11.897,15.518,27.677,23.275,47.344,23.275c4.137,0,9.703-1.549,16.685-4.648
	c6.987-3.109,15.135-7.5,24.445-13.195c9.829,0.518,17.856-0.123,24.064-1.943c6.211-1.807,11.37-5.297,15.516-10.477l18.626-10.869
	c3.111-1.547,8.541-9.307,16.301-23.281c7.768-13.969,17.074-33.879,27.941-59.76c0.84-2.016,1.602-3.814,2.42-5.771l40.014,146.123
	h49.588l269.578-940.957H1059.219z"/>
</svg>
