<?xml version="1.0" encoding="UTF-8" standalone="no"?>
<svg width="145px" height="399px" viewBox="0 0 145 399" version="1.1" xmlns="http://www.w3.org/2000/svg" xmlns:xlink="http://www.w3.org/1999/xlink">
    <!-- Generator: Sketch 39.1 (31720) - http://www.bohemiancoding.com/sketch -->
    <title>VDW-logo-blk</title>
    <desc>Created with Sketch.</desc>
    <defs></defs>
    <g id="Page-1" stroke="none" stroke-width="1" fill="none" fill-rule="evenodd">
        <g id="VDW-logo-blk" transform="translate(72.500000, 199.500000) rotate(-270.000000) translate(-72.500000, -199.500000) translate(-127.000000, 127.000000)" fill="#FE5000">
            <g id="Group">
                <path d="M114,21.9 C113.1,21.9 112.2,22.1 111.4,22.4 L109.9,22.4 C109,22.5 108.4,22.6 108,22.6 L101.8,23.7 C101,23.8 99.5,23.9 97.2,23.9 C94.6,23.9 89.1,23.7 80.9,23.4 L75.9,22.4 L75.2,22.4 C72.9,22.4 71.8,23.2 71.8,24.8 C71.8,26.2 73.1,26.9 75.6,26.9 L80.4,26.9 L85.2,26.9 C90.2,26.9 92.7,28.5 92.7,31.7 C92.7,32.8 92.5,34.1 92,35.5 L67,108 C64.8,102 62.6,96.2 60.6,90.8 C58.1,84.2 55.5,77.5 53,70.7 C50.5,63.9 47.9,57 45.2,49.8 C42.6,42.8 39.7,35.2 36.5,26.9 L37.7,26.9 L39,26.9 C41.5,26.9 42.8,26.1 42.8,24.5 C42.8,23.1 41.5,22.4 38.9,22.4 L38.6,22.4 C36.6,22.4 34.7,22.5 32.8,22.8 C31.7,22.2 30.4,21.9 29.1,21.9 C27.3,21.9 25.6,22.6 24.2,24 L22.2,24 C19.3,24 17.3,23.9 16,23.8 L10.3,23.1 L5.5,22.4 L4.5,22.4 C1.5,22.4 0,23.2 0,24.9 C0,26.2 1.3,26.9 3.9,26.9 L7,26.9 L9.7,26.9 C13.4,26.9 16.4,30.2 18.8,36.8 L54.8,136.4 C55.7,139 56.9,140.3 58.4,140.3 C59.6,140.3 60.8,139 61.9,136.3 C62.7,137.5 63.6,138.5 64.6,139.2 C65.9,140.1 67.3,140.5 68.7,140.5 C70.2,140.5 71.7,140 73.1,139 C74.5,138 75.6,136.5 76.3,134.5 C82.7,117.6 89.5,100.5 96.5,83.2 C103.5,65.9 111.5,49.4 120.5,33.6 C121.1,32 121.4,30.6 121.4,29.4 C121.4,27.1 120.6,25.3 119.1,23.9 C117.6,22.6 115.9,21.9 114,21.9 L114,21.9 Z M58.4,131.4 C57.9,131.4 57.5,130.9 57.2,129.9 L24.6,38.8 C30.3,53.8 36,68.8 41.6,83.7 C47.4,99.2 53.4,114.7 59.4,130.2 C59,131 58.6,131.4 58.4,131.4 L58.4,131.4 Z M91,57.9 C87.7,65.6 84.5,73.3 81.2,81.1 L95.5,40.1 L97.6,34.4 C98.6,31.4 99.7,29.4 100.9,28.4 C102,27.4 103.9,26.9 106.6,26.9 C100.7,37 95.6,47.3 91,57.9 L91,57.9 Z" id="Shape"></path>
                <path d="M394,20.5 L362.3,132.5 L357,113.1 C357.7,111.4 358.3,110.1 358.6,109.1 C359.1,106.9 359.7,105.2 360.3,103.7 C360.9,102.3 361.6,101.1 362.2,100.3 C363.1,97.4 363.9,94.9 364.6,92.8 C365.3,90.7 365.9,89 366.4,87.5 C367.1,85 367.6,82.9 368.1,81.1 C368.6,79.3 369,78 369.4,77.1 C370.3,74.7 371.1,72.6 371.7,70.8 C372.4,69 372.8,67.5 373,66.3 C373.5,65.6 373.9,64.1 374.5,62 C375,59.8 375.6,56.9 376.3,53.3 C377,49.5 377.5,46.3 378.1,44 C378.6,41.6 379.1,40 379.5,39.1 L378.2,34.3 C378.4,33.8 378.7,33.1 379,32.3 C379.3,31.5 379.7,30.6 380.2,29.7 C380.5,29 380.7,27.6 380.8,25.4 C381,23.2 381,20.1 381,16.2 C381,14.7 380.9,13.6 380.6,12.9 C380.3,12.2 379.9,11.9 379.2,11.9 C378.4,11.9 377.2,12.6 375.8,14.1 C374.4,15.5 372.8,17.7 371.1,20.5 C370.8,22.1 370.4,23.5 370,24.7 C369.6,25.9 369.3,26.8 369.1,27.6 L370.4,31.7 C369.4,35.7 368.5,39.2 367.7,42.2 C367,45.1 366.3,47.6 365.6,49.5 C364.5,52.8 363.5,56 362.5,59.1 C361.5,62.2 360.5,65.1 359.5,67.9 C359.4,69.9 359.1,71.6 358.7,72.9 C358.3,74.2 357.8,75.2 357.1,75.9 C356.1,79.3 354.9,82.9 353.5,86.8 C352.8,88.7 352.1,90.7 351.4,92.7 L341.9,58.3 C342,57 342.1,55.9 342.2,54.9 C343.7,48.1 344.8,42.4 345.5,37.8 C346.2,33.3 346.6,30 346.6,28 C346.6,26.4 346.3,25.1 345.6,24 C344.9,23 343.9,22.2 342.4,21.6 L333.7,24.7 C333.4,24.8 333.1,24.9 332.8,25.1 L331.5,20.4 L328,20.4 L304.7,106.8 L299.2,116.6 C298.9,116.7 298.5,116.9 298,117.2 C297.5,116.5 296.5,111.7 295,102.7 C293.5,93.7 292.7,88 292.6,85.5 L292.6,79.3 C292.3,77.9 292,76.8 291.9,75.9 C291.7,75.2 291.6,74.5 291.5,73.9 C291.4,73.3 291.4,72.8 291.4,72.3 C291.4,71.6 291.4,70.4 291.5,68.6 C291.6,66.8 291.6,64.5 291.7,61.6 C291.8,59.3 291.9,57.3 291.9,55.5 C291.9,53.7 291.8,52.1 291.7,50.7 C291.6,48.9 291.5,47.1 291.4,45.2 C291.2,43.4 291,41.6 290.8,40 C291,38.9 291.2,37.9 291.5,37 C292.1,33.2 292.5,29.4 292.8,25.8 C293.2,22.3 293.6,18.7 294.1,14.9 C294.1,14.6 293.9,13.9 293.4,12.9 C292.9,11.9 292.2,10.4 291.2,8.6 C290.4,7.2 289.7,6.1 289.1,5.1 C288.5,4.2 288,3.4 287.4,2.8 C286.7,2.1 285.9,1.6 284.9,1.2 C283.9,0.8 282.7,0.6 281.2,0.6 C279.4,0.6 278,1.2 276.8,2.4 C275.6,3.6 274.8,5.3 274.4,7.6 C272.6,16.5 271.3,24.9 270.4,32.9 C270.3,33.8 270.2,34.7 270.1,35.6 L265.7,20.4 L260.6,20.4 L269.1,50.2 C269,52.1 269,54 269,55.9 C269,58.7 269.1,61.1 269.3,63 C269.5,64.9 269.8,66.3 270.2,67.3 L272.8,69.3 C273.5,69.8 273.9,70.7 274.3,72.2 C274.6,73.7 274.8,75.5 274.9,77.7 C275,80.4 275.1,82.6 275.2,84.1 C275.3,85.6 275.4,86.6 275.5,87 C276.1,88.1 276.5,89.1 276.8,89.9 C277.1,90.7 277.3,91.5 277.3,92.2 C277.4,93.1 277.4,94 277.5,95 C277.6,95.9 277.6,96.9 277.7,97.8 C278.1,100.7 278.5,103.3 278.8,105.4 C279.1,107.6 279.4,109.3 279.6,110.7 C280.2,112.9 280.7,114.8 281.2,116.4 C281.7,118 282.2,119.2 282.6,120.1 C282.5,120.7 282.2,121.4 281.9,122.3 C282.5,124.5 283.1,126.6 283.6,128.6 C284.2,130.7 284.7,132.7 285.3,134.7 C286.3,138 287.3,140.5 288.2,142.1 C289.2,143.7 290.2,144.5 291.2,144.5 C293.4,144.5 295.3,143.9 297,142.6 C298.7,141.3 300.3,139.4 301.8,136.9 C303.9,132.6 305.8,128.3 307.7,124.1 C309.5,120.1 310.8,116.9 311.8,114.6 C312.8,112.3 313.2,110.9 313.2,110.3 C314.8,107.2 316.3,104.3 317.7,101.5 C319.2,98.7 320.6,96 322,93.4 C322.8,96.7 323.4,99.6 323.7,102 C324.1,104.4 324.3,106.3 324.4,107.7 C324.7,110.6 324.9,113.5 325.1,116.4 C325.3,119.2 325.5,122.1 325.7,124.9 C326.4,128.9 327.4,131.9 328.9,133.9 C330.4,135.9 332.4,136.8 334.9,136.8 C335.4,136.8 336.1,136.6 337,136.2 C337.9,135.8 338.9,135.3 340.1,134.5 C341.3,134.6 342.3,134.5 343.1,134.3 C343.9,134.1 344.5,133.6 345.1,133 L347.4,131.6 C347.8,131.4 348.5,130.4 349.5,128.7 C350.5,126.9 351.7,124.4 353,121.2 C353.1,120.9 353.2,120.7 353.3,120.5 L358.3,138.9 L364.5,138.9 L398.5,20.4 L394,20.4 L394,20.5 Z M343.8,111.8 C342.4,114.6 341.4,116 340.7,116 C340.3,116 340,114.9 339.8,112.6 C339.6,110.4 339.4,107 339.4,102.7 L339.4,98 C339.4,95.8 339.3,93 339.2,89.7 C339.1,87 339.1,84.5 339,82.3 C338.9,80.1 338.9,78.2 338.9,76.5 C338.9,76.2 339,75.3 339.3,74 C339.5,73.1 339.7,72 340,70.7 L348.3,100.9 C346.5,105.6 345,109.3 343.8,111.8 L343.8,111.8 Z" id="Shape"></path>
                <path d="M239.6,47 C237.6,42 234.8,37.8 231.1,34.4 C227.4,31 222.8,28.3 217.4,26.4 C214.6,25.4 211.6,24.7 208.5,24.2 C202.5,20.8 196.2,17.9 189.3,15.6 C188,15.2 183,12.8 174.4,8.7 C166.8,5 162.4,3.1 161,3.1 C158.7,3.1 156.3,4.4 154,6.9 C151.7,9.4 150.5,11.8 150.5,14.1 C150.5,19.2 150.6,26.3 150.7,35.3 C149.6,35.8 148.5,36.3 147.5,36.8 C143.2,38.9 140,40.8 138.1,42.4 C133.3,46.2 130.9,52.9 130.9,62.4 C130.9,66.1 132.3,67.9 135.2,67.9 C136.1,67.9 137.2,67.7 138.4,67.3 C139.6,66.9 141.6,66 144.5,64.8 C146.8,63.8 149,62.8 151.2,62 C151.2,66.2 151.3,69.8 151.3,72.7 C151.3,78.6 151,87.3 150.5,99 L150.5,99.1 C147.8,104 145.5,108.7 143.5,113 C142.3,115.6 141.5,117.9 141,119.9 C140.5,121.9 140.2,124.5 140.2,127.7 C140.2,130.3 140.5,132.2 141,133.5 C141.5,134.8 142.4,135.7 143.6,136.1 C144.8,136.5 146.4,136.8 148.5,136.8 C153,136.8 157.6,136.5 162.1,135.8 C165,137.3 168.7,138.7 173.2,139.7 C178.4,141 183.1,141.6 187.2,141.6 C203.4,141.6 215.8,138.6 224.4,132.7 C232.2,127.4 238.3,120.4 242.8,111.6 C247.3,102.8 249.5,93.7 249.5,84.2 C249.5,74.5 247,65.3 242.2,56.6 C241.6,53.2 240.8,50 239.6,47 L239.6,47 Z M185.1,116.2 C179.4,118.1 173.9,119.3 168.6,119.9 C168.5,119.9 168.5,119.8 168.4,119.8 C167.6,119.2 167,118.9 166.6,118.7 L167.6,85.3 C168,84.6 168.4,83.9 168.8,83.3 C171.5,78.8 174.8,73.6 178.7,67.7 C182.5,61.8 185.1,57.7 186.4,55.4 C187.7,53.1 188.4,51.3 188.4,50 C188.4,49.2 188.3,48.2 188.1,47 C187.9,45.9 187.8,45.2 187.8,45.1 C191.8,44.8 196,44.6 200.5,44.6 C203.2,44.6 205.7,44.7 208.1,45 C222.1,54.4 230,65.5 232,78.1 C230.9,81.5 229.2,84.8 226.8,88.1 C222.3,94.3 216.4,99.8 208.9,104.8 C201.5,109.6 193.6,113.5 185.1,116.2 L185.1,116.2 Z M172.9,27.4 C171,27.9 169.2,28.4 167.4,28.9 L167.3,24.9 C169.3,25.8 171.1,26.6 172.9,27.4 L172.9,27.4 Z M151.1,59.3 C147.1,60 144.8,60.3 144.3,60.3 C143.6,60.3 143.2,60.1 143.2,59.7 C143.2,59.1 144.7,58.1 147.6,56.7 C148.7,56.2 149.8,55.7 151,55.2 C151.1,56.6 151.1,58 151.1,59.3 L151.1,59.3 L151.1,59.3 Z M167.8,49.4 C169.2,49 170.7,48.6 172.1,48.2 C176.9,46.9 181.3,46.1 185.3,45.6 C178.9,54.3 173.1,62.5 168,70.2 L167.8,49.4 L167.8,49.4 Z M214.8,118.9 C210.7,121.7 204.8,123.4 197.3,124.3 C202.8,121.5 207.9,118.3 212.7,114.7 C219.9,109.3 225.9,103.3 230.8,96.7 C230,99.2 229,101.7 227.8,104.1 C224.5,110.2 220.2,115.2 214.8,118.9 L214.8,118.9 Z" id="Shape"></path>
            </g>
        </g>
    </g>
</svg>