<?xml version="1.0" encoding="utf-8"?>
<!-- Generator: Adobe Illustrator 16.0.0, SVG Export Plug-In . SVG Version: 6.00 Build 0)  -->
<!DOCTYPE svg PUBLIC "-//W3C//DTD SVG 1.1//EN" "http://www.w3.org/Graphics/SVG/1.1/DTD/svg11.dtd">
<svg version="1.1" id="Layer_1" xmlns="http://www.w3.org/2000/svg" xmlns:xlink="http://www.w3.org/1999/xlink" x="0px" y="0px"
	 width="334.469px" height="2527.252px" viewBox="0 0 334.469 2527.252" enable-background="new 0 0 334.469 2527.252"
	 xml:space="preserve">
<path d="M300.881,500.83c-5.588-14.003-13.572-25.846-23.959-35.524c-10.385-9.677-23.29-17.19-38.71-22.541
	c-8.006-2.776-16.423-4.817-25.232-6.153c-16.802-9.614-34.822-17.719-54.078-24.297c-3.776-1.257-17.784-7.789-42.016-19.59
	c-21.401-10.541-33.988-15.816-37.766-15.816c-6.609,0-13.217,3.54-19.827,10.622c-6.609,7.081-9.914,13.848-9.914,20.3
	c0,14.379,0.217,34.329,0.649,59.797c-3.095,1.412-6.113,2.84-9.028,4.288c-12.197,6.059-21.048,11.293-26.555,15.697
	C0.914,498.469-5.854,517.276-5.854,544.025c0,10.387,4.012,15.579,12.038,15.579c2.515,0,5.507-0.589,8.969-1.769
	c3.459-1.181,9.165-3.541,17.113-7.081c6.512-2.903,12.828-5.538,19.026-8.019c0.141,11.835,0.211,21.872,0.211,30.088
	c0,16.523-0.748,41.27-2.242,74.235c-0.004,0.093-0.008,0.182-0.012,0.274c-7.568,13.864-14.143,26.959-19.697,39.263
	c-3.305,7.396-5.665,13.927-7.081,19.591s-2.124,12.979-2.124,21.952c0,7.238,0.708,12.709,2.124,16.403s3.814,6.174,7.2,7.435
	c3.381,1.258,7.984,1.889,13.808,1.889c12.727,0,25.538-0.983,38.423-2.847c8.223,4.347,18.678,8.058,31.444,11.109
	c14.79,3.616,27.931,5.428,39.419,5.428c45.634,0,80.645-8.344,105.038-25.021c21.871-14.948,39.144-34.774,51.812-59.48
	c12.664-24.704,19-50.513,19-77.422c0-27.286-6.933-53.188-20.719-77.718C306.555,518.269,304.23,509.233,300.881,500.83
	 M147.1,696.152c-16.042,5.224-31.503,8.654-46.41,10.376c-0.183-0.12-0.381-0.221-0.562-0.342
	c-2.205-1.572-3.857-2.597-4.956-3.069l2.761-94.248c1.151-1.932,2.282-3.81,3.376-5.596c7.707-12.589,16.995-27.224,27.853-43.904
	c10.856-16.677,18.134-28.285,21.832-34.816c3.696-6.528,5.548-11.603,5.548-15.226c0-2.36-0.318-5.152-0.945-8.379
	c-0.63-3.223-0.943-4.993-0.943-5.311c11.171-0.944,23.132-1.416,35.878-1.416c7.579,0,14.707,0.366,21.386,1.097
	c39.356,26.652,61.882,57.731,67.54,93.245c-3.139,9.603-7.966,18.994-14.573,28.163c-12.591,17.468-29.387,33.128-50.395,46.971
	C193.482,677.548,171.019,688.363,147.1,696.152 M112.707,445.479c-5.289,1.38-10.451,2.823-15.451,4.344l-0.197-11.306
	C102.479,440.91,107.654,443.216,112.707,445.479 M51.15,535.528c-11.412,1.889-17.821,2.833-19.237,2.833
	c-2.048,0-3.069-0.549-3.069-1.652c0-1.731,4.168-4.563,12.509-8.498c2.982-1.405,6.215-2.833,9.679-4.28
	c0.062,4.022,0.118,7.884,0.168,11.589C51.183,535.523,51.167,535.525,51.15,535.528 M98.252,507.631
	c4.028-1.155,8.1-2.289,12.262-3.378c13.532-3.54,25.964-5.938,37.294-7.2c-18.052,24.475-34.35,47.591-48.941,69.384
	L98.252,507.631z M230.896,703.59c-11.591,7.802-28.095,12.824-49.466,15.101c15.39-7.902,29.89-16.887,43.446-27.022
	c20.212-15.111,37.179-32.101,51.001-50.9c-2.154,7.088-4.977,14.065-8.515,20.925C258.312,679.241,246.157,693.202,230.896,703.59"
	/>
<path d="M319.826,22.279c-3.133,0-6.096,0.629-8.924,1.758h-5.218c-3.1,0.498-5.219,0.744-6.377,0.744l-20.866,3.731
	c-2.708,0.498-7.924,0.741-15.649,0.741c-8.894,0-27.243-0.579-55.064-1.737l-16.81-3.479h-2.317
	c-7.734,0-11.594,2.708-11.594,8.116c0,4.637,4.248,6.955,12.753,6.955h16.229h16.229c16.999,0,25.504,5.398,25.504,16.175
	c0,3.859-0.777,8.096-2.318,12.716L161,313.252c-7.543-20.436-14.815-39.862-21.784-58.164
	c-8.546-22.416-17.082-45.043-25.619-67.889c-8.547-22.836-17.292-46.434-26.258-70.771c-8.744-23.731-18.523-49.524-29.293-77.32
	h3.907H66.3c8.496,0,12.752-2.698,12.752-8.115c0-4.637-4.447-6.956-13.332-6.956h-1.158c-6.783,0-13.349,0.483-19.718,1.41
	c-3.885-2.078-8.07-3.168-12.585-3.168c-6.223,0-11.741,2.345-16.549,6.974H8.918c-9.663,0-16.619-0.19-20.867-0.579l-19.127-2.318
	l-16.23-2.319h-3.476c-10.044,0-15.072,2.791-15.072,8.368c0,4.475,4.447,6.703,13.332,6.703h10.433h9.274
	c12.362,0,22.606,11.176,30.719,33.518l121.721,336.892c3.088,8.86,7.146,13.296,12.172,13.296c4.12,0,8.115-4.507,11.981-13.362
	c2.607,4.227,5.666,7.553,9.207,9.916c4.483,2.979,9.067,4.48,13.771,4.48c5.123,0,10.026-1.708,14.731-5.121
	c4.691-3.424,8.325-8.538,10.887-15.374c21.776-57.211,44.513-115.061,68.21-173.562c23.697-58.492,50.696-114.423,81.019-167.801
	c2.132-5.544,3.201-10.247,3.201-14.091c0-7.685-2.562-13.869-7.685-18.574C331.995,24.632,326.232,22.279,319.826,22.279
	 M131.797,392.675c-1.549,0-2.898-1.729-4.058-5.197L17.352,79.401C36.588,130.113,55.764,180.69,74.849,231.07
	c19.783,52.256,39.866,104.705,60.176,157.3C133.822,391.188,132.743,392.675,131.797,392.675 M242.33,143.967
	c-11.146,26.009-22.141,52.171-33.062,78.403l48.307-138.631l6.956-19.129c3.478-10.043,7.145-16.808,11.013-20.285
	c3.706-3.343,10.126-5.06,19.193-5.191C275.139,73.234,257.672,108.172,242.33,143.967"/>
<path d="M75.146,33.379c-0.901,3.001-1.151,6.02-0.883,9.053c-0.434,1.446-0.929,3.095-1.501,4.998
	c-0.414,3.11-0.789,5.211-1.122,6.321L69.21,74.808c-0.302,2.737-1.569,7.803-3.792,15.201c-2.558,8.518-8.391,25.925-17.504,52.238
	l-8.167,15.097c-0.112,0.373-0.333,1.11-0.667,2.221c-2.224,7.406-0.741,11.881,4.438,13.437c4.441,1.334,7.884-2.068,10.33-10.213
	c1-3.33,2.556-8.508,4.668-15.542c2.111-7.026,3.669-12.213,4.669-15.543c4.89-16.281,12.506-22.873,22.827-19.773
	c3.696,1.11,7.531,3.074,11.512,5.878l210.606,151.386c-21.74,1.345-42.438,2.722-61.972,4.131
	c-23.927,1.736-48.053,3.402-72.389,5.007c-24.329,1.616-49.446,3.203-75.333,4.79c-25.244,1.548-52.76,3.494-82.478,5.812
	c0.431-1.435,0.814-2.71,1.124-3.74c0.721-2.403,1.138-3.791,1.25-4.163c2.444-8.138,1.084-12.99-4.104-14.549
	c-4.441-1.334-7.941,2.259-10.497,10.768l-0.333,1.109c-1.951,6.496-3.377,12.925-4.322,19.29
	c-3.108,3.123-5.355,6.817-6.654,11.143c-1.79,5.96-1.132,11.919,1.919,17.854l-1.954,6.506c-2.78,9.255-4.963,15.861-6.557,19.817
	l-7.723,17.652l-6.889,14.877l-1,3.33c-2.889,9.619-1.663,15.236,3.679,16.841c4.285,1.287,7.699-2.331,10.255-10.84
	c1.222-4.069,2.222-7.398,3.001-9.992c1.555-5.179,2.444-8.136,2.667-8.882c3.556-11.839,17.207-18.436,40.938-19.779
	l357.667-19.664c9.373-0.409,14.789-3.019,16.235-7.833c1.186-3.946-1.981-9.068-9.352-15.317c4.799-1.281,8.863-3.256,12.146-5.967
	c4.145-3.437,6.9-7.395,8.253-11.899c1.475-4.906,1.248-10.094-0.667-15.581c-1.929-5.479-5.781-10.429-11.592-14.851
	c-48.529-37.312-97.393-75.729-146.605-115.253c-49.202-39.522-95.004-81.469-137.402-125.864c-4.697-3.637-8.893-6.015-12.574-7.12
	c-7.36-2.211-14.02-1.536-19.999,2.017C80.899,22.402,76.988,27.244,75.146,33.379 M375.796,320.01
	c-0.444,1.484-2.488,2.278-6.144,2.391l-326.81,17.101c54.102-3.836,108.057-7.652,161.799-11.438
	c55.736-3.915,111.748-8.061,167.96-12.383C374.955,317.643,376.068,319.104,375.796,320.01 M169.397,142.605
	c21.703,18.156,43.597,36.213,65.578,54.219L116.1,110.68L99.781,98.516c-8.619-6.221-14.043-11.679-16.26-16.384
	c-2.135-4.51-1.933-11.153,0.549-19.875C111.091,90.836,139.528,117.615,169.397,142.605"/>
<path d="M238.226,1158.198c-3.937,7.892-6.823,11.835-8.657,11.835c-1.1,0-1.972-3.167-2.613-9.495
	c-0.645-6.332-1.059-15.641-1.237-27.934v-13.21c0-6.237-0.187-14.038-0.553-23.394c-0.184-7.706-0.368-14.632-0.55-20.779
	c-0.184-6.145-0.272-11.603-0.272-16.376c0-0.916,0.412-3.302,1.237-7.155c0.218-1.016,0.459-2.138,0.725-3.357
	c0.324-1.488,2.43-1.551,2.831-0.082l21.574,78.786c0.08,0.292,0.066,0.607-0.038,0.892
	C245.85,1141.146,241.697,1151.252,238.226,1158.198 M379.158,902.328l-87.561,309.11c-0.401,1.42-2.415,1.413-2.807-0.009
	l-13.524-48.983c-0.089-0.32-0.062-0.668,0.07-0.972c1.96-4.526,3.371-8.115,4.173-10.662c0.009-0.031,0.019-0.062,0.025-0.095
	c1.462-6.032,3.061-11.061,4.803-15.086c1.696-3.928,3.438-7.078,5.223-9.443c0.098-0.129,0.17-0.271,0.219-0.426
	c2.538-8.154,4.804-15.093,6.806-20.818c2.018-5.779,3.669-10.776,4.955-14.999c1.831-6.972,3.391-12.979,4.678-18.027
	c1.273-5.018,2.466-8.722,3.561-11.11c0.011-0.024,0.021-0.049,0.03-0.075c2.562-6.769,4.759-12.629,6.591-17.573
	c1.788-4.833,2.969-8.965,3.539-12.4c0.028-0.175,0.088-0.329,0.179-0.482c1.241-2.085,2.571-6.049,3.99-11.887
	c1.465-6.057,3.117-14.219,4.953-24.495c1.833-10.823,3.482-19.582,4.953-26.283c1.386-6.323,2.611-10.806,3.669-13.45
	c0.118-0.295,0.141-0.613,0.06-0.921l-3.332-12.562c-0.079-0.293-0.066-0.597,0.041-0.88c0.528-1.398,1.207-3.135,2.04-5.212
	c0.907-2.271,1.998-4.677,3.269-7.222c0.023-0.048,0.044-0.093,0.062-0.142c0.719-1.862,1.306-5.831,1.761-11.904
	c0.454-6.144,0.688-14.813,0.688-26.007c0-4.219-0.369-7.292-1.101-9.219c-0.735-1.928-2.022-2.891-3.854-2.891
	c-2.383,0-5.543,2.021-9.483,6.055c-3.899,3.999-8.297,9.888-13.188,17.661c-0.094,0.149-0.162,0.321-0.196,0.493
	c-0.904,4.475-1.893,8.331-2.972,11.57c-1.037,3.108-1.825,5.73-2.375,7.863c-0.068,0.262-0.058,0.529,0.021,0.788l3.331,10.77
	c0.08,0.257,0.085,0.537,0.018,0.798c-2.889,11.206-5.368,20.886-7.45,29.044c-2.107,8.257-4.081,15.136-5.915,20.641
	c-3.111,9.358-6.044,18.397-8.792,27.11c-2.73,8.646-5.547,16.886-8.454,24.715c-0.047,0.128-0.075,0.264-0.085,0.399
	c-0.369,5.595-1.096,10.205-2.182,13.829c-1.063,3.54-2.462,6.309-4.204,8.31c-0.131,0.148-0.227,0.315-0.284,0.503
	c-2.912,9.46-6.225,19.55-9.943,30.267c-1.385,3.989-2.826,8.068-4.321,12.231c-0.482,1.339-2.399,1.27-2.778-0.104l-25.435-92.117
	c-0.049-0.174-0.062-0.359-0.044-0.539c0.352-3.397,0.597-6.447,0.71-9.074c0.004-0.081,0.016-0.159,0.031-0.237
	c4.195-19.212,7.298-35.178,9.316-47.906c2.016-12.75,3.028-21.969,3.028-27.659c0-4.583-0.921-8.299-2.754-11.145
	c-1.76-2.725-4.611-4.902-8.555-6.532c-0.334-0.138-0.715-0.144-1.056-0.021l-23.939,8.617c-0.355,0.104-0.708,0.228-1.057,0.368
	c-0.805,0.323-1.708-0.13-1.938-0.964l-2.926-10.6c-0.175-0.633-0.75-1.069-1.406-1.069h-7.243c-0.658,0-1.234,0.44-1.406,1.076
	l-65.397,241.866c-0.032,0.114-0.077,0.225-0.134,0.329l-15.02,26.984c-0.157,0.281-0.4,0.497-0.697,0.627
	c-0.447,0.196-0.932,0.43-1.456,0.701c-0.797,0.415-1.782,0.042-2.065-0.811c-1.496-4.51-4.079-17.565-7.741-39.164
	c-4.297-25.317-6.539-41.462-6.718-48.437v-17.17c0-0.112-0.013-0.227-0.04-0.337c-0.89-3.741-1.516-6.87-1.877-9.392
	c-0.007-0.051-0.017-0.1-0.03-0.147c-0.539-1.987-0.901-3.798-1.08-5.429c-0.184-1.652-0.276-3.118-0.276-4.403
	c0-1.833,0.092-5.272,0.276-10.321c0.182-5.044,0.365-11.602,0.549-19.677c0.365-6.423,0.55-12.154,0.55-17.202
	c0-5.043-0.185-9.586-0.55-13.623c-0.184-5.135-0.506-10.272-0.963-15.411c-0.45-5.045-1.036-9.829-1.75-14.348
	c-0.025-0.161-0.023-0.325,0.005-0.485c0.534-2.988,1.153-5.721,1.858-8.203c0.016-0.056,0.028-0.111,0.036-0.17
	c1.646-10.793,2.833-21.312,3.565-31.562c1.098-9.683,2.284-19.82,3.562-30.415c0.01-0.089,0.017-0.172,0.012-0.26
	c-0.054-0.958-0.697-2.794-1.922-5.518c-1.285-2.841-3.395-6.923-6.331-12.244c-2.385-3.854-4.36-7.11-5.917-9.772
	c-1.56-2.657-3.164-4.815-4.815-6.467c-1.837-1.831-4.176-3.347-7.018-4.541c-2.849-1.191-6.288-1.789-10.321-1.789
	c-4.955,0-9.083,1.65-12.385,4.953c-3.303,3.304-5.598,8.166-6.88,14.587c-4.953,24.955-8.669,48.713-11.146,71.281
	c-0.003,0.025-0.006,0.051-0.009,0.078c-0.174,1.595-2.409,1.794-2.85,0.252l-9.837-34.381c-0.179-0.627-0.751-1.057-1.402-1.057
	H5.78c-0.968,0-1.667,0.926-1.401,1.856l23.369,81.956c0.041,0.142,0.059,0.29,0.055,0.437c-0.157,5.326-0.239,10.599-0.239,15.809
	c0,7.893,0.317,14.545,0.963,19.954c0.614,5.156,1.436,9.022,2.468,11.597c0.1,0.249,0.27,0.459,0.487,0.619l7.117,5.259
	c1.836,1.287,3.212,3.991,4.132,8.12c0.921,4.129,1.471,9.314,1.657,15.549c0.369,7.707,0.692,13.72,0.966,18.028
	c0.265,4.155,0.572,6.819,0.924,7.991c0.027,0.09,0.063,0.171,0.107,0.253c1.621,3.07,2.842,5.78,3.655,8.13
	c0.826,2.387,1.334,4.59,1.519,6.604c0.182,2.571,0.365,5.187,0.55,7.845c0.184,2.647,0.368,5.246,0.552,7.8
	c0.002,0.029,0.005,0.06,0.009,0.091c1.099,8.236,2.108,15.376,3.026,21.419c0.914,6.012,1.646,10.938,2.194,14.778
	c0.008,0.058,0.02,0.113,0.034,0.17c1.647,6.203,3.157,11.492,4.533,15.876c1.294,4.146,2.551,7.481,3.771,10
	c0.147,0.302,0.189,0.632,0.11,0.959c-0.358,1.471-0.912,3.27-1.66,5.395c-0.099,0.279-0.112,0.589-0.035,0.875
	c1.61,5.902,3.178,11.672,4.706,17.312c1.562,5.779,3.168,11.515,4.829,17.202c2.755,9.356,5.513,16.329,8.273,20.914
	c2.757,4.588,5.608,6.882,8.55,6.882c6.055,0,11.512-1.789,16.376-5.367c4.844-3.566,9.374-8.915,13.585-16.038
	c0.024-0.041,0.047-0.083,0.067-0.126c5.86-12.09,11.352-24.081,16.483-35.989c4.953-11.374,8.807-20.271,11.559-26.697
	c2.579-6.017,3.869-9.942,3.871-11.771c0-0.222,0.037-0.443,0.137-0.64c4.349-8.512,8.563-16.619,12.641-24.329
	c3.482-6.573,6.863-12.983,10.148-19.231c0.63-1.198,2.413-0.956,2.711,0.365c1.752,7.732,3.061,14.481,3.932,20.242
	c1.004,6.697,1.692,12.066,2.063,16.1c0.731,8.256,1.419,16.375,2.063,24.355c0.641,7.96,1.234,15.874,1.782,23.736
	c0.004,0.048,0.009,0.096,0.017,0.142c1.835,11.345,4.858,19.756,9.071,25.25c4.22,5.503,9.815,8.255,16.788,8.255
	c1.468,0,3.442-0.551,5.918-1.649c2.382-1.06,5.146-2.54,8.29-4.449c0.243-0.146,0.536-0.222,0.82-0.21
	c3.285,0.144,5.983-0.092,8.092-0.708c2.124-0.62,3.903-1.794,5.347-3.525c0.104-0.125,0.227-0.231,0.366-0.314l6.395-3.729
	c1.103-0.551,3.027-3.302,5.779-8.258c2.755-4.952,6.055-12.013,9.909-21.191c0.297-0.714,0.566-1.353,0.856-2.047l13.896,50.745
	c0.174,0.633,0.75,1.072,1.406,1.072h15.374c0.651,0,1.223-0.431,1.401-1.056l94.76-330.757c0.267-0.932-0.433-1.858-1.4-1.858
	h-10.943C379.908,901.268,379.336,901.7,379.158,902.328"/>
<path d="M159.765,991.416c-3.361,6.736-5.825,10.102-7.389,10.102c-0.939,0-1.684-2.702-2.231-8.104
	c-0.55-5.404-0.903-13.35-1.056-23.844v-11.276c0-5.321-0.16-11.98-0.472-19.967c-0.157-6.576-0.314-12.487-0.469-17.736
	c-0.158-5.244-0.234-9.902-0.234-13.976c0-0.783,0.352-2.819,1.057-6.109c0.451-2.104,1.025-4.743,1.7-7.811l19.854,72.508
	C166.351,976.668,162.761,985.42,159.765,991.416 M280.314,772.11l-76.206,269.029l-12.844-46.52
	c1.775-4.079,3.044-7.296,3.75-9.548c1.25-5.168,2.618-9.472,4.109-12.919c1.487-3.442,3.015-6.186,4.582-8.222
	c2.19-7.048,4.146-13.037,5.87-17.971c1.723-4.933,3.133-9.198,4.23-12.803c1.563-5.95,2.895-11.078,3.992-15.387
	c1.093-4.306,2.115-7.477,3.054-9.515c2.191-5.791,4.07-10.805,5.638-15.034c1.564-4.229,2.584-7.829,3.056-10.806
	c1.094-1.723,2.269-5.168,3.523-10.335c1.25-5.169,2.66-12.137,4.228-20.909c1.565-9.237,2.973-16.714,4.229-22.434
	c1.252-5.714,2.35-9.668,3.289-11.862l-3.054-11.512c0.469-1.252,1.093-2.856,1.879-4.814c0.781-1.957,1.723-4.03,2.82-6.226
	c0.624-1.562,1.133-4.972,1.526-10.219c0.387-5.245,0.587-12.646,0.587-22.199c0-3.602-0.315-6.225-0.939-7.869
	c-0.629-1.646-1.727-2.467-3.29-2.467c-2.033,0-4.73,1.725-8.093,5.167c-3.36,3.447-7.156,8.538-11.379,15.271
	c-0.784,3.916-1.645,7.283-2.582,10.102c-0.94,2.818-1.641,5.167-2.112,7.047l3.05,9.867c-2.503,9.712-4.65,18.088-6.448,25.134
	c-1.798,7.048-3.483,12.92-5.048,17.618c-2.656,7.988-5.159,15.703-7.505,23.141c-2.348,7.438-4.773,14.526-7.276,21.259
	c-0.312,4.855-0.936,8.85-1.875,11.981c-0.94,3.133-2.19,5.56-3.756,7.28c-2.503,8.145-5.354,16.838-8.561,26.075
	c-1.588,4.574-3.262,9.282-5.021,14.123l-22.812-82.622c0.317-3.037,0.537-5.758,0.636-8.082
	c3.591-16.442,6.247-30.105,7.974-40.991c1.719-10.884,2.583-18.752,2.583-23.609c0-3.912-0.785-7.084-2.35-9.514
	c-1.567-2.427-4.153-4.347-7.751-5.755l-20.886,7.517c-0.737,0.215-1.457,0.532-2.166,0.904l-3.14-11.373h-8.083L65.636,979.623
	l-13.102,23.537c-0.781,0.317-1.721,0.787-2.815,1.41c-1.122-1.564-3.52-13.154-7.185-34.768c-3.668-21.61-5.582-35.39-5.734-41.343
	v-14.8c-0.786-3.288-1.334-6.027-1.646-8.223c-0.469-1.721-0.784-3.287-0.938-4.698c-0.158-1.408-0.236-2.661-0.236-3.758
	c0-1.564,0.078-4.5,0.236-8.809c0.155-4.306,0.312-9.903,0.469-16.797c0.312-5.48,0.469-10.372,0.469-14.682
	c0-4.305-0.158-8.182-0.469-11.628c-0.158-4.383-0.433-8.77-0.823-13.155c-0.391-4.383-0.901-8.534-1.526-12.452
	c0.47-2.66,1.018-5.086,1.644-7.279c1.41-9.24,2.427-18.243,3.053-27.017c0.941-8.3,1.958-16.99,3.054-26.074
	c0-0.783-0.55-2.386-1.644-4.816c-1.097-2.426-2.898-5.91-5.404-10.453c-2.035-3.289-3.72-6.067-5.049-8.341
	c-1.332-2.268-2.702-4.11-4.11-5.52c-1.567-1.563-3.564-2.855-5.991-3.876c-2.43-1.017-5.366-1.527-8.809-1.527
	c-4.229,0-7.753,1.409-10.572,4.229c-2.818,2.819-4.778,6.97-5.873,12.45c-4.227,21.3-7.398,41.579-9.514,60.843
	c-0.243,2.216-0.423,4.385-0.639,6.58l-10.457-36.547H-40.29l20.451,71.722c-0.138,4.611-0.21,9.176-0.21,13.685
	c0,6.735,0.272,12.414,0.822,17.031c0.55,4.621,1.296,8.027,2.239,10.219l6.358,4.697c1.567,1.098,2.742,3.406,3.527,6.931
	c0.786,3.523,1.255,7.95,1.413,13.272c0.316,6.577,0.591,11.71,0.826,15.386c0.235,3.682,0.507,5.992,0.823,6.931
	c1.412,2.664,2.474,5.014,3.177,7.048c0.705,2.038,1.139,3.916,1.295,5.638c0.155,2.193,0.312,4.427,0.471,6.695
	c0.157,2.272,0.316,4.504,0.473,6.695c0.94,7.047,1.803,13.153,2.588,18.322c0.786,5.169,1.414,9.396,1.883,12.687
	c1.414,5.325,2.709,9.865,3.888,13.624c1.174,3.758,2.312,6.736,3.413,8.927c-0.315,1.407-0.866,3.211-1.648,5.402
	c1.41,5.168,2.782,10.219,4.119,15.151c1.333,4.934,2.705,9.829,4.122,14.684c2.352,7.986,4.705,13.938,7.061,17.853
	c2.354,3.915,4.787,5.873,7.297,5.873c5.168,0,9.826-1.528,13.979-4.582c4.146-3.053,8.023-7.636,11.626-13.741
	c5.012-10.338,9.708-20.592,14.096-30.774c4.228-9.708,7.517-17.302,9.866-22.787c2.347-5.478,3.443-8.925,3.289-10.335
	c3.758-7.359,7.399-14.365,10.922-21.024c3.525-6.655,6.93-13.114,10.219-19.381c1.879,7.987,3.249,14.841,4.113,20.556
	c0.857,5.717,1.444,10.299,1.761,13.743c0.624,7.046,1.212,13.975,1.762,20.787c0.547,6.814,1.056,13.589,1.525,20.32
	c1.565,9.714,4.15,16.914,7.753,21.613c3.601,4.696,8.377,7.046,14.329,7.046c1.253,0,2.938-0.47,5.051-1.407
	c2.115-0.942,4.582-2.271,7.399-3.995c2.975,0.157,5.405-0.036,7.284-0.588c1.879-0.548,3.442-1.603,4.698-3.171l5.638-3.288
	c0.941-0.47,2.584-2.818,4.933-7.049c2.351-4.229,5.168-10.254,8.458-18.087c0.255-0.61,0.484-1.156,0.731-1.748l12.111,44.229
	h15.01l81.596-284.808H280.314z"/>
<path d="M421.072,1244.214c-3.939,0-7.664,0.793-11.221,2.21h-6.568c-3.897,0.623-6.56,0.938-8.018,0.938l-26.243,4.691
	c-3.403,0.626-9.968,0.93-19.688,0.93c-11.184,0-34.257-0.727-69.248-2.182l-21.143-4.378h-2.916
	c-9.729,0-14.582,3.406-14.582,10.202c0,5.834,5.344,8.75,16.044,8.75h20.407h20.414c21.378,0,32.075,6.797,32.075,20.349
	c0,4.852-0.976,10.187-2.92,15.994l-106.152,308.453c-9.485-25.698-18.629-50.136-27.394-73.16
	c-10.752-28.188-21.486-56.647-32.226-85.376c-10.748-28.718-21.747-58.405-33.023-89.015
	c-11.001-29.854-23.29-62.273-36.841-97.245h4.911h5.466c10.69,0,16.041-3.391,16.041-10.203c0-5.832-5.588-8.749-16.763-8.749
	h-1.463c-8.529,0-16.791,0.606-24.801,1.773c-4.886-2.612-10.145-3.983-15.823-3.983c-7.823,0-14.761,2.949-20.809,8.77h-8.551
	c-12.151,0-20.896-0.232-26.238-0.727l-24.062-2.916l-20.407-2.917h-4.374c-12.634,0-18.957,3.51-18.957,10.527
	c0,5.625,5.592,8.425,16.767,8.425h13.12h11.666c15.549,0,28.432,14.058,38.636,42.162l153.092,423.717
	c3.885,11.135,8.985,16.709,15.309,16.709c5.177,0,10.203-5.667,15.064-16.8c3.281,5.309,7.128,9.496,11.582,12.471
	c5.642,3.747,11.404,5.643,17.323,5.643c6.44,0,12.605-2.161,18.524-6.448c5.9-4.305,10.469-10.735,13.692-19.334
	c27.39-71.954,55.984-144.714,85.788-218.297c29.804-73.563,63.762-143.91,101.898-211.041c2.68-6.975,4.025-12.887,4.025-17.723
	c0-9.667-3.224-17.439-9.668-23.363C436.377,1247.172,429.128,1244.214,421.072,1244.214 M184.589,1710.061
	c-1.953,0-3.647-2.17-5.102-6.54L40.624,1315.993c24.204,63.802,48.324,127.438,72.339,190.817
	c24.882,65.731,50.145,131.71,75.693,197.864C187.141,1708.248,185.78,1710.061,184.589,1710.061 M323.602,1397.26
	c-14.016,32.712-27.842,65.615-41.576,98.601l60.753-174.347l8.746-24.059c4.374-12.632,8.99-21.145,13.851-25.515
	c4.665-4.204,12.736-6.365,24.141-6.531C364.871,1308.3,342.902,1352.24,323.602,1397.26"/>
<path d="M149.472,1751.311c-3.379-8.471-8.208-15.633-14.49-21.488s-14.087-10.398-23.416-13.634
	c-4.843-1.68-9.935-2.915-15.264-3.721c-10.161-5.817-21.062-10.72-32.71-14.699c-2.283-0.76-10.755-4.711-25.412-11.848
	c-12.944-6.377-20.559-9.568-22.844-9.568c-3.998,0-7.997,2.143-11.993,6.426c-3.998,4.282-5.997,8.376-5.997,12.279
	c0,8.696,0.132,20.765,0.392,36.168c-1.872,0.856-3.696,1.72-5.459,2.596c-7.379,3.663-12.734,6.832-16.063,9.495
	c-8.186,6.565-12.278,17.939-12.278,34.12c0,6.284,2.426,9.425,7.282,9.425c1.52,0,3.33-0.358,5.424-1.071s5.544-2.142,10.353-4.282
	c3.938-1.755,7.758-3.35,11.507-4.852c0.083,7.159,0.127,13.231,0.127,18.2c0,9.995-0.453,24.966-1.356,44.905
	c-0.002,0.057-0.005,0.106-0.007,0.166c-4.579,8.386-8.555,16.304-11.914,23.746c-2,4.476-3.428,8.425-4.284,11.851
	s-1.285,7.853-1.285,13.281c0,4.376,0.428,7.685,1.285,9.921c0.856,2.233,2.308,3.736,4.357,4.496
	c2.043,0.76,4.829,1.143,8.35,1.143c7.699,0,15.447-0.596,23.241-1.723c4.976,2.63,11.297,4.876,19.021,6.723
	c8.945,2.186,16.896,3.282,23.844,3.282c27.604,0,48.778-5.049,63.535-15.137c13.228-9.038,23.676-21.033,31.341-35.977
	c7.658-14.944,11.491-30.555,11.491-46.831c0-16.507-4.192-32.174-12.531-47.012
	C152.905,1761.859,151.499,1756.391,149.472,1751.311 M56.457,1869.455c-9.705,3.16-19.056,5.236-28.075,6.276
	c-0.11-0.07-0.23-0.134-0.34-0.207c-1.333-0.95-2.333-1.569-2.996-1.856l1.669-57.009c0.697-1.167,1.38-2.303,2.042-3.383
	c4.661-7.615,10.28-16.467,16.848-26.559c6.565-10.088,10.968-17.109,13.204-21.058c2.236-3.95,3.356-7.02,3.356-9.209
	c0-1.427-0.192-3.116-0.57-5.069c-0.38-1.95-0.57-3.023-0.57-3.213c6.755-0.57,13.991-0.856,21.701-0.856
	c4.584,0,8.896,0.222,12.936,0.663c23.805,16.122,37.429,34.92,40.852,56.402c-1.899,5.81-4.819,11.488-8.814,17.037
	c-7.615,10.564-17.773,20.036-30.481,28.407C84.511,1858.201,70.922,1864.743,56.457,1869.455 M35.65,1717.828
	c-3.199,0.836-6.32,1.71-9.345,2.629l-0.12-6.84C29.465,1715.065,32.596,1716.46,35.65,1717.828 M-1.583,1772.298
	c-6.904,1.143-10.781,1.716-11.638,1.716c-1.236,0-1.853-0.335-1.853-1c0-1.049,2.52-2.759,7.565-5.143
	c1.803-0.85,3.759-1.712,5.854-2.589c0.039,2.435,0.072,4.77,0.102,7.012C-1.562,1772.294-1.573,1772.298-1.583,1772.298
	 M26.909,1755.424c2.437-0.699,4.899-1.386,7.417-2.043c8.183-2.143,15.704-3.591,22.558-4.355
	c-10.92,14.804-20.778,28.786-29.603,41.969L26.909,1755.424z M107.14,1873.955c-7.009,4.719-16.993,7.758-29.921,9.135
	c9.312-4.779,18.08-10.215,26.282-16.347c12.224-9.139,22.489-19.417,30.847-30.788c-1.303,4.286-3.009,8.509-5.149,12.658
	C123.724,1859.228,116.372,1867.673,107.14,1873.955"/>
<path d="M455.785,2054.342l-118.633,418.823l-19.999-72.421c2.769-6.349,4.743-11.362,5.839-14.862
	c1.95-8.05,4.076-14.751,6.4-20.113c2.316-5.363,4.689-9.631,7.131-12.801c3.412-10.975,6.459-20.298,9.14-27.978
	c2.682-7.679,4.882-14.319,6.592-19.932c2.425-9.257,4.499-17.25,6.209-23.957c1.703-6.699,3.296-11.633,4.758-14.811
	c3.411-9.008,6.334-16.818,8.774-23.401c2.434-6.584,4.025-12.188,4.756-16.821c1.702-2.681,3.529-8.047,5.488-16.094
	c1.943-8.046,4.143-18.889,6.574-32.551c2.441-14.381,4.633-26.02,6.584-34.925c1.951-8.894,3.66-15.044,5.121-18.463l-4.748-17.924
	c0.724-1.943,1.701-4.442,2.922-7.496c1.213-3.039,2.682-6.27,4.392-9.688c0.972-2.434,1.761-7.736,2.375-15.909
	c0.606-8.165,0.913-19.688,0.913-34.56c0-5.605-0.489-9.688-1.461-12.249c-0.979-2.561-2.689-3.844-5.123-3.844
	c-3.164,0-7.363,2.685-12.596,8.044c-5.239,5.369-11.142,13.294-17.718,23.775c-1.221,6.098-2.558,11.336-4.019,15.728
	c-1.47,4.383-2.558,8.041-3.289,10.972l4.75,15.356c-3.895,15.121-7.241,28.16-10.039,39.13c-2.799,10.97-5.429,20.115-7.861,27.43
	c-4.136,12.431-8.03,24.441-11.684,36.022c-3.652,11.581-7.431,22.614-11.325,33.099c-0.489,7.554-1.461,13.772-2.923,18.652
	c-1.461,4.875-3.404,8.652-5.844,11.332c-3.895,12.678-8.337,26.209-13.328,40.595c-2.468,7.117-5.078,14.445-7.816,21.985
	L260.58,2195.86c0.505-4.731,0.84-8.962,0.993-12.585c5.591-25.595,9.727-46.863,12.414-63.811
	c2.682-16.943,4.026-29.191,4.026-36.754c0-6.091-1.228-11.026-3.661-14.811c-2.44-3.777-6.466-6.767-12.07-8.959l-32.514,11.697
	c-1.146,0.341-2.264,0.834-3.368,1.411l-4.888-17.708h-12.581l-87.35,323.059l-20.399,36.642c-1.213,0.489-2.681,1.22-4.383,2.192
	c-1.747-2.434-5.473-20.48-11.187-54.127c-5.706-33.645-8.688-55.09-8.922-64.362v-23.037c-1.227-5.122-2.082-9.389-2.563-12.802
	c-0.731-2.68-1.221-5.121-1.462-7.318c-0.248-2.187-0.365-4.136-0.365-5.846c0-2.436,0.117-7.008,0.365-13.715
	c0.241-6.699,0.49-15.416,0.73-26.149c0.49-8.532,0.731-16.147,0.731-22.854c0-6.705-0.241-12.74-0.731-18.105
	c-0.24-6.821-0.672-13.649-1.286-20.48c-0.606-6.824-1.403-13.282-2.367-19.379c0.731-4.141,1.578-7.922,2.558-11.337
	c2.192-14.383,3.778-28.401,4.75-42.056c1.467-12.925,3.053-26.458,4.756-40.595c0-1.218-0.855-3.717-2.558-7.496
	c-1.71-3.777-4.515-9.202-8.417-16.272c-3.17-5.121-5.794-9.446-7.861-12.986c-2.075-3.534-4.202-6.401-6.394-8.594
	c-2.439-2.435-5.553-4.445-9.329-6.029c-3.785-1.588-8.353-2.383-13.715-2.383c-6.584,0-12.07,2.195-16.462,6.582
	c-4.383,4.393-7.431,10.854-9.133,19.386c-6.584,33.155-11.522,64.726-14.811,94.719c-0.387,3.449-0.665,6.825-1.001,10.245
	l-16.278-56.9h-19.172l31.834,111.654c-0.212,7.176-0.321,14.283-0.321,21.305c0,10.484,0.424,19.33,1.279,26.512
	c0.854,7.193,2.016,12.498,3.484,15.909l9.894,7.315c2.447,1.708,4.266,5.303,5.494,10.79c1.221,5.487,1.957,12.379,2.198,20.656
	c0.49,10.243,0.921,18.237,1.286,23.956c0.365,5.737,0.789,9.331,1.279,10.793c2.198,4.143,3.85,7.804,4.953,10.967
	c1.097,3.179,1.769,6.102,2.01,8.775c0.241,3.419,0.489,6.897,0.737,10.427c0.242,3.543,0.491,7.014,0.73,10.425
	c1.469,10.969,2.813,20.474,4.034,28.525c1.227,8.044,2.198,14.626,2.929,19.749c2.208,8.292,4.224,15.358,6.05,21.21
	c1.835,5.853,3.604,10.485,5.313,13.897c-0.491,2.19-1.345,4.997-2.565,8.409c2.2,8.046,4.34,15.906,6.415,23.586
	c2.076,7.68,4.208,15.301,6.415,22.862c3.668,12.428,7.327,21.7,10.996,27.793c3.66,6.093,7.452,9.142,11.361,9.142
	c8.044,0,15.301-2.383,21.759-7.132c6.458-4.756,12.486-11.888,18.098-21.394c7.804-16.098,15.117-32.053,21.948-47.907
	c6.583-15.118,11.698-26.94,15.359-35.474c3.651-8.535,5.362-13.897,5.121-16.097c5.853-11.455,11.522-22.357,17.003-32.731
	c5.486-10.354,10.79-20.414,15.912-30.168c2.923,12.434,5.049,23.102,6.4,32c1.329,8.901,2.244,16.039,2.74,21.394
	c0.972,10.975,1.885,21.759,2.74,32.368c0.854,10.602,1.651,21.152,2.374,31.631c2.439,15.123,6.466,26.33,12.071,33.645
	c5.61,7.314,13.042,10.967,22.314,10.967c1.943,0,4.564-0.723,7.854-2.185c3.294-1.468,7.138-3.537,11.522-6.225
	c4.631,0.247,8.417-0.051,11.339-0.913c2.93-0.848,5.356-2.492,7.313-4.932l8.774-5.122c1.47-0.73,4.027-4.384,7.681-10.975
	c3.659-6.583,8.044-15.965,13.165-28.16c0.395-0.948,0.76-1.796,1.141-2.717l18.857,68.855h23.365l127.022-443.388H455.785z
	 M268.12,2395.754c-5.231,10.484-9.067,15.73-11.507,15.73c-1.462,0-2.616-4.209-3.471-12.619
	c-0.855-8.415-1.411-20.778-1.645-37.115v-17.559c0-8.283-0.248-18.651-0.738-31.08c-0.241-10.245-0.488-19.449-0.723-27.611
	c-0.249-8.168-0.373-15.417-0.373-21.767c0-1.212,0.556-4.384,1.651-9.505c0.702-3.281,1.594-7.387,2.646-12.158l30.906,112.876
	C278.372,2372.797,272.782,2386.424,268.12,2395.754"/>
<path d="M353.813,1761.419c-2.302-5.771-5.592-10.649-9.871-14.638c-4.279-3.989-9.596-7.084-15.95-9.287
	c-3.299-1.145-6.769-1.986-10.398-2.535c-6.921-3.963-14.348-7.302-22.282-10.013c-1.555-0.518-7.326-3.209-17.311-8.071
	c-8.817-4.344-14.005-6.518-15.562-6.518c-2.723,0-5.447,1.46-8.169,4.377c-2.724,2.917-4.085,5.706-4.085,8.365
	c0,5.924,0.089,14.145,0.267,24.638c-1.275,0.583-2.518,1.171-3.719,1.768c-5.027,2.495-8.675,4.654-10.942,6.469
	c-5.576,4.472-8.363,12.22-8.363,23.242c0,4.281,1.652,6.42,4.96,6.42c1.035,0,2.268-0.244,3.695-0.729
	c1.427-0.485,3.776-1.459,7.053-2.917c2.682-1.195,5.284-2.282,7.838-3.305c0.057,4.877,0.087,9.013,0.087,12.397
	c0,6.809-0.309,17.007-0.924,30.59c-0.002,0.039-0.004,0.072-0.005,0.113c-3.119,5.712-5.827,11.105-8.116,16.176
	c-1.361,3.049-2.335,5.739-2.918,8.072c-0.584,2.334-0.876,5.35-0.876,9.048c0,2.98,0.292,5.234,0.876,6.758
	c0.583,1.521,1.571,2.545,2.968,3.062c1.392,0.518,3.289,0.778,5.688,0.778c5.244,0,10.522-0.405,15.832-1.173
	c3.389,1.791,7.695,3.321,12.956,4.579c6.094,1.488,11.51,2.235,16.242,2.235c18.804,0,33.229-3.438,43.28-10.311
	c9.011-6.157,16.128-14.328,21.35-24.508c5.217-10.18,7.827-20.813,7.827-31.901c0-11.244-2.855-21.916-8.535-32.024
	C356.151,1768.604,355.193,1764.88,353.813,1761.419 M290.451,1841.899c-6.61,2.152-12.98,3.566-19.124,4.275
	c-0.075-0.048-0.157-0.092-0.231-0.142c-0.908-0.646-1.59-1.068-2.041-1.265l1.137-38.834c0.475-0.795,0.939-1.568,1.391-2.305
	c3.175-5.188,7.003-11.217,11.477-18.092c4.474-6.872,7.473-11.654,8.996-14.345c1.522-2.69,2.285-4.781,2.285-6.272
	c0-0.972-0.13-2.123-0.388-3.453c-0.259-1.329-0.388-2.06-0.388-2.188c4.601-0.389,9.53-0.584,14.782-0.584
	c3.122,0,6.06,0.151,8.812,0.452c16.216,10.982,25.496,23.787,27.827,38.421c-1.293,3.958-3.282,7.826-6.005,11.605
	c-5.188,7.197-12.106,13.648-20.763,19.352C309.562,1834.232,300.305,1838.689,290.451,1841.899 M276.278,1738.61
	c-2.18,0.569-4.306,1.165-6.366,1.791l-0.081-4.659C272.064,1736.729,274.198,1737.679,276.278,1738.61 M250.915,1775.716
	c-4.703,0.778-7.345,1.169-7.928,1.169c-0.842,0-1.262-0.229-1.262-0.682c0-0.715,1.716-1.879,5.153-3.503
	c1.228-0.579,2.561-1.166,3.987-1.764c0.026,1.658,0.049,3.249,0.069,4.776C250.929,1775.713,250.921,1775.716,250.915,1775.716
	 M270.323,1764.221c1.659-0.477,3.337-0.943,5.052-1.392c5.575-1.46,10.698-2.446,15.367-2.967
	c-7.438,10.084-14.154,19.609-20.166,28.589L270.323,1764.221z M324.977,1844.965c-4.773,3.214-11.575,5.284-20.381,6.223
	c6.342-3.256,12.315-6.959,17.902-11.136c8.327-6.226,15.319-13.227,21.013-20.973c-0.888,2.919-2.05,5.796-3.507,8.622
	C336.273,1834.932,331.266,1840.685,324.977,1844.965"/>
<path d="M311.81,1851.279c-3.713-9.654-9.02-17.816-15.923-24.489c-6.903-6.674-15.479-11.851-25.729-15.538
	c-5.323-1.914-10.918-3.322-16.773-4.24c-11.166-6.63-23.145-12.217-35.944-16.752c-2.509-0.866-11.818-5.369-27.924-13.503
	c-14.224-7.268-22.592-10.904-25.103-10.904c-4.393,0-8.787,2.441-13.178,7.323c-4.393,4.88-6.59,9.546-6.59,13.994
	c0,9.911,0.145,23.664,0.43,41.219c-2.057,0.977-4.062,1.96-5.999,2.958c-8.108,4.175-13.993,7.786-17.651,10.821
	c-8.995,7.482-13.492,20.445-13.492,38.886c0,7.161,2.666,10.741,8.001,10.741c1.67,0,3.659-0.409,5.96-1.222
	c2.302-0.812,6.092-2.44,11.377-4.88c4.327-2,8.525-3.817,12.645-5.529c0.092,8.159,0.14,15.079,0.14,20.742
	c0,11.391-0.498,28.452-1.491,51.177c-0.002,0.064-0.006,0.121-0.007,0.188c-5.032,9.558-9.4,18.581-13.092,27.062
	c-2.197,5.102-3.767,9.602-4.708,13.506c-0.941,3.904-1.412,8.949-1.412,15.137c0,4.986,0.471,8.757,1.412,11.306
	c0.941,2.546,2.536,4.259,4.788,5.124c2.245,0.866,5.306,1.303,9.175,1.303c8.46,0,16.974-0.68,25.539-1.964
	c5.467,2.997,12.415,5.558,20.901,7.661c9.83,2.491,18.565,3.741,26.201,3.741c30.333,0,53.6-5.754,69.815-17.251
	c14.535-10.3,26.017-23.971,34.439-41.001c8.415-17.031,12.626-34.821,12.626-53.371c0-18.812-4.605-36.667-13.769-53.577
	C315.581,1863.301,314.036,1857.068,311.81,1851.279 M209.6,1985.923c-10.664,3.602-20.941,5.968-30.852,7.153
	c-0.12-0.08-0.252-0.152-0.373-0.236c-1.465-1.083-2.563-1.788-3.292-2.115l1.835-64.971c0.766-1.33,1.516-2.625,2.242-3.855
	c5.122-8.679,11.297-18.767,18.514-30.268c7.215-11.497,12.053-19.499,14.51-23.998c2.457-4.502,3.689-8,3.689-10.495
	c0-1.626-0.212-3.552-0.627-5.777c-0.418-2.223-0.627-3.446-0.627-3.662c7.424-0.649,15.375-0.976,23.847-0.976
	c5.037,0,9.776,0.252,14.215,0.756c26.158,18.373,41.13,39.796,44.89,64.279c-2.086,6.621-5.295,13.092-9.686,19.416
	c-8.368,12.04-19.529,22.834-33.494,32.375C240.428,1973.098,225.494,1980.553,209.6,1985.923 M186.736,1813.12
	c-3.516,0.953-6.945,1.949-10.27,2.996l-0.131-7.795C179.939,1809.972,183.38,1811.562,186.736,1813.12 M145.822,1875.197
	c-7.586,1.302-11.847,1.955-12.788,1.955c-1.359,0-2.036-0.382-2.036-1.14c0-1.195,2.769-3.144,8.313-5.86
	c1.981-0.969,4.131-1.951,6.432-2.95c0.042,2.774,0.079,5.436,0.112,7.99C145.844,1875.192,145.833,1875.197,145.822,1875.197
	 M177.13,1855.967c2.678-0.797,5.384-1.579,8.15-2.328c8.992-2.442,17.256-4.093,24.787-4.964
	c-11.999,16.871-22.831,32.806-32.529,47.83L177.13,1855.967z M265.294,1991.052c-7.703,5.378-18.675,8.841-32.88,10.41
	c10.232-5.446,19.867-11.642,28.88-18.63c13.432-10.414,24.713-22.129,33.896-35.088c-1.432,4.885-3.307,9.697-5.657,14.426
	C283.516,1974.268,275.437,1983.892,265.294,1991.052"/>
</svg>
