<?xml version="1.0" encoding="utf-8"?>
<!-- Generator: Adobe Illustrator 16.0.0, SVG Export Plug-In . SVG Version: 6.00 Build 0)  -->
<!DOCTYPE svg PUBLIC "-//W3C//DTD SVG 1.1//EN" "http://www.w3.org/Graphics/SVG/1.1/DTD/svg11.dtd">
<svg version="1.1" id="Layer_1" xmlns="http://www.w3.org/2000/svg" xmlns:xlink="http://www.w3.org/1999/xlink" x="0px" y="0px"
	 width="408.36px" height="144px" viewBox="0 0 408.36 144" enable-background="new 0 0 408.36 144" xml:space="preserve">
<path d="M114.026,21.215c-0.926,0-1.802,0.186-2.638,0.519h-1.544c-0.916,0.147-1.542,0.22-1.885,0.22l-6.169,1.103
	c-0.8,0.147-2.343,0.219-4.627,0.219c-2.629,0-8.054-0.171-16.279-0.513l-4.97-1.029h-0.685c-2.287,0-3.428,0.801-3.428,2.399
	c0,1.371,1.256,2.056,3.771,2.056h4.797h4.799c5.025,0,7.54,1.597,7.54,4.783c0,1.141-0.23,2.394-0.686,3.76l-24.953,72.508
	c-2.23-6.041-4.38-11.785-6.44-17.197c-2.527-6.627-5.051-13.317-7.575-20.07c-2.526-6.751-5.112-13.729-7.763-20.924
	c-2.586-7.018-5.475-14.64-8.66-22.86h1.155h1.285c2.512,0,3.77-0.797,3.77-2.398c0-1.372-1.314-2.057-3.941-2.057h-0.343
	c-2.005,0-3.947,0.143-5.83,0.417c-1.148-0.614-2.385-0.936-3.72-0.936c-1.839,0-3.47,0.693-4.891,2.061h-2.01
	c-2.857,0-4.913-0.055-6.169-0.171l-5.655-0.686l-4.798-0.685H4.456C1.487,21.734,0,22.56,0,24.208c0,1.323,1.315,1.981,3.942,1.981
	h3.084h2.742c3.655,0,6.683,3.304,9.082,9.911l35.987,99.602c0.913,2.618,2.112,3.929,3.598,3.929c1.218,0,2.399-1.332,3.542-3.95
	c0.771,1.249,1.676,2.233,2.722,2.932c1.326,0.882,2.681,1.326,4.072,1.326c1.514,0,2.964-0.507,4.355-1.516
	c1.387-1.012,2.461-2.522,3.219-4.545c6.438-16.913,13.16-34.018,20.166-51.313c7.006-17.293,14.988-33.83,23.953-49.609
	c0.63-1.64,0.946-3.03,0.946-4.167c0-2.272-0.757-4.099-2.272-5.491C117.623,21.911,115.919,21.215,114.026,21.215 M58.435,130.721
	c-0.458,0-0.856-0.511-1.199-1.537L24.594,38.088c5.689,14.998,11.36,29.956,17.005,44.855c5.849,15.45,11.787,30.96,17.793,46.512
	C59.035,130.295,58.716,130.721,58.435,130.721 M91.114,57.191c-3.295,7.689-6.545,15.423-9.774,23.177l14.281-40.983l2.056-5.655
	c1.029-2.97,2.113-4.971,3.256-5.998c1.096-0.988,2.994-1.496,5.675-1.535C100.814,36.28,95.65,46.608,91.114,57.191"/>
<path d="M403.395,19.79l-31.713,111.958l-5.347-19.36c0.74-1.697,1.268-3.036,1.562-3.973c0.521-2.151,1.09-3.942,1.711-5.376
	c0.618-1.434,1.254-2.574,1.906-3.423c0.912-2.933,1.726-5.425,2.442-7.479c0.717-2.053,1.305-3.827,1.762-5.327
	c0.649-2.476,1.203-4.611,1.66-6.404c0.455-1.791,0.881-3.11,1.271-3.959c0.912-2.409,1.694-4.497,2.346-6.257
	c0.651-1.759,1.076-3.258,1.272-4.496c0.455-0.717,0.942-2.151,1.466-4.302c0.52-2.151,1.107-5.05,1.759-8.701
	c0.651-3.844,1.237-6.956,1.76-9.336c0.521-2.378,0.979-4.022,1.369-4.936l-1.271-4.791c0.194-0.52,0.455-1.188,0.781-2.004
	c0.325-0.813,0.718-1.676,1.174-2.59c0.26-0.65,0.472-2.068,0.635-4.253c0.162-2.183,0.245-5.262,0.245-9.238
	c0-1.498-0.131-2.59-0.392-3.275c-0.262-0.684-0.719-1.027-1.368-1.027c-0.847,0-1.97,0.718-3.368,2.151
	c-1.399,1.435-2.979,3.553-4.736,6.355c-0.326,1.63-0.684,3.03-1.074,4.204c-0.392,1.172-0.683,2.15-0.879,2.932l1.27,4.106
	c-1.041,4.042-1.936,7.528-2.684,10.46c-0.748,2.933-1.45,5.377-2.101,7.332c-1.105,3.324-2.147,6.534-3.123,9.63
	c-0.978,3.096-1.986,6.045-3.028,8.847c-0.13,2.02-0.39,3.682-0.78,4.986c-0.392,1.304-0.911,2.312-1.562,3.029
	c-1.042,3.39-2.229,7.007-3.563,10.852c-0.66,1.902-1.356,3.862-2.089,5.877l-9.494-34.383c0.134-1.264,0.225-2.396,0.266-3.364
	c1.494-6.842,2.6-12.528,3.317-17.058c0.717-4.529,1.076-7.804,1.076-9.825c0-1.628-0.327-2.948-0.979-3.959
	c-0.652-1.01-1.728-1.809-3.226-2.395l-8.691,3.128c-0.307,0.09-0.606,0.222-0.901,0.376l-1.307-4.733h-3.363l-23.35,86.358
	l-5.452,9.795c-0.325,0.132-0.717,0.327-1.172,0.586c-0.468-0.65-1.464-5.474-2.99-14.468s-2.322-14.728-2.386-17.206v-6.158
	c-0.327-1.369-0.556-2.509-0.686-3.422c-0.194-0.717-0.326-1.369-0.39-1.956c-0.066-0.585-0.098-1.106-0.098-1.563
	c0-0.65,0.031-1.872,0.098-3.666c0.063-1.791,0.13-4.121,0.195-6.989c0.13-2.281,0.194-4.317,0.194-6.11
	c0-1.792-0.064-3.405-0.194-4.839c-0.065-1.824-0.181-3.649-0.344-5.475c-0.162-1.824-0.375-3.551-0.634-5.181
	c0.195-1.107,0.423-2.117,0.685-3.03c0.586-3.845,1.01-7.592,1.27-11.242c0.392-3.455,0.815-7.072,1.271-10.852
	c0-0.325-0.229-0.993-0.684-2.004c-0.457-1.01-1.206-2.46-2.249-4.35c-0.848-1.369-1.549-2.525-2.102-3.471
	c-0.555-0.944-1.123-1.711-1.71-2.297c-0.652-0.651-1.484-1.189-2.493-1.613C293.173,0.213,291.953,0,290.52,0
	c-1.76,0-3.227,0.587-4.4,1.759c-1.172,1.174-1.987,2.902-2.442,5.183c-1.76,8.863-3.079,17.302-3.959,25.319
	c-0.103,0.922-0.178,1.825-0.267,2.739L275.1,19.79h-5.125l8.51,29.846c-0.057,1.919-0.087,3.819-0.087,5.696
	c0,2.803,0.113,5.167,0.342,7.087c0.229,1.923,0.539,3.341,0.932,4.253l2.646,1.955c0.653,0.457,1.141,1.418,1.468,2.884
	c0.327,1.467,0.523,3.309,0.588,5.522c0.132,2.738,0.247,4.874,0.345,6.404c0.098,1.532,0.211,2.493,0.342,2.884
	c0.588,1.108,1.029,2.087,1.323,2.933c0.293,0.849,0.473,1.631,0.538,2.346c0.064,0.914,0.131,1.843,0.196,2.787
	c0.065,0.946,0.131,1.874,0.196,2.786c0.392,2.933,0.751,5.474,1.078,7.625c0.327,2.15,0.588,3.911,0.782,5.279
	c0.59,2.217,1.129,4.105,1.618,5.67s0.962,2.804,1.42,3.715c-0.131,0.586-0.359,1.337-0.686,2.249
	c0.587,2.15,1.159,4.252,1.715,6.305c0.554,2.053,1.125,4.09,1.715,6.111c0.979,3.322,1.958,5.8,2.938,7.429
	c0.979,1.629,1.993,2.444,3.038,2.444c2.15,0,4.089-0.637,5.816-1.907c1.726-1.271,3.338-3.177,4.838-5.718
	c2.086-4.303,4.04-8.569,5.866-12.808c1.76-4.04,3.128-7.2,4.106-9.482c0.977-2.28,1.433-3.714,1.369-4.302
	c1.563-3.062,3.079-5.978,4.545-8.75c1.467-2.769,2.884-5.457,4.253-8.064c0.781,3.324,1.351,6.176,1.711,8.554
	c0.356,2.38,0.601,4.287,0.732,5.72c0.261,2.933,0.504,5.816,0.733,8.651c0.228,2.835,0.44,5.655,0.635,8.456
	c0.651,4.042,1.728,7.039,3.227,8.994s3.485,2.932,5.964,2.932c0.521,0,1.222-0.194,2.101-0.585c0.881-0.392,1.907-0.944,3.08-1.663
	c1.238,0.066,2.249-0.015,3.031-0.244c0.782-0.228,1.432-0.667,1.954-1.319l2.347-1.369c0.392-0.195,1.075-1.172,2.052-2.933
	c0.979-1.76,2.151-4.268,3.521-7.527c0.105-0.254,0.202-0.481,0.305-0.728l5.04,18.406h6.246L408.36,19.79H403.395z
	 M353.228,111.055c-1.398,2.803-2.424,4.204-3.075,4.204c-0.391,0-0.7-1.125-0.928-3.373c-0.229-2.249-0.377-5.555-0.44-9.922
	v-4.693c0-2.215-0.065-4.986-0.196-8.309c-0.065-2.738-0.131-5.198-0.194-7.381c-0.066-2.184-0.099-4.121-0.099-5.817
	c0-0.325,0.147-1.173,0.44-2.542c0.188-0.876,0.427-1.974,0.708-3.25l8.262,30.174C355.969,104.918,354.475,108.56,353.228,111.055"
	/>
<path d="M239.678,46.286c-1.98-4.964-4.811-9.162-8.493-12.593c-3.681-3.431-8.256-6.094-13.722-7.99
	c-2.838-0.984-5.822-1.708-8.945-2.181c-5.956-3.409-12.344-6.282-19.17-8.614c-1.338-0.445-6.304-2.761-14.894-6.944
	c-7.586-3.737-12.048-5.607-13.387-5.607c-2.343,0-4.686,1.256-7.029,3.766c-2.342,2.51-3.514,4.909-3.514,7.196
	c0,5.097,0.077,12.169,0.23,21.197c-1.097,0.501-2.167,1.007-3.2,1.521c-4.324,2.147-7.462,4.003-9.414,5.564
	c-4.796,3.848-7.195,10.514-7.195,19.997c0,3.682,1.422,5.523,4.267,5.523c0.891,0,1.952-0.21,3.179-0.628s3.249-1.255,6.067-2.51
	c2.308-1.029,4.547-1.963,6.744-2.842c0.05,4.195,0.075,7.753,0.075,10.665c0,5.858-0.265,14.631-0.795,26.316
	c-0.001,0.033-0.003,0.063-0.004,0.098c-2.683,4.914-5.014,9.556-6.982,13.917c-1.172,2.623-2.009,4.938-2.511,6.945
	s-0.753,4.601-0.753,7.782c0,2.565,0.251,4.505,0.753,5.814s1.352,2.189,2.553,2.635c1.198,0.446,2.83,0.67,4.894,0.67
	c4.512,0,9.053-0.349,13.621-1.01c2.915,1.542,6.621,2.857,11.147,3.939c5.242,1.282,9.901,1.924,13.973,1.924
	c16.177,0,28.587-2.958,37.235-8.87c7.752-5.298,13.875-12.327,18.366-21.085c4.489-8.757,6.735-17.906,6.735-27.445
	c0-9.673-2.458-18.854-7.345-27.55C241.689,52.468,240.866,49.264,239.678,46.286 M185.166,115.525
	c-5.687,1.853-11.168,3.068-16.452,3.679c-0.065-0.042-0.135-0.078-0.199-0.121c-0.782-0.558-1.368-0.92-1.757-1.088l0.979-33.41
	c0.408-0.685,0.809-1.351,1.196-1.983c2.732-4.463,6.025-9.65,9.874-15.564c3.848-5.912,6.428-10.027,7.739-12.341
	c1.31-2.315,1.967-4.114,1.967-5.398c0-0.836-0.113-1.826-0.335-2.97c-0.223-1.143-0.334-1.771-0.334-1.883
	c3.96-0.334,8.2-0.502,12.718-0.502c2.687,0,5.213,0.13,7.581,0.389c13.951,9.448,21.937,20.465,23.942,33.054
	c-1.113,3.404-2.824,6.733-5.166,9.984c-4.463,6.191-10.417,11.743-17.864,16.649C201.607,108.93,193.644,112.764,185.166,115.525
	 M172.973,26.665c-1.875,0.49-3.705,1.001-5.477,1.54l-0.07-4.008C169.347,25.045,171.183,25.862,172.973,26.665 M151.152,58.586
	c-4.046,0.669-6.318,1.005-6.82,1.005c-0.725,0-1.087-0.196-1.087-0.586c0-0.614,1.477-1.617,4.434-3.013
	c1.057-0.498,2.203-1.004,3.431-1.517c0.022,1.426,0.042,2.794,0.059,4.108C151.164,58.584,151.158,58.585,151.152,58.586
	 M167.85,48.697c1.428-0.41,2.871-0.812,4.347-1.197c4.796-1.256,9.203-2.105,13.22-2.553c-6.4,8.676-12.177,16.87-17.349,24.596
	L167.85,48.697z M214.87,118.163c-4.108,2.765-9.959,4.546-17.535,5.353c5.456-2.801,10.596-5.985,15.401-9.579
	c7.164-5.356,13.18-11.379,18.079-18.044c-0.764,2.513-1.765,4.986-3.019,7.418C224.588,109.532,220.28,114.48,214.87,118.163"/>
</svg>
