<?xml version="1.0" encoding="UTF-8"?>
<svg width="28px" height="28px" viewBox="0 0 28 28" version="1.1" xmlns="http://www.w3.org/2000/svg" xmlns:xlink="http://www.w3.org/1999/xlink">
    <!-- Generator: Sketch 49.3 (51167) - http://www.bohemiancoding.com/sketch -->
    <title>marker-mobi</title>
    <desc>Created with Sketch.</desc>
    <defs>
        <linearGradient x1="0%" y1="50%" x2="100%" y2="50%" id="linearGradient-1">
            <stop stop-color="#007FB3" offset="0%"></stop>
            <stop stop-color="#00ABDF" offset="100%"></stop>
        </linearGradient>
        <linearGradient x1="0%" y1="50%" x2="100%" y2="50%" id="linearGradient-2">
            <stop stop-color="#00ABDF" offset="0%"></stop>
            <stop stop-color="#00ABDF" offset="100%"></stop>
        </linearGradient>
    </defs>
    <g id="marker-mobi" stroke="none" stroke-width="1" fill="none" fill-rule="evenodd">
        <circle id="Oval" fill="url(#linearGradient-1)" cx="14" cy="14" r="14"></circle>
        <circle id="Oval-Copy" fill="url(#linearGradient-2)" cx="14" cy="14" r="14"></circle>
        <path d="M21.1719024,18.1044444 C20.7104878,18.5733333 20.0787317,18.8648889 19.3762927,18.8648889 C18.6747317,18.8648889 18.0460488,18.5737778 17.5846341,18.1044444 C17.1223415,17.6315556 16.8400488,16.988 16.8400488,16.2688889 C16.8400488,15.5506667 17.1219024,14.9031111 17.5846341,14.4315556 C17.7584878,14.252 17.9621951,14.0977778 18.1825854,13.9764444 L18.9636098,15.9742222 C18.9047805,16.0555556 18.8722927,16.1591111 18.8722927,16.2688889 C18.8722927,16.5551111 19.0979512,16.7844444 19.3758537,16.7844444 C19.6572683,16.7844444 19.8829268,16.5546667 19.8829268,16.2688889 C19.8829268,16.0208889 19.7117073,15.8146667 19.4873659,15.7635556 L18.7072195,13.7635556 C18.9201463,13.7017778 19.1453659,13.6706667 19.3762927,13.6706667 C20.0787317,13.6706667 20.7109268,13.9608889 21.1719024,14.4311111 C21.6302439,14.9026667 21.9138537,15.5502222 21.9138537,16.2684444 C21.9138537,16.9875556 21.6302439,17.6315556 21.1719024,18.1044444 M11.8198049,14.9217778 C11.6560488,14.4791111 11.4137073,14.076 11.1103415,13.7302222 L11.4317073,13.4222222 L11.9897073,14.9542222 C11.9330732,14.9413333 11.8746829,14.9315556 11.8198049,14.9217778 M10.3249268,18.1044444 C9.86439024,18.5733333 9.23526829,18.8648889 8.53282927,18.8648889 C7.83126829,18.8648889 7.1995122,18.5737778 6.73765854,18.1044444 C6.27887805,17.6315556 5.99570732,16.988 5.99570732,16.2688889 C5.99570732,15.5991111 6.24243902,14.9933333 6.64765854,14.5315556 C7.42165854,15.2506667 8.53985366,16.2822222 8.53985366,16.2822222 L11.047561,16.6026667 C10.9746829,17.1857778 10.7134634,17.7062222 10.3249268,18.1044444 M19.3762927,12.6524444 C19.0158537,12.6524444 18.6650732,12.7084444 18.3362439,12.8142222 L18.0908293,12.1826667 C18.518878,12.0515556 18.9776585,11.8764444 19.4619024,11.5537778 C20.7425366,10.8515556 20.8255122,8 20.8255122,8 C20.8255122,8 18.3419512,9.00266667 17.9845854,9.14088889 L17.9639512,9.08444444 C17.8686829,8.76133333 17.5784878,8.55333333 17.2623902,8.55333333 C17.1943415,8.55333333 17.1219024,8.564 17.0551707,8.584 L16.159561,8.85555556 C16.0111707,8.89955556 15.926878,9.06177778 15.9685854,9.21333333 C16.0138049,9.36755556 16.1718537,9.45466667 16.3198049,9.408 L17.2154146,9.13866667 C17.2329756,9.13333333 17.2465854,9.13155556 17.2623902,9.13155556 C17.3357073,9.13155556 17.4055122,9.17955556 17.4283415,9.256 L17.4283415,9.26177778 L17.4955122,9.464 L15.2358537,14.252 C15.0339024,14.6568889 14.8481951,14.9111111 14.6620488,15.0648889 C14.4561463,15.2346667 14.2489268,15.2884444 13.9837561,15.2911111 C13.8797073,15.2911111 13.7703902,15.2804444 13.6500976,15.268 C13.4837073,15.2462222 13.0749756,15.168 12.6363902,15.0831111 L11.3122927,11.4404444 L12.3764878,11.2893333 C12.3764878,11.2893333 12.4001951,11.2235556 12.3637561,11.0022222 C12.326439,10.7786667 12.1200976,10.7271111 11.9418537,10.7533333 C11.7636098,10.7786667 10.5110732,10.9471111 10.3196585,10.9737778 C10.1286829,11.0022222 9.98819512,11.1462222 10.0132195,11.2773333 C10.0382439,11.4057778 10.076439,11.616 10.076439,11.616 L10.7406829,11.5204444 L11.2218537,12.8471111 L10.7077561,13.34 C10.0742439,12.8084444 9.2642439,12.4911111 8.37873171,12.4911111 C7.3435122,12.4911111 6.40795122,12.9297778 5.74195122,13.6328889 C5.73668293,13.6413333 5.80473171,13.7124444 5.92546341,13.8306667 C5.35121951,14.4724444 5,15.3266667 5,16.2688889 C5.00307317,18.2631111 6.58180488,19.8826667 8.53282927,19.8826667 C10.327122,19.8826667 11.8097073,18.5097778 12.0331707,16.7311111 C12.2636585,16.7644444 12.4721951,16.7924444 12.667122,16.8102222 L12.7250732,16.9742222 C12.7680976,17.0897778 12.8747805,17.1622222 12.9880488,17.1622222 C13.0227317,17.1622222 13.0552195,17.1573333 13.0877073,17.144 C13.208439,17.0982222 13.2786829,16.9742222 13.2694634,16.8493333 L13.2914146,16.8493333 L13.3221463,16.8493333 C13.9622439,16.8493333 14.4447317,16.6688889 14.8780488,16.2506667 C15.1994146,15.9462222 15.4470244,15.4982222 15.6524878,15.0711111 C15.7205366,14.9244444 15.7855122,14.7773333 15.8434634,14.6391111 C16.0234634,14.2671111 16.4580976,13.3733333 16.5682927,13.1582222 C16.7939512,12.7084444 17.1381463,12.508 17.5512683,12.3568889 L17.8124878,13.0262222 C16.6486341,13.6177778 15.8460976,14.8462222 15.8460976,16.2684444 C15.8460976,18.2626667 17.4257073,19.8822222 19.3762927,19.8822222 C21.3273171,19.8822222 22.909122,18.2622222 22.909122,16.2684444 C22.909122,14.272 21.3273171,12.6524444 19.3762927,12.6524444" id="Shape" fill="#FFFFFF" fill-rule="nonzero"></path>
    </g>
</svg>