<?xml version="1.0" encoding="UTF-8" standalone="no"?>
<svg width="173px" height="140px" viewBox="0 0 173 140" version="1.1" xmlns="http://www.w3.org/2000/svg" xmlns:xlink="http://www.w3.org/1999/xlink" xmlns:sketch="http://www.bohemiancoding.com/sketch/ns">
    <!-- Generator: Sketch 3.0.4 (8053) - http://www.bohemiancoding.com/sketch -->
    <title>path5</title>
    <desc>Created with Sketch.</desc>
    <defs></defs>
    <g id="Page-1" stroke="none" stroke-width="1" fill="none" fill-rule="evenodd" sketch:type="MSPage">
        <path d="M171.5054,16.49885 C165.1957,19.29782 158.41351,21.18867 151.29688,22.03934 C158.56101,17.6848 164.14094,10.78942 166.76755,2.57259 C159.96821,6.60554 152.43825,9.53314 144.42294,11.111 C138.00519,4.27221 128.86051,-5.68434189e-14 118.73996,-5.68434189e-14 C99.30837,-5.68434189e-14 83.553,15.75365 83.553,35.18525 C83.553,37.94306 83.86428,40.62884 84.46455,43.204 C55.22111,41.73677 29.2946,27.72818 11.93994,6.44004 C8.91115,11.63666 7.17551,17.68052 7.17551,24.12914 C7.17551,36.33691 13.38745,47.10661 22.82883,53.4163 C17.0611,53.23365 11.63552,51.65065 6.89167,49.01547 C6.88767,49.1621 6.88767,49.30959 6.88767,49.45795 C6.88767,66.50562 19.01656,80.72601 35.11322,83.96061 C32.16075,84.76497 29.05221,85.19459 25.84333,85.19459 C23.57603,85.19459 21.37219,84.97335 19.22322,84.56345 C23.70123,98.54202 36.69536,108.71488 52.09314,108.99786 C40.05087,118.43582 24.87948,124.06121 8.39349,124.06121 C5.55335,124.06121 2.75267,123.89399 -5.68434189e-14,123.56898 C15.57186,133.55319 34.06703,139.37838 53.93768,139.37838 C118.65792,139.37838 154.05069,85.76314 154.05069,39.26451 C154.05069,37.73897 154.01639,36.222 153.94865,34.7119 C160.82259,29.75195 166.78756,23.55544 171.50483,16.49885 L171.5054,16.49885 Z" id="path5" fill="#FFFFFF" sketch:type="MSShapeGroup"></path>
    </g>
</svg>