<?xml version="1.0" encoding="utf-8"?>
<!-- Generator: Adobe Illustrator 21.0.2, SVG Export Plug-In . SVG Version: 6.00 Build 0)  -->
<svg version="1.1" id="Layer_1" xmlns="http://www.w3.org/2000/svg" xmlns:xlink="http://www.w3.org/1999/xlink" x="0px" y="0px"
	 viewBox="0 0 668 220" style="enable-background:new 0 0 668 220;" xml:space="preserve">
<style type="text/css">
	.st0{fill:#FFFFFF;}
</style>
<title>VDW-nd-white</title>
<path class="st0" d="M583.5,209.9l10-34.1l4.6,1.7l-10,34.1L583.5,209.9z"/>
<path class="st0" d="M145,89.9c-4.7,11-9.4,22.1-14,33.2l20.5-58.7l2.9-8.1c1.5-4.3,3-7.1,4.7-8.6c1.6-1.4,4.3-2.1,8.1-2.2
	C159,59.9,151.5,74.7,145,89.9 M98.1,195.3c-0.7,0-1.2-0.7-1.7-2.2L49.6,62.6c8.2,21.5,16.3,42.9,24.4,64.3
	c8.4,22.1,16.9,44.4,25.5,66.7C99,194.7,98.5,195.3,98.1,195.3 M177.8,38.3c-1.3,0-2.6,0.3-3.8,0.7h-2.2c-0.9,0.2-1.8,0.3-2.7,0.3
	l-8.8,1.6c-2.2,0.3-4.4,0.4-6.6,0.3c-3.8,0-11.6-0.2-23.3-0.7l-7.1-1.5h-1c-3.3,0-4.9,1.1-4.9,3.4c0,2,1.8,2.9,5.4,2.9h13.8
	c7.2,0,10.8,2.3,10.8,6.9c0,1.8-0.4,3.7-1,5.4l-35.7,103.9c-3.2-8.7-6.3-16.9-9.2-24.6c-3.6-9.5-7.2-19.1-10.9-28.8
	s-7.3-19.7-11.1-30c-3.7-10.1-7.8-21-12.4-32.8h3.5c3.6,0,5.4-1.1,5.4-3.4c0-2-1.9-2.9-5.7-2.9h-0.5c-2.8,0-5.6,0.2-8.4,0.6
	c-1.6-0.9-3.5-1.3-5.3-1.3c-2.6,0-5.2,1.1-7,3h-2.9c-4.1,0-7-0.1-8.8-0.2l-8.1-1l-6.9-1h-1.5c-4.3,0-6.4,1.2-6.4,3.6
	c0,1.9,1.9,2.8,5.7,2.8h8.3c5.2,0,9.6,4.7,13,14.2L93,202.5c1.3,3.8,3.1,5.6,5.2,5.6c1.8,0,3.4-1.9,5.1-5.7c1,1.7,2.3,3.1,3.9,4.2
	c3.6,2.6,8.6,2.5,12.1-0.3c2.1-1.7,3.8-3.9,4.6-6.5c9.2-24.2,18.9-48.8,28.9-73.5c9.8-24.4,21.3-48.2,34.3-71.1
	c0.8-1.9,1.3-3.9,1.4-6c0.1-3-1.1-5.8-3.3-7.9C183.1,39.4,180.5,38.4,177.8,38.3"/>
<path class="st0" d="M520.7,167.1c-2,4-3.5,6-4.4,6c-0.6,0-1-1.6-1.3-4.8c-0.3-3.2-0.5-8-0.6-14.2v-6.7c0-3.2-0.1-7.1-0.3-11.9
	c-0.1-3.9-0.2-7.5-0.3-10.6s-0.1-5.9-0.1-8.3c0.1-1.2,0.3-2.4,0.6-3.6c0.3-1.3,0.6-2.8,1-4.7l11.8,43.2
	C525.2,156.8,523,162,520.7,167.1 M592.5,36.3l-45.4,160.5l-7.7-27.8c1.1-2.4,1.8-4.4,2.2-5.7c0.6-2.6,1.4-5.2,2.5-7.7
	c0.7-1.7,1.6-3.4,2.7-4.9c1.3-4.2,2.5-7.8,3.5-10.7c1-2.9,1.8-5.5,2.5-7.6c0.9-3.6,1.7-6.6,2.4-9.2c0.4-1.9,1.1-3.8,1.8-5.7
	c1.3-3.5,2.5-6.5,3.4-9c0.8-2.1,1.4-4.2,1.8-6.4c1-2,1.7-4,2.1-6.2c0.7-3.1,1.6-7.2,2.5-12.5c0.9-5.5,1.8-10,2.5-13.4
	c0.5-2.4,1.1-4.8,2-7.1l-1.8-6.9c0.3-0.8,0.7-1.7,1.1-2.9s1-2.4,1.7-3.7c0.5-2,0.9-4,0.9-6.1c0.2-3.1,0.3-7.5,0.3-13.2
	c0.1-1.6-0.1-3.2-0.6-4.7c-0.2-0.9-1.1-1.5-2-1.5c-1.2,0-2.8,1-4.8,3.1c-2.6,2.8-4.8,5.9-6.8,9.1c-0.4,2-0.9,4-1.5,6
	c-0.6,1.7-1,3.1-1.3,4.2l1.8,5.9c-1.5,5.8-2.8,10.8-3.8,15s-2.1,7.7-3,10.5c-1.6,4.8-3.1,9.4-4.5,13.8c-1.4,4.4-2.8,8.7-4.3,12.7
	c-0.1,2.4-0.5,4.8-1.1,7.1c-0.4,1.6-1.2,3.1-2.2,4.3c-1.5,4.9-3.2,10-5.1,15.6c-0.9,2.7-1.9,5.5-3,8.4l-13.6-49.3
	c0.2-1.8,0.3-3.4,0.4-4.8c2.1-9.8,3.7-18,4.8-24.4c0.8-4.7,1.4-9.4,1.5-14.1c0.1-2-0.4-4-1.4-5.7c-1.1-1.6-2.8-2.8-4.6-3.4L506,42.6
	c-0.4,0.1-0.9,0.3-1.3,0.5l-1.9-6.8H498l-33.5,123.8l-7.8,14c-0.6,0.3-1.1,0.6-1.7,0.9c-0.7-0.9-2.1-7.8-4.3-20.7
	c-2.2-12.9-3.3-21.1-3.4-24.7v-8.8c-0.5-2-0.8-3.6-1-4.9c-0.3-0.9-0.4-1.9-0.6-2.8c-0.1-0.7-0.1-1.5-0.1-2.2c0-0.9,0-2.7,0.1-5.3
	s0.2-5.9,0.3-10c0.2-3.3,0.3-6.2,0.3-8.8c0-2.6-0.1-4.9-0.3-6.9c-0.1-2.6-0.3-5.2-0.5-7.9c-0.2-2.6-0.5-5.1-0.9-7.4
	c0.3-1.5,0.6-2.9,1-4.3c0.8-5.5,1.4-10.9,1.8-16.1c0.6-5,1.2-10.1,1.8-15.6c-0.2-1-0.5-2-1-2.9c-0.7-1.4-1.7-3.5-3.2-6.2
	c-1.2-2-2.2-3.6-3-5c-0.7-1.2-1.5-2.3-2.5-3.3c-1-1-2.3-1.8-3.6-2.3c-1.7-0.6-3.5-1-5.3-0.9c-2.4-0.1-4.6,0.8-6.3,2.5
	c-1.9,2.1-3.1,4.7-3.5,7.4c-2.5,12.7-4.4,24.8-5.7,36.3c-0.1,1.3-0.2,2.6-0.4,3.9l-6.2-21.8h-7.4l12.2,42.8
	c-0.1,2.7-0.1,5.5-0.1,8.2c0,3.4,0.1,6.8,0.5,10.2c0.2,2.1,0.6,4.1,1.3,6.1l3.8,2.8c0.9,0.7,1.6,2,2.1,4.1c0.5,2.6,0.8,5.3,0.9,7.9
	c0.2,3.9,0.4,7,0.5,9.2c0,1.4,0.2,2.8,0.5,4.1c0.7,1.4,1.4,2.8,1.9,4.2c0.4,1.1,0.7,2.2,0.8,3.4l0.3,4c0.1,1.3,0.2,2.7,0.3,4
	c0.6,4.2,1.1,7.8,1.5,10.9s0.8,5.6,1.1,7.6c0.8,3.2,1.6,5.9,2.3,8.1c0.5,1.8,1.2,3.6,2,5.3c-0.3,1.1-0.6,2.2-1,3.2l2.5,9
	c0.8,2.9,1.6,5.9,2.5,8.8c1,3.7,2.4,7.3,4.2,10.6c1.4,2.3,2.9,3.5,4.4,3.5c3,0,5.9-0.9,8.3-2.7c2.8-2.2,5.2-5,6.9-8.2
	c3-6.2,5.8-12.3,8.4-18.4c2.5-5.8,4.5-10.3,5.9-13.6c1.4-3.3,2.1-5.3,2-6.2c2.2-4.4,4.4-8.6,6.5-12.5c2.1-4,4.1-7.8,6.1-11.6
	c1.1,4.8,1.9,8.9,2.5,12.3c0.5,3.4,0.9,6.1,1,8.2c0.4,4.2,0.7,8.3,1,12.4s0.6,8.1,0.9,12.1c0.9,5.8,2.5,10.1,4.6,12.9
	c2,2.7,5.2,4.3,8.5,4.2c1-0.1,2.1-0.4,3-0.8c1.5-0.7,3-1.5,4.4-2.4c1.5,0.1,2.9,0,4.3-0.4c1.1-0.3,2.1-1,2.8-1.9l3.4-2
	c0.6-0.3,1.5-1.7,2.9-4.2c1.9-3.5,3.5-7.1,5-10.8l0.4-1l7.4,26.4h9l48.7-169.9L592.5,36.3z"/>
<path class="st0" d="M322.3,177.3c-5.9,4-14.3,6.5-25.1,7.7c7.7-3.9,15.1-8.5,22.1-13.7c9.9-7.3,18.6-16,25.9-25.9
	c-1.1,3.7-2.6,7.2-4.3,10.6C336.6,164.5,330.2,171.9,322.3,177.3 M255,77.7c2-0.6,4.1-1.2,6.2-1.7c6.2-1.7,12.6-2.9,19-3.7
	c-9.2,12.4-17.5,24.2-24.9,35.2L255,77.7z M231,91.9c-5.8,1-9.1,1.4-9.8,1.4c-1,0-1.6-0.3-1.6-0.8c0-0.9,2.1-2.3,6.4-4.3
	c1.5-0.7,3.2-1.4,4.9-2.2C230.9,88.1,231,90.1,231,91.9L231,91.9 M262.3,46.2c-2.7,0.7-5.3,1.4-7.9,2.2l-0.1-5.8L262.3,46.2
	 M279.8,173.6c-7.7,2.5-15.6,4.3-23.6,5.3l-0.3-0.2c-0.8-0.6-1.6-1.1-2.5-1.6l1.4-47.9c0.6-1,1.2-1.9,1.7-2.9
	c3.9-6.4,8.6-13.8,14.1-22.3c5.5-8.5,9.2-14.4,11.1-17.7c1.9-3.3,2.8-5.9,2.8-7.7c0-1.4-0.2-2.9-0.5-4.3c-0.3-1.6-0.5-2.5-0.5-2.7
	c5.7-0.5,11.8-0.7,18.2-0.7c3.6,0,7.3,0.2,10.9,0.6c20,13.5,31.4,29.3,34.3,47.4c-1.7,5.1-4.2,10-7.4,14.3
	c-6.4,8.9-15,16.8-25.6,23.9C303.4,164.1,291.9,169.6,279.8,173.6 M357.9,74.3c-2.7-6.8-6.8-13-12.2-18c-5.7-5.2-12.4-9.1-19.7-11.4
	c-4.2-1.4-8.5-2.5-12.8-3.1c-8.7-5-17.9-9.1-27.5-12.3c-1.9-0.7-9-4-21.4-10c-10.9-5.3-17.3-8-19.2-8c-3.3,0-6.7,1.8-10.1,5.4
	s-5,7-5,10.3c0,7.3,0.1,17.5,0.3,30.4c-1.6,0.7-3.1,1.4-4.6,2.2c-6.2,3.1-10.7,5.7-13.5,8c-6.9,5.5-10.3,15.1-10.3,28.7
	c0,5.3,2,7.9,6.1,7.9c1.6-0.1,3.1-0.4,4.6-0.9c1.8-0.6,4.7-1.8,8.7-3.6c3.3-1.5,6.5-2.8,9.7-4.1c0.1,6,0.1,11.1,0.1,15.3
	c0,8.4-0.4,21-1.1,37.7v0.1c-3.8,7-7.2,13.7-10,19.9c-1.5,3.2-2.7,6.6-3.6,10c-0.8,3.7-1.2,7.4-1.1,11.1c-0.1,2.8,0.2,5.6,1.1,8.3
	c0.6,1.7,1.9,3.1,3.7,3.8c2.3,0.7,4.6,1.1,7,1c6.5,0,13.1-0.5,19.5-1.5c5.1,2.5,10.5,4.4,16,5.6c6.5,1.7,13.2,2.6,20,2.8
	c23.2,0,41-4.2,53.4-12.7c11.2-7.7,20.2-18.1,26.3-30.2c6.4-12.2,9.7-25.7,9.6-39.5c0-13.9-3.6-27.5-10.5-39.5
	C360.8,83.4,359.6,78.7,357.9,74.3"/>
<path class="st0" d="M649.7,143.4v-8.9l-24.7-38.9h-0.2v47.8h-4.8V86.6h4.7l24.8,39.3h0.2V86.6h4.8v56.8H649.7z"/>
<path class="st0" d="M619.9,207.6v-56.8h11.6c3.6-0.1,7.1,0.3,10.5,1.3c2.7,0.8,5.1,2.3,7,4.5c2.1,2.5,3.5,5.5,4.1,8.7
	c0.9,4.6,1.3,9.3,1.3,14c0.1,4.7-0.4,9.4-1.4,14c-0.7,3.2-2.2,6.3-4.4,8.7c-2,2-4.4,3.5-7.1,4.4c-3.3,0.9-6.7,1.3-10.2,1.3
	L619.9,207.6z M641.7,201.4c2.5-1.3,4.3-3.7,5.6-7.1c1.3-3.5,2-8.5,2-15c0-6.5-0.6-11.5-1.9-15c-1.3-3.5-3.1-5.9-5.5-7.2
	c-2.4-1.3-5.9-1.9-10.3-1.9h-6.8v48.1h6.7C635.8,203.3,639.2,202.7,641.7,201.4z"/>
<path class="st0" d="M650.8,23.2h5.5c-4.7,9.6-10,19-15.8,28c1.8,2.7,4,6.5,6.7,11.4l9.7,18.4h-5.9C644.5,68,639.6,59,636.5,54
	l-8.9,0.9v26h-4.8V23.2h4.8v27.2l8.5-0.9c4.6-7,8.7-14.3,12.4-21.9L650.8,23.2z"/>
<path class="st0" d="M585.1,204.7c-0.9,0-1.8,0-2.7-0.1c-0.9-0.1-3.6-0.3-4.8-2.4c-0.5-1-0.7-2.1-0.6-3.2l0.1-4.2
	c-0.7-0.6-2.2-2.1-1.9-4s2-3.1,4.8-3.4c0.9-1.8,2.3-3.4,3.9-4.6V182l0.4,0.5c0.7-0.5,1.5-0.9,2.3-1.2c3.6-1.4,7.6-0.7,10.4,2
	c0.7,0.8,1.4,1.7,1.9,2.6h0.2c2.5,0.3,4.2,1.3,4.9,2.9c0.6,1.7,0.2,3.6-1.1,4.8c0.5,1.3,0.5,2.8,0,4.2c-0.7,1.3-1.8,2.4-3.1,3
	C595.2,203.4,590.2,204.7,585.1,204.7z M582,201.7l0.7,0.1c4.6,0.4,9.3-0.4,13.5-2.3c-0.4-0.3-0.8-0.6-1.2-1
	c-1.4,0.6-2.9,0.9-4.5,0.8c-2.5,0-5.4,0.1-8.1-1c-0.5-0.2-1.1-0.5-1.6-0.8c0,0.3,0,0.6,0.1,1c0.1,1.3,0.6,2.4,1.1,2.4L582,201.7z
	 M597,196.6c0.5,0.4,1.1,0.8,1.6,1.2c0.4-0.2,0.8-0.6,1.1-1l-1-1.3c-0.4,0.1-0.9,0.1-1.3,0.1C597.3,196,597.2,196.4,597,196.6
	L597,196.6z M586.5,196.5c1.3,0.1,2.7,0.1,4,0.1c0.7,0,1.4,0,2.1-0.2l-0.6-0.6c-1.9,0-3.7-0.1-5.5-0.5
	C586.5,195.8,586.5,196.2,586.5,196.5L586.5,196.5z M580.9,194.3c0.8,0.6,1.7,1.1,2.6,1.5l0.3,0.1c0-0.4,0-0.8,0-1.2l-0.7-0.2
	c-0.7-0.2-1.4-0.5-2.1-0.6C580.9,194,580.9,194.2,580.9,194.3L580.9,194.3z M590.3,190c0.9,1,1.9,2.1,2.9,3.1l2.2-0.1l0,0l0.3-1.3
	C594,190.6,592.2,190,590.3,190L590.3,190z M586.5,192.6c0.9,0.2,1.9,0.3,2.8,0.4c-1-1.1-1.9-2.1-2.7-3.2l0,0
	C586.5,190.8,586.5,191.7,586.5,192.6L586.5,192.6z M581.5,191.1c0.8,0.2,1.5,0.4,2.3,0.7c0-0.6,0-1.3,0-2l-1.9,0.1
	C581.7,190.3,581.6,190.7,581.5,191.1L581.5,191.1z M578.8,190.4c-0.3,0.1-0.5,0.3-0.7,0.5h0.4h0.2L578.8,190.4z M600.6,189.1
	l0.8,1.6c0.1-0.3,0.1-0.5,0-0.8C601.3,189.6,600.9,189.3,600.6,189.1L600.6,189.1z M587.9,187.1l1.3,0.1c2.4,0,4.8,0.5,6.9,1.6
	l0.2-0.9c0-0.2,0.1-0.3,0.1-0.5c-0.4-0.8-0.9-1.5-1.5-2.2c-2-1.9-4.9-2.4-7.4-1.4c-0.6,0.2-1.1,0.5-1.6,0.8l0.3,0.5
	C586.8,185.8,587.3,186.5,587.9,187.1L587.9,187.1z M583.9,186.5c-0.2,0.2-0.3,0.4-0.5,0.6h0.4C583.8,186.9,583.8,186.8,583.9,186.5
	L583.9,186.5z"/>
<path class="st0" d="M599.4,207.7c-2.6,0-5.1-0.9-7.1-2.4l-0.5-0.4c-2.7,1.4-5.7,1.8-8.7,1.1c-1-0.1-1.9-0.5-2.7-1
	c-0.8-0.6-1.3-1.4-1.7-2.4c-0.9-2-1.3-4.1-1.3-6.3h2.8c0,1.8,0.3,3.5,1.1,5.1c0.2,0.5,0.5,0.9,0.8,1.3c0.4,0.3,0.9,0.4,1.5,0.5
	c2.1,0.4,4.2,0.3,6.2-0.5c-1.9-2.4-3.5-5.1-4.8-7.9l-1.9-4c-1.2-2.5-2.4-5.4-1.2-8.1c0.3-0.7,0.8-1.3,1.5-1.6
	c0.5-0.2,0.9-0.3,1.4-0.2c3.1,0,6.9,0.4,9.3,3.1c2.1,2.3,2.3,5.4,2.4,8.6c0.1,3.7,0,7.5-2.4,10.3l0,0c2.7,2,6.9,2.8,9.4,0.4l1.9,2
	C603.7,206.9,601.6,207.7,599.4,207.7z M584.4,183.7c0,0,0,0.1-0.1,0.2c-0.7,1.6,0.2,3.8,1.1,5.7l2,4c1.2,2.7,2.7,5.2,4.5,7.5
	c1.7-2,1.8-5.1,1.7-8.3c-0.1-2.7-0.2-5.2-1.7-6.9c-1.7-1.9-4.8-2.2-7.3-2.2L584.4,183.7z"/>
<path class="st0" d="M579.9,204c-0.2-1.5-0.8-2.9-1.7-4.1c-1.3-1.7-2-3.7-2.1-5.8c0-2.1,0.3-4.7,2-6l0.1,0c0-0.5,0-1-0.1-1.6
	c-0.1-0.7-0.1-1.3,0-2l0.1-0.7l0.6-0.3c5.1-2.8,11.6-3.4,19.8-1.8c1.4,0.3,2.5,1.5,2.5,3c0,6.8,0.1,18.1-7.2,19.1l-0.4-2.7
	c4.8-0.6,4.8-10.9,4.8-16.4c0-0.1-0.1-0.3-0.2-0.3c-7.2-1.4-12.8-1-17.3,1.1c0,0.2,0,0.5,0,0.7c0.2,1,0.1,2-0.1,2.9
	c-0.2,0.4-0.5,0.8-0.9,1.1c-0.5,0.3-0.9,1.2-1,3.8c0,1.6,0.8,2.8,1.7,4.3c1.1,1.6,1.9,3.4,2.1,5.3L579.9,204z"/>
</svg>
