<?xml version="1.0" encoding="UTF-8"?>
<svg width="643px" height="208px" viewBox="0 0 643 208" version="1.1" xmlns="http://www.w3.org/2000/svg" xmlns:xlink="http://www.w3.org/1999/xlink">
    <!-- Generator: Sketch 42 (36781) - http://www.bohemiancoding.com/sketch -->
    <title>VDW-knd-logo-white</title>
    <desc>Created with Sketch.</desc>
    <defs></defs>
    <g id="Page-1" stroke="none" stroke-width="1" fill="none" fill-rule="evenodd">
        <g id="VDW-knd-logo-white" fill="#FFFFFF">
            <g id="Group">
                <path d="M163.805,31.386 C162.478,31.386 161.221,31.653 160.023,32.129 L157.812,32.129 C156.498,32.342 155.6,32.446 155.106,32.446 L146.266,34.027 C145.12,34.237 142.909,34.341 139.634,34.341 C135.863,34.341 128.091,34.096 116.301,33.606 L109.179,32.129 L108.198,32.129 C104.921,32.129 103.284,33.278 103.284,35.57 C103.284,37.533 105.083,38.517 108.688,38.517 L122.442,38.517 C129.645,38.517 133.25,40.805 133.25,45.372 C133.25,47.008 132.919,48.803 132.267,50.759 L96.501,154.685 C93.306,146.025 90.225,137.793 87.271,130.035 C83.65,120.539 80.031,110.948 76.415,101.271 C72.793,91.595 69.089,81.592 65.288,71.28 C61.581,61.222 57.441,50.296 52.875,38.517 L56.373,38.517 C59.973,38.517 61.776,37.374 61.776,35.079 C61.776,33.113 59.893,32.129 56.128,32.129 L55.638,32.129 C52.762,32.129 49.978,32.336 47.278,32.728 C45.634,31.849 43.86,31.386 41.946,31.386 C39.311,31.386 36.975,32.38 34.936,34.341 L32.056,34.341 C27.963,34.341 25.017,34.261 23.218,34.096 L15.109,33.113 L8.232,32.129 L6.759,32.129 C2.504,32.129 0.375,33.311 0.375,35.677 C0.375,37.572 2.259,38.517 6.023,38.517 L14.374,38.517 C19.612,38.517 23.953,43.251 27.391,52.72 L78.971,195.477 C80.279,199.23 81.997,201.109 84.126,201.109 C85.872,201.109 87.566,199.2 89.205,195.446 C90.31,197.236 91.606,198.649 93.105,199.649 C95.006,200.914 96.947,201.55 98.941,201.55 C101.111,201.55 103.188,200.822 105.182,199.377 C107.171,197.928 108.71,195.764 109.795,192.863 C119.024,168.621 128.658,144.105 138.7,119.318 C148.742,94.531 160.183,70.831 173.031,48.214 C173.935,45.862 174.386,43.871 174.386,42.24 C174.386,38.985 173.301,36.366 171.131,34.369 C168.958,32.383 166.518,31.386 163.805,31.386 M84.126,188.338 C83.471,188.338 82.9,187.605 82.408,186.135 L35.623,55.57 C43.777,77.067 51.905,98.505 59.994,119.861 C68.378,142.005 76.889,164.233 85.498,186.522 C84.985,187.729 84.528,188.338 84.126,188.338 M130.967,82.95 C126.243,93.969 121.583,105.055 116.956,116.171 L137.423,57.43 L140.369,49.324 C141.846,45.069 143.398,42.199 145.038,40.728 C146.607,39.313 149.329,38.583 153.174,38.527 C144.87,52.979 137.467,67.782 130.967,82.95" id="Fill-1"></path>
                <path d="M578.55,29.344 L533.095,189.811 L525.433,162.063 C526.496,159.63 527.25,157.71 527.672,156.369 C528.418,153.284 529.233,150.718 530.123,148.663 C531.01,146.608 531.921,144.973 532.856,143.758 C534.163,139.555 535.328,135.982 536.356,133.038 C537.383,130.097 538.226,127.552 538.881,125.404 C539.813,121.854 540.606,118.794 541.261,116.225 C541.914,113.657 542.523,111.766 543.084,110.551 C544.393,107.097 545.511,104.104 546.447,101.583 C547.381,99.061 547.989,96.912 548.271,95.138 C548.923,94.111 549.62,92.054 550.372,88.972 C551.115,85.89 551.958,81.734 552.892,76.501 C553.825,70.993 554.665,66.531 555.414,63.121 C556.161,59.711 556.816,57.356 557.375,56.045 L555.555,49.18 C555.83,48.433 556.208,47.475 556.673,46.307 C557.142,45.142 557.703,43.905 558.356,42.594 C558.728,41.663 559.033,39.631 559.268,36.499 C559.499,33.371 559.617,28.956 559.617,23.257 C559.617,21.112 559.43,19.544 559.056,18.564 C558.681,17.583 558.025,17.093 557.095,17.093 C555.883,17.093 554.274,18.121 552.27,20.175 C550.262,22.232 547.997,25.268 545.481,29.283 C545.012,31.619 544.5,33.627 543.94,35.31 C543.379,36.989 542.96,38.392 542.682,39.512 L544.5,45.395 C543.007,51.19 541.724,56.186 540.655,60.389 C539.581,64.592 538.575,68.095 537.642,70.896 C536.059,75.661 534.565,80.263 533.166,84.7 C531.768,89.137 530.321,93.365 528.826,97.38 C528.639,100.275 528.267,102.657 527.707,104.527 C527.146,106.395 526.402,107.841 525.469,108.868 C523.976,113.727 522.273,118.912 520.362,124.421 C519.415,127.147 518.418,129.956 517.365,132.846 L503.76,83.565 C503.953,81.753 504.079,80.131 504.14,78.743 C506.28,68.935 507.866,60.786 508.894,54.294 C509.924,47.802 510.437,43.109 510.437,40.212 C510.437,37.879 509.968,35.987 509.034,34.539 C508.098,33.09 506.559,31.944 504.413,31.106 L491.955,35.587 C491.515,35.717 491.085,35.907 490.661,36.127 L488.791,29.344 L483.969,29.344 L450.503,153.119 L442.687,167.157 C442.221,167.348 441.662,167.625 441.009,167.997 C440.337,167.063 438.91,160.15 436.724,147.261 C434.534,134.369 433.394,126.153 433.303,122.601 L433.303,113.773 C432.835,111.813 432.507,110.176 432.322,108.868 C432.041,107.841 431.852,106.907 431.763,106.064 C431.667,105.227 431.623,104.48 431.623,103.825 C431.623,102.892 431.667,101.14 431.763,98.57 C431.852,96.003 431.948,92.663 432.041,88.553 C432.229,85.284 432.322,82.365 432.322,79.795 C432.322,77.225 432.229,74.915 432.041,72.86 C431.948,70.243 431.782,67.629 431.549,65.013 C431.317,62.397 431.012,59.923 430.64,57.585 C430.92,55.999 431.248,54.553 431.623,53.245 C432.463,47.733 433.068,42.363 433.44,37.13 C434.002,32.178 434.611,26.995 435.264,21.577 C435.264,21.112 434.934,20.153 434.283,18.705 C433.628,17.256 432.554,15.179 431.059,12.469 C429.844,10.508 428.841,8.85 428.048,7.495 C427.252,6.14 426.437,5.041 425.597,4.201 C424.66,3.27 423.468,2.499 422.022,1.891 C420.573,1.284 418.821,0.979 416.767,0.979 C414.247,0.979 412.146,1.819 410.462,3.501 C408.782,5.185 407.614,7.66 406.962,10.93 C404.44,23.632 402.547,35.728 401.285,47.219 C401.14,48.541 401.032,49.832 400.905,51.143 L394.667,29.344 L387.322,29.344 L399.52,72.122 C399.438,74.871 399.397,77.594 399.397,80.285 C399.397,84.303 399.556,87.691 399.884,90.442 C400.214,93.2 400.657,95.232 401.22,96.54 L405.012,99.341 C405.948,99.997 406.646,101.374 407.113,103.475 C407.581,105.576 407.865,108.215 407.959,111.391 C408.147,115.313 408.312,118.375 408.452,120.567 C408.592,122.766 408.755,124.143 408.942,124.702 C409.785,126.291 410.418,127.692 410.837,128.904 C411.259,130.122 411.518,131.243 411.608,132.268 C411.702,133.578 411.796,134.908 411.892,136.261 C411.985,137.619 412.079,138.949 412.173,140.255 C412.732,144.457 413.247,148.101 413.718,151.183 C414.186,154.265 414.561,156.791 414.839,158.751 C415.685,161.927 416.455,164.635 417.158,166.876 C417.86,169.118 418.535,170.895 419.193,172.203 C419.006,173.04 418.678,174.117 418.21,175.425 C419.05,178.507 419.871,181.521 420.669,184.462 C421.463,187.403 422.28,190.322 423.126,193.22 C424.53,197.981 425.933,201.535 427.337,203.867 C428.739,206.203 430.193,207.371 431.691,207.371 C434.773,207.371 437.553,206.459 440.028,204.639 C442.502,202.815 444.813,200.086 446.964,196.442 C449.952,190.275 452.753,184.161 455.369,178.086 C457.892,172.297 459.853,167.766 461.258,164.494 C462.654,161.228 463.31,159.173 463.219,158.33 C465.458,153.939 467.634,149.762 469.732,145.788 C471.836,141.821 473.866,137.966 475.83,134.229 C476.945,138.993 477.764,143.08 478.281,146.49 C478.791,149.899 479.141,152.635 479.33,154.687 C479.702,158.889 480.052,163.023 480.38,167.088 C480.708,171.15 481.014,175.194 481.291,179.207 C482.226,184.999 483.768,189.295 485.916,192.099 C488.065,194.9 490.912,196.299 494.462,196.299 C495.208,196.299 496.214,196.021 497.475,195.462 C498.736,194.9 500.207,194.106 501.89,193.077 C503.664,193.173 505.112,193.058 506.233,192.727 C507.355,192.402 508.285,191.771 509.034,190.838 L512.398,188.874 C512.959,188.596 513.94,187.193 515.339,184.671 C516.743,182.148 518.421,178.554 520.384,173.883 C520.535,173.52 520.673,173.191 520.822,172.839 L528.044,199.222 L536.997,199.222 L585.663,29.344 L578.55,29.344 Z M506.647,160.15 C504.644,164.169 503.171,166.177 502.237,166.177 C501.678,166.177 501.237,164.565 500.909,161.343 C500.579,158.118 500.369,153.381 500.278,147.12 L500.278,140.395 C500.278,137.22 500.183,133.248 499.998,128.485 C499.901,124.562 499.811,121.036 499.717,117.907 C499.623,114.778 499.576,112.002 499.576,109.57 C499.576,109.102 499.788,107.888 500.207,105.927 C500.477,104.671 500.818,103.098 501.224,101.269 L513.064,144.515 C510.576,151.356 508.434,156.576 506.647,160.15 L506.647,160.15 Z" id="Fill-2"></path>
                <path d="M343.898,67.32 C341.06,60.206 337.005,54.188 331.726,49.271 C326.448,44.353 319.894,40.535 312.058,37.82 C307.99,36.407 303.713,35.371 299.237,34.694 C290.702,29.808 281.544,25.688 271.762,22.347 C269.845,21.708 262.725,18.389 250.414,12.393 C239.543,7.039 233.146,4.359 231.226,4.359 C227.868,4.359 224.511,6.158 221.153,9.755 C217.796,13.352 216.116,16.792 216.116,20.069 C216.116,27.376 216.227,37.511 216.446,50.45 C214.871,51.169 213.34,51.894 211.858,52.629 C205.664,55.708 201.164,58.369 198.368,60.605 C191.491,66.119 188.054,75.676 188.054,89.265 C188.054,94.544 190.092,97.183 194.171,97.183 C195.449,97.183 196.967,96.88 198.727,96.283 C200.483,95.682 203.384,94.484 207.421,92.686 C210.729,91.209 213.938,89.871 217.089,88.612 C217.16,94.625 217.196,99.726 217.196,103.898 C217.196,112.293 216.815,124.868 216.059,141.616 C216.056,141.663 216.053,141.707 216.05,141.754 C212.205,148.799 208.864,155.45 206.044,161.702 C204.361,165.462 203.163,168.78 202.444,171.656 C201.726,174.534 201.365,178.249 201.365,182.811 C201.365,186.487 201.726,189.269 202.444,191.145 C203.163,193.022 204.381,194.281 206.104,194.921 C207.82,195.563 210.159,195.882 213.117,195.882 C219.584,195.882 226.095,195.381 232.642,194.433 C236.819,196.645 242.129,198.528 248.618,200.079 C256.129,201.919 262.811,202.839 268.644,202.839 C291.831,202.839 309.617,198.598 322.012,190.126 C333.124,182.532 341.899,172.457 348.336,159.904 C354.77,147.354 357.989,134.238 357.989,120.566 C357.989,106.704 354.467,93.545 347.463,81.08 C346.779,76.18 345.601,71.589 343.898,67.32 L343.898,67.32 Z M265.766,166.558 C257.616,169.213 249.761,170.956 242.185,171.829 C242.094,171.771 241.991,171.72 241.9,171.656 C240.78,170.857 239.939,170.34 239.381,170.097 L240.785,122.213 C241.369,121.229 241.945,120.277 242.501,119.368 C246.415,112.973 251.136,105.536 256.652,97.062 C262.166,88.587 265.865,82.691 267.746,79.375 C269.621,76.056 270.563,73.478 270.563,71.638 C270.563,70.438 270.401,69.019 270.084,67.38 C269.765,65.742 269.603,64.841 269.603,64.681 C275.278,64.202 281.357,63.962 287.832,63.962 C291.686,63.962 295.304,64.147 298.697,64.519 C318.695,78.061 330.139,93.851 333.015,111.896 C331.42,116.773 328.966,121.547 325.608,126.204 C319.213,135.081 310.678,143.037 300.006,150.068 C289.333,157.105 277.917,162.601 265.766,166.558 L265.766,166.558 Z M248.29,39.197 C245.605,39.899 242.983,40.632 240.443,41.403 L240.342,35.658 C243.096,36.875 245.724,38.045 248.29,39.197 L248.29,39.197 Z M217.017,84.949 C211.22,85.908 207.961,86.39 207.242,86.39 C206.201,86.39 205.684,86.108 205.684,85.549 C205.684,84.668 207.799,83.23 212.04,81.231 C213.555,80.518 215.196,79.793 216.956,79.058 C216.986,81.102 217.017,83.063 217.039,84.946 C217.033,84.946 217.025,84.949 217.017,84.949 L217.017,84.949 Z M240.948,70.776 C242.994,70.187 245.063,69.611 247.178,69.061 C254.05,67.259 260.367,66.042 266.126,65.4 C256.955,77.835 248.673,89.582 241.259,100.653 L240.948,70.776 Z M308.34,170.34 C302.451,174.3 294.067,176.854 283.208,178.01 C291.029,173.997 298.395,169.431 305.282,164.28 C315.55,156.604 324.171,147.973 331.193,138.419 C330.101,142.021 328.665,145.565 326.867,149.05 C322.271,157.968 316.096,165.06 308.34,170.34 L308.34,170.34 Z" id="Fill-3"></path>
                <polyline id="Fill-4" points="635.658 136.36 635.658 127.427 610.944 88.577 610.69 88.577 610.69 136.36 605.92 136.36 605.92 79.559 610.599 79.559 635.404 118.845 635.658 118.845 635.658 79.559 640.429 79.559 640.429 136.36 635.658 136.36"></polyline>
                <path d="M627.732,194.39 C630.189,193.12 632.065,190.734 633.364,187.241 C634.67,183.741 635.319,178.737 635.319,172.238 C635.319,165.731 634.684,160.735 633.414,157.234 C632.137,153.734 630.287,151.349 627.86,150.079 C625.433,148.809 621.995,148.174 617.543,148.174 L610.69,148.174 L610.69,196.303 L617.366,196.303 C621.819,196.303 625.27,195.667 627.732,194.39 Z M605.92,200.636 L605.92,143.833 L617.543,143.833 C621.819,143.833 625.333,144.257 628.079,145.097 C630.824,145.93 633.152,147.418 635.058,149.557 C636.964,151.702 638.34,154.603 639.18,158.272 C640.012,161.949 640.436,166.6 640.436,172.238 C640.436,177.869 639.97,182.556 639.045,186.281 C638.121,190.015 636.646,192.915 634.628,194.997 C632.603,197.079 630.232,198.539 627.514,199.379 C624.797,200.219 621.417,200.636 617.366,200.636 L605.92,200.636 L605.92,200.636 Z" id="Fill-5"></path>
                <path d="M636.833,16.146 L642.384,16.146 C636.507,27.896 631.249,37.24 626.607,44.171 C628.371,46.815 630.604,50.605 633.307,55.541 L643,73.873 L637.097,73.873 C630.515,61.006 625.639,52.046 622.465,46.993 L613.565,47.872 L613.565,73.873 L608.718,73.873 L608.718,16.146 L613.565,16.146 L613.565,43.378 L622.112,42.499 C626.284,36.151 630.426,28.867 634.541,20.64 L636.833,16.146" id="Fill-6"></path>
                <path d="M594,184 C594,192.837 586.837,200 578,200 C569.163,200 562,192.837 562,184 C562,175.163 569.163,168 578,168 C586.837,168 594,175.163 594,184" id="Fill-7"></path>
            </g>
        </g>
    </g>
</svg>