<?xml version="1.0" encoding="UTF-8"?>
<svg width="472px" height="308px" viewBox="0 0 472 308" version="1.1" xmlns="http://www.w3.org/2000/svg" xmlns:xlink="http://www.w3.org/1999/xlink">
    <!-- Generator: Sketch 49.3 (51167) - http://www.bohemiancoding.com/sketch -->
    <title>bfj</title>
    <desc>Created with Sketch.</desc>
    <defs></defs>
    <g id="bfj" stroke="none" stroke-width="1" fill="none" fill-rule="evenodd">
        <path d="M423.141,236.044 L464.259,295.745 L464.457,295.745 L464.457,236.044 L471.178,236.044 L471.178,306.617 L463.666,306.617 L422.548,246.916 L422.351,246.916 L422.351,306.617 L415.629,306.617 L415.629,236.044 L423.141,236.044 Z M370.391,306.617 L369.502,293.768 L369.304,293.768 C368.117,296.272 366.65,298.43 364.905,300.242 C363.158,302.054 361.23,303.537 359.123,304.689 C357.014,305.843 354.757,306.682 352.353,307.209 C349.946,307.737 347.46,308 344.89,308 C339.354,308 334.495,306.995 330.311,304.986 C326.126,302.977 322.65,300.291 319.884,296.93 C317.115,293.57 315.04,289.683 313.656,285.267 C312.272,280.853 311.581,276.207 311.581,271.33 C311.581,266.454 312.272,261.809 313.656,257.394 C315.04,252.98 317.115,249.076 319.884,245.681 C322.65,242.288 326.126,239.587 330.311,237.576 C334.495,235.567 339.354,234.562 344.89,234.562 C348.579,234.562 352.071,235.056 355.367,236.044 C358.661,237.033 361.594,238.515 364.164,240.492 C366.734,242.469 368.908,244.908 370.688,247.806 C372.467,250.706 373.686,254.1 374.345,257.987 L367.624,257.987 C367.426,255.945 366.749,253.885 365.598,251.809 C364.443,249.734 362.895,247.84 360.951,246.126 C359.007,244.413 356.685,243.013 353.983,241.925 C351.28,240.838 348.251,240.294 344.89,240.294 C340.211,240.294 336.191,241.184 332.831,242.963 C329.471,244.743 326.719,247.099 324.578,250.031 C322.437,252.963 320.854,256.274 319.834,259.964 C318.812,263.655 318.302,267.444 318.302,271.33 C318.302,275.153 318.812,278.926 319.834,282.648 C320.854,286.371 322.437,289.7 324.578,292.631 C326.719,295.564 329.471,297.918 332.831,299.698 C336.191,301.477 340.211,302.367 344.89,302.367 C348.777,302.367 352.253,301.724 355.317,300.439 C358.382,299.155 360.967,297.36 363.077,295.052 C365.185,292.746 366.767,290.011 367.821,286.849 C368.874,283.686 369.368,280.226 369.304,276.47 L345.285,276.47 L345.285,270.738 L375.234,270.738 L375.234,306.617 L370.391,306.617 Z M265.995,306.617 L272.717,306.617 L272.717,236.044 L265.995,236.044 L265.995,306.617 Z M180.664,292.483 C181.85,294.921 183.48,296.866 185.556,298.314 C187.632,299.764 190.086,300.802 192.92,301.427 C195.752,302.054 198.784,302.367 202.014,302.367 C203.857,302.367 205.868,302.104 208.043,301.576 C210.217,301.049 212.244,300.209 214.122,299.056 C216,297.904 217.564,296.421 218.816,294.608 C220.067,292.796 220.694,290.605 220.694,288.035 C220.694,286.058 220.25,284.345 219.36,282.895 C218.471,281.446 217.317,280.226 215.901,279.238 C214.483,278.249 212.918,277.444 211.206,276.817 C209.492,276.191 207.811,275.679 206.165,275.285 L190.449,271.429 C188.406,270.903 186.412,270.244 184.469,269.453 C182.525,268.662 180.827,267.609 179.379,266.289 C177.929,264.972 176.76,263.358 175.87,261.447 C174.98,259.536 174.536,257.196 174.536,254.428 C174.536,252.716 174.864,250.706 175.524,248.4 C176.182,246.093 177.417,243.918 179.23,241.875 C181.042,239.834 183.53,238.104 186.693,236.687 C189.856,235.27 193.908,234.562 198.851,234.562 C202.342,234.562 205.67,235.024 208.833,235.945 C211.996,236.869 214.764,238.252 217.136,240.096 C219.508,241.943 221.402,244.233 222.819,246.966 C224.236,249.702 224.944,252.881 224.944,256.504 L218.223,256.504 C218.09,253.803 217.482,251.448 216.395,249.437 C215.308,247.428 213.89,245.747 212.145,244.396 C210.398,243.046 208.389,242.024 206.115,241.332 C203.842,240.64 201.453,240.294 198.949,240.294 C196.642,240.294 194.418,240.541 192.277,241.036 C190.135,241.53 188.257,242.321 186.644,243.408 C185.028,244.495 183.728,245.928 182.739,247.707 C181.751,249.487 181.256,251.695 181.256,254.329 C181.256,255.978 181.536,257.411 182.097,258.629 C182.656,259.849 183.431,260.887 184.419,261.743 C185.408,262.6 186.544,263.292 187.83,263.819 C189.115,264.347 190.481,264.775 191.932,265.103 L209.13,269.354 C211.634,270.013 213.989,270.821 216.197,271.775 C218.404,272.731 220.348,273.917 222.029,275.333 C223.709,276.751 225.027,278.481 225.982,280.523 C226.937,282.566 227.416,285.037 227.416,287.936 C227.416,288.727 227.332,289.782 227.168,291.099 C227.003,292.417 226.607,293.817 225.982,295.299 C225.355,296.782 224.465,298.282 223.314,299.796 C222.16,301.314 220.579,302.68 218.569,303.899 C216.559,305.119 214.072,306.107 211.107,306.864 C208.142,307.62 204.583,308 200.432,308 C196.281,308 192.426,307.522 188.868,306.568 C185.309,305.613 182.277,304.146 179.774,302.169 C177.269,300.192 175.342,297.657 173.992,294.558 C172.641,291.461 172.064,287.738 172.262,283.389 L178.983,283.389 C178.917,287.014 179.478,290.045 180.664,292.483 Z M143.411,236.044 L143.411,241.777 L101.403,241.777 L101.403,267.278 L140.742,267.278 L140.742,273.01 L101.403,273.01 L101.403,300.884 L143.905,300.884 L143.905,306.617 L94.682,306.617 L94.682,236.044 L143.411,236.044 Z M21.053,300.884 C26.126,300.884 30.493,300.34 34.15,299.253 C37.807,298.165 40.821,296.436 43.194,294.064 C45.566,291.692 47.311,288.627 48.433,284.871 C49.552,281.116 50.113,276.603 50.113,271.33 C50.113,266.059 49.552,261.545 48.433,257.789 C47.311,254.034 45.566,250.969 43.194,248.597 C40.821,246.225 37.807,244.495 34.15,243.408 C30.493,242.321 26.126,241.777 21.053,241.777 L6.722,241.777 L6.722,300.884 L21.053,300.884 Z M24.414,236.044 C35.153,236.308 43.243,239.323 48.679,245.088 C54.116,250.855 56.834,259.602 56.834,271.33 C56.834,283.06 54.116,291.808 48.679,297.573 C43.243,303.339 35.153,306.354 24.414,306.617 L0,306.617 L0,236.044 L24.414,236.044 Z M469.065,171.115 C467.655,179.567 464.434,187.466 459.406,194.809 C454.374,202.158 447.13,208.293 437.674,213.222 C428.213,218.15 415.438,220.617 399.341,220.617 C390.286,220.617 381.532,219.357 373.081,216.843 C364.63,214.329 357.083,210.406 350.443,205.072 C343.803,199.743 338.469,192.9 334.445,184.547 C330.418,176.2 328.408,166.087 328.408,154.212 L328.408,135.498 L371.27,135.498 L371.27,145.157 C371.27,150.392 371.671,155.221 372.478,159.645 C373.279,164.074 374.689,167.847 376.702,170.964 C378.712,174.086 381.48,176.548 385.003,178.359 C388.521,180.17 393.101,181.076 398.737,181.076 C404.972,181.076 409.801,179.972 413.225,177.755 C416.645,175.544 419.111,172.676 420.62,169.153 C422.129,165.635 423.035,161.81 423.337,157.683 C423.639,153.561 423.79,149.586 423.79,145.761 L423.79,0.275 L471.178,0.275 L471.178,147.873 C471.178,154.92 470.471,162.663 469.065,171.115 Z M339.441,0.275 L339.441,40.118 L235.307,40.118 L235.307,89.92 L325.557,89.92 L325.557,126.745 L235.307,126.745 L235.307,215.787 L187.919,215.787 L187.919,0.275 L339.441,0.275 Z M98.098,178.963 C102.724,178.963 107.153,178.51 111.378,177.604 C115.604,176.699 119.325,175.19 122.546,173.077 C125.763,170.964 128.329,168.097 130.243,164.475 C132.153,160.852 133.11,156.226 133.11,150.59 C133.11,139.526 129.989,131.626 123.753,126.896 C117.514,122.17 109.265,119.803 99.003,119.803 L47.389,119.803 L47.389,178.963 L98.098,178.963 Z M95.381,87.506 C103.832,87.506 110.774,85.497 116.208,81.469 C121.641,77.447 124.357,70.905 124.357,61.85 C124.357,56.822 123.452,52.696 121.641,49.474 C119.83,46.258 117.415,43.74 114.397,41.928 C111.378,40.118 107.907,38.863 103.983,38.156 C100.06,37.452 95.984,37.099 91.759,37.099 L47.389,37.099 L47.389,87.506 L95.381,87.506 Z M101.417,0.275 C111.68,0.275 121.037,1.181 129.488,2.992 C137.94,4.802 145.184,7.774 151.221,11.896 C157.257,16.022 161.936,21.507 165.256,28.346 C168.577,35.189 170.237,43.641 170.237,53.701 C170.237,64.566 167.77,73.621 162.842,80.866 C157.908,88.11 150.617,94.047 140.958,98.674 C154.239,102.499 164.148,109.191 170.689,118.746 C177.226,128.306 180.499,139.828 180.499,153.307 C180.499,164.173 178.386,173.581 174.161,181.528 C169.935,189.48 164.247,195.97 157.107,200.997 C149.961,206.03 141.812,209.75 132.658,212.164 C123.499,214.579 114.095,215.787 104.436,215.787 L0,215.787 L0,0.275 L101.417,0.275 Z" id="Fill-1" fill="#FFFFFF"></path>
    </g>
</svg>