<?xml version="1.0" encoding="UTF-8"?>
<svg width="359px" height="86px" viewBox="0 0 359 86" version="1.1" xmlns="http://www.w3.org/2000/svg" xmlns:xlink="http://www.w3.org/1999/xlink">
    <!-- Generator: Sketch 49.3 (51167) - http://www.bohemiancoding.com/sketch -->
    <title>bocci</title>
    <desc>Created with Sketch.</desc>
    <defs></defs>
    <g id="bocci" stroke="none" stroke-width="1" fill="none" fill-rule="evenodd">
        <path d="M20.167,50.055 L33.072,50.055 C41.177,50.055 45.286,53.225 45.286,59.48 C45.286,66.67 37.636,67.742 33.072,67.742 L20.167,67.742 L20.167,50.055 Z M31.447,33.723 L20.167,33.723 L20.167,18.006 L32.03,18.006 C37.017,18.006 42.963,19.281 42.963,25.34 C42.963,32.904 34.909,33.723 31.447,33.723 Z M53.634,40.869 C59.634,37.459 63.361,31.191 63.361,23.828 C63.361,8.283 49.665,1.324 36.095,1.324 L0,1.324 L0,84.771 L36.79,84.771 C55.153,84.771 65.685,75.85 65.685,60.291 C65.685,51.764 60.958,44.459 53.634,40.869 Z" id="Fill-1" fill="#FFFFFF"></path>
        <path d="M99.708,43.869 C99.708,27.135 105.619,17.143 115.519,17.143 C126.49,17.143 130.399,30.41 130.399,42.824 C130.399,59.096 124.613,69.199 115.29,69.199 C105.825,69.199 99.708,59.262 99.708,43.869 Z M114.938,0.344 C89.665,0.344 78.147,22.848 78.147,43.754 C78.147,64.781 89.671,85.998 115.404,85.998 C140.6,85.998 152.079,63.314 152.079,42.244 C152.079,22.064 140.458,0.344 114.938,0.344 Z" id="Fill-2" fill="#FFFFFF"></path>
        <polygon id="Fill-3" fill="#FFFFFF" points="337.677 84.771 358.538 84.771 358.538 1.324 337.677 1.324"></polygon>
        <path d="M299.897,51.68 C298.142,62.67 293.837,69.199 286.351,69.199 C276.89,69.199 270.774,59.256 270.774,43.867 C270.774,27.129 276.681,17.144 286.585,17.144 C295.142,17.144 298.485,25.221 299.95,34.662 L321.69,34.662 C319.124,16.978 308.335,0.342 286.001,0.342 C260.724,0.342 249.214,22.846 249.214,43.752 C249.214,64.779 260.731,86 286.47,86 C307.913,86 318.515,69.564 321.464,51.68 L299.897,51.68" id="Fill-4" fill="#FFFFFF"></path>
        <path d="M214.749,51.68 C212.991,62.67 208.694,69.199 201.202,69.199 C191.741,69.199 185.626,59.256 185.626,43.867 C185.626,27.129 191.534,17.144 201.437,17.144 C209.991,17.144 213.339,25.221 214.802,34.662 L236.546,34.662 C233.978,16.978 223.188,0.342 200.853,0.342 C175.576,0.342 164.066,22.846 164.066,43.752 C164.066,64.779 175.583,86 201.319,86 C222.761,86 233.362,69.564 236.317,51.68 L214.749,51.68" id="Fill-5" fill="#FFFFFF"></path>
    </g>
</svg>