<?xml version="1.0" encoding="UTF-8"?>
<svg width="332px" height="94px" viewBox="0 0 332 94" version="1.1" xmlns="http://www.w3.org/2000/svg" xmlns:xlink="http://www.w3.org/1999/xlink">
    <!-- Generator: Sketch 49.3 (51167) - http://www.bohemiancoding.com/sketch -->
    <title>bulthaup</title>
    <desc>Created with Sketch.</desc>
    <defs></defs>
    <g id="bulthaup" stroke="none" stroke-width="1" fill="none" fill-rule="evenodd">
        <path d="M17.035,68.315 C26.011,68.315 29.479,58.828 29.479,48.22 C29.479,37.917 27.133,25.473 18.157,25.473 C11.017,25.473 6.018,36.387 6.018,48.832 C6.018,57.604 8.262,68.315 17.035,68.315 Z M5.61,32.307 L5.814,32.307 C8.568,26.391 12.24,21.495 19.177,21.495 C29.377,21.495 35.702,32.307 35.702,47.404 C35.702,62.194 29.071,72.293 16.933,72.293 C0,72.293 0,55.564 0,48.73 L0,0.788 L5.61,0.788 L5.61,32.307 Z" id="Fill-1" fill="#FFFFFF"></path>
        <path d="M75.991,59.134 L75.787,59.134 C74.767,62.398 71.095,72.293 61.608,72.293 C49.164,72.293 47.328,62.807 47.328,56.482 L47.328,22.617 L52.938,22.617 L52.938,55.156 C52.938,62.602 55.998,67.192 61.098,67.192 C71.604,67.192 75.991,54.034 75.991,44.547 L75.991,22.617 L81.601,22.617 L81.601,71.171 L75.991,71.171 L75.991,59.134" id="Fill-4" fill="#FFFFFF"></path>
        <polygon id="Fill-5" fill="#FFFFFF" points="97.919 71.171 103.529 71.171 103.529 0.788 97.919 0.788"></polygon>
        <path d="M141.472,71.987 C139.84,72.089 138.208,72.293 136.474,72.293 C130.047,72.293 122.703,71.171 122.703,60.97 L122.703,26.799 L114.747,26.799 L114.747,22.617 L122.703,22.617 L122.703,11.294 L128.313,7.826 L128.313,22.617 L141.064,22.617 L141.064,26.799 L128.313,26.799 L128.313,57.094 C128.313,61.787 128.313,68.315 137.086,68.315 C138.616,68.315 140.044,68.11 141.472,67.601 L141.472,71.987" id="Fill-6" fill="#FFFFFF"></path>
        <path d="M151.262,0.788 L156.873,0.788 L156.873,35.877 L157.077,35.877 C158.301,32.307 163.401,21.495 173.193,21.495 C182.476,21.495 185.434,27.717 185.434,36.897 L185.434,71.171 L179.824,71.171 L179.824,38.733 C179.824,33.225 179.212,26.595 172.173,26.595 C162.075,26.595 156.873,43.426 156.873,48.526 L156.873,71.171 L151.262,71.171 L151.262,0.788" id="Fill-7" fill="#FFFFFF"></path>
        <path d="M224.192,48.118 C219.5,48.118 203.281,48.22 203.281,59.236 C203.281,64.133 207.056,67.192 211.748,67.192 C221.03,67.192 224.192,57.706 224.192,50.872 L224.192,48.118 Z M224.192,63.622 L223.988,63.622 C222.968,65.969 218.174,72.293 210.014,72.293 C202.159,72.293 197.059,66.377 197.059,59.95 C197.059,50.668 205.322,44.14 224.192,44.14 L224.192,40.875 C224.192,33.327 224.192,25.473 214.298,25.473 C206.444,25.473 205.423,30.471 205.22,34.449 L198.181,34.449 C198.895,29.145 201.547,21.495 214.91,21.495 C228.069,21.495 229.803,30.063 229.803,38.223 L229.803,71.171 L224.192,71.171 L224.192,63.622 Z" id="Fill-8" fill="#FFFFFF"></path>
        <path d="M273.968,59.134 L273.764,59.134 C272.744,62.398 269.071,72.293 259.585,72.293 C247.141,72.293 245.305,62.807 245.305,56.482 L245.305,22.617 L250.915,22.617 L250.915,55.156 C250.915,62.602 253.975,67.192 259.075,67.192 C269.582,67.192 273.968,54.034 273.968,44.547 L273.968,22.617 L279.578,22.617 L279.578,71.171 L273.968,71.171 L273.968,59.134" id="Fill-9" fill="#FFFFFF"></path>
        <path d="M314.462,68.315 C322.418,68.315 325.58,57.502 325.58,47.608 C325.58,36.387 322.418,25.473 314.359,25.473 C305.995,25.473 301.405,38.835 301.405,46.282 C301.405,53.83 305.485,68.315 314.462,68.315 Z M295.795,22.617 L301.405,22.617 L301.405,32.409 L301.608,32.409 C302.73,29.247 306.607,21.495 314.869,21.495 C326.396,21.495 331.803,32.613 331.803,47.404 C331.803,60.154 327.11,72.293 314.768,72.293 C305.587,72.293 302.527,64.541 301.608,61.481 L301.405,61.481 L301.405,93 L295.795,93 L295.795,22.617 Z" id="Fill-10" fill="#FFFFFF"></path>
    </g>
</svg>