<?xml version="1.0" encoding="UTF-8"?>
<svg width="782px" height="152px" viewBox="0 0 782 152" version="1.1" xmlns="http://www.w3.org/2000/svg" xmlns:xlink="http://www.w3.org/1999/xlink">
    <!-- Generator: Sketch 49.3 (51167) - http://www.bohemiancoding.com/sketch -->
    <title>capilano</title>
    <desc>Created with Sketch.</desc>
    <defs></defs>
    <g id="capilano" stroke="none" stroke-width="1" fill="none" fill-rule="evenodd">
        <path d="M30.394,36.69 C26.484,40.62 21.004,41.58 18.644,39.23 C16.284,36.88 17.134,31.48 21.054,27.55 C24.964,23.62 30.454,22.66 32.814,25.01 C35.164,27.36 34.314,32.76 30.394,36.69 Z M143.894,17.32 C143.874,15.91 143.864,14.5 143.824,13.06 C143.814,12.67 143.564,12.33 143.194,12.2 C129.934,7.78 107.624,1.76 79.324,1.05 C79.314,1.05 79.304,1.05 79.304,1.05 C78.914,1.84 78.544,2.64 78.184,3.44 C78.534,2.64 78.914,1.84 79.294,1.05 C76.714,0.97 74.224,0.94 71.854,0.94 C57.994,0.94 40.334,2.09 20.644,6.58 C8.504,9.35 -0.216,20.15 0.004,32.52 C0.164,41.12 1.164,52.86 4.354,67.76 C14.414,59.16 25.304,52.37 36.674,47.17 C48.044,41.97 59.884,38.36 71.854,36.13 C71.854,36.13 71.864,36.13 71.874,36.13 C81.604,34.3 92.164,33.28 103.214,33.28 C116.134,33.28 129.724,34.68 143.444,37.81 C143.814,31.78 143.924,25.54 143.924,19.09 C143.924,17.32 143.894,17.32 143.894,17.32 Z" id="Fill-1" fill="#FFFFFF"></path>
        <path d="M42.474,88 C40.194,93.01 35.634,95.74 32.804,94.45 C29.974,93.16 29.104,87.77 31.374,82.76 C33.654,77.75 38.214,75.03 41.044,76.31 C43.874,77.6 44.754,83 42.474,88 Z M141.584,41.21 C106.164,34.21 72.444,43.3 72.444,43.3 C72.444,43.3 72.344,43.32 71.194,43.6 C42.094,50.62 1.904,67.47 15.434,98.73 C15.994,99.81 16.574,100.88 17.174,101.94 C17.544,102.59 17.924,103.23 18.304,103.87 C18.544,104.27 18.764,104.68 19.004,105.08 C19.534,105.95 20.084,106.8 20.634,107.66 C20.744,107.82 20.834,107.98 20.944,108.14 C21.584,109.12 22.234,110.08 22.904,111.04 C22.934,111.08 22.954,111.11 22.984,111.15 C25.774,115.12 29.194,119.31 32.574,122.97 C40.794,111.73 49.394,102.59 58.334,95.15 C67.274,87.7 76.554,81.93 86.184,77.41 C87.204,76.93 88.024,76.57 89.274,76.02 C106.724,68.27 125.434,65.02 136.764,63.3 C137.574,63.18 139.274,62.95 140.394,62.8 C141.494,57.09 142.304,51.16 142.874,45.02 L142.884,45.02 C142.994,43.86 143.094,42.7 143.194,41.53 C142.664,41.42 142.394,41.37 141.584,41.21 Z" id="Fill-3" fill="#FFFFFF"></path>
        <path d="M71.774,137.79 C68.704,137.78 65.874,133.75 65.894,128.68 C65.914,123.61 68.774,119.42 71.844,119.43 C74.914,119.45 77.744,123.48 77.724,128.55 C77.704,133.61 74.854,137.8 71.774,137.79 Z M139.644,66.68 C125.814,69.06 109.764,73.19 91.234,82.29 C91.014,82.4 90.704,82.551 90.434,82.68 C83.134,86.39 75.814,91.051 69.314,96.18 C62.814,101.32 57.134,106.93 53.064,112.53 C48.344,119.04 46.164,124.89 47.604,130.59 C47.834,131.47 48.134,132.34 48.524,133.21 C49.114,134.51 49.894,135.8 50.884,137.09 C53.514,140.54 57.604,143.95 63.344,147.41 C64.654,148.18 70.074,151.18 71.484,151.91 C71.544,151.94 71.604,151.96 71.674,151.98 C71.864,152.02 72.064,152 72.234,151.91 C72.234,151.91 77.964,148.91 88.104,142.58 C93.884,138.97 104.574,130.18 110.374,124.05 C119.304,114.63 125.094,104.7 125.094,104.7 C125.094,104.7 127.704,100.61 130.564,94.35 C133.504,87.93 136.714,79.23 138.694,70.89 C138.814,70.39 138.914,69.96 138.914,69.96 C139.084,69.26 139.254,68.56 139.414,67.85 L139.414,67.84 C139.504,67.45 139.594,67.06 139.674,66.67 C139.664,66.67 139.644,66.68 139.644,66.68 Z" id="Fill-4" fill="#FFFFFF"></path>
        <path d="M191.529,40.113 C191.529,39.723 191.88,39.373 192.271,39.373 L193.831,39.373 C194.22,39.373 194.571,39.723 194.571,40.113 L194.571,65.932 C194.571,66.322 194.22,66.674 193.831,66.674 L192.271,66.674 C191.88,66.674 191.529,66.322 191.529,65.932 L191.529,40.113" id="Fill-6" fill="#FFFFFF"></path>
        <path d="M213.486,63.983 C219.882,63.983 224.368,59.419 224.368,52.984 C224.368,46.588 219.882,42.025 213.486,42.025 L207.363,42.025 L207.363,63.983 L213.486,63.983 Z M204.399,40.113 C204.399,39.723 204.711,39.373 205.101,39.373 L213.837,39.373 C221.365,39.373 227.527,45.496 227.527,52.984 C227.527,60.551 221.365,66.674 213.837,66.674 L205.101,66.674 C204.711,66.674 204.399,66.322 204.399,65.932 L204.399,40.113 Z" id="Fill-7" fill="#FFFFFF"></path>
        <path d="M235.677,40.113 C235.677,39.723 235.989,39.373 236.418,39.373 L251.784,39.373 C252.213,39.373 252.525,39.723 252.525,40.113 L252.525,41.245 C252.525,41.634 252.213,41.986 251.784,41.986 L238.68,41.986 L238.68,51.502 L249.874,51.502 C250.263,51.502 250.614,51.853 250.614,52.243 L250.614,53.374 C250.614,53.803 250.263,54.115 249.874,54.115 L238.68,54.115 L238.68,64.06 L251.784,64.06 C252.213,64.06 252.525,64.411 252.525,64.801 L252.525,65.932 C252.525,66.322 252.213,66.674 251.784,66.674 L236.418,66.674 C235.989,66.674 235.677,66.322 235.677,65.932 L235.677,40.113" id="Fill-8" fill="#FFFFFF"></path>
        <path d="M275.535,57.391 C273.624,53.14 271.751,48.85 269.84,44.599 L269.528,44.599 L263.834,57.391 L275.535,57.391 Z M257.009,65.659 L268.865,39.411 C268.982,39.177 269.177,38.983 269.528,38.983 L269.918,38.983 C270.27,38.983 270.464,39.177 270.582,39.411 L282.36,65.659 C282.594,66.167 282.282,66.674 281.697,66.674 L280.137,66.674 C279.786,66.674 279.552,66.44 279.474,66.244 L276.587,59.809 L262.742,59.809 L259.895,66.244 C259.817,66.44 259.583,66.674 259.232,66.674 L257.672,66.674 C257.087,66.674 256.775,66.167 257.009,65.659 Z" id="Fill-9" fill="#FFFFFF"></path>
        <path d="M298.934,62.578 L299.519,61.838 C299.909,61.33 300.221,61.135 300.767,61.603 C301.04,61.838 304.004,64.45 307.475,64.45 C310.634,64.45 312.701,62.462 312.701,60.004 C312.701,57.313 310.361,55.753 305.876,53.842 C301.585,52.009 299.012,50.371 299.012,45.925 C299.012,43.273 301.118,38.983 307.319,38.983 C311.141,38.983 313.988,40.971 313.988,40.971 C314.222,41.089 314.651,41.556 314.222,42.298 L313.832,42.961 C313.52,43.507 313.091,43.507 312.467,43.155 C310.829,42.18 309.464,41.595 307.28,41.595 C303.146,41.595 301.897,44.248 301.897,45.886 C301.897,48.655 303.887,49.864 307.163,51.229 C312.428,53.374 315.821,55.363 315.821,59.887 C315.821,63.944 311.96,67.064 307.397,67.064 C302.794,67.064 299.674,64.372 299.168,63.905 C298.855,63.632 298.388,63.28 298.934,62.578" id="Fill-10" fill="#FFFFFF"></path>
        <path d="M335.906,38.983 C339.845,38.983 342.692,40.347 345.344,42.61 C345.656,42.922 345.695,43.39 345.383,43.702 L344.33,44.755 C344.018,45.145 343.706,45.106 343.316,44.716 C341.288,42.961 338.714,41.791 335.867,41.791 C329.705,41.791 324.985,46.978 324.985,53.023 C324.985,59.029 329.705,64.217 335.867,64.217 C339.26,64.217 341.249,63.047 343.316,61.291 C343.706,60.979 344.018,61.018 344.33,61.33 L345.227,62.227 C345.54,62.462 345.461,63.007 345.189,63.28 C342.614,65.62 339.377,67.064 335.906,67.064 C328.105,67.064 321.827,60.863 321.827,53.062 C321.827,45.262 328.105,38.983 335.906,38.983" id="Fill-11" fill="#FFFFFF"></path>
        <path d="M353.416,40.113 C353.416,39.723 353.767,39.373 354.157,39.373 L355.678,39.373 C356.107,39.373 356.419,39.723 356.419,40.113 L356.419,51.502 L372.254,51.502 L372.254,40.113 C372.254,39.723 372.566,39.373 372.995,39.373 L374.516,39.373 C374.906,39.373 375.257,39.723 375.257,40.113 L375.257,65.932 C375.257,66.322 374.906,66.674 374.516,66.674 L372.995,66.674 C372.566,66.674 372.254,66.322 372.254,65.932 L372.254,54.115 L356.419,54.115 L356.419,65.932 C356.419,66.322 356.107,66.674 355.678,66.674 L354.157,66.674 C353.767,66.674 353.416,66.322 353.416,65.932 L353.416,40.113" id="Fill-12" fill="#FFFFFF"></path>
        <path d="M397.37,64.334 C403.571,64.334 408.68,59.263 408.68,53.062 C408.68,46.861 403.571,41.713 397.37,41.713 C391.168,41.713 386.099,46.861 386.099,53.062 C386.099,59.263 391.168,64.334 397.37,64.334 Z M397.37,38.983 C405.17,38.983 411.411,45.262 411.411,53.062 C411.411,60.863 405.17,67.064 397.37,67.064 C389.57,67.064 383.369,60.863 383.369,53.062 C383.369,45.262 389.57,38.983 397.37,38.983 Z" id="Fill-13" fill="#FFFFFF"></path>
        <path d="M431.807,64.334 C438.008,64.334 443.117,59.263 443.117,53.062 C443.117,46.861 438.008,41.713 431.807,41.713 C425.606,41.713 420.536,46.861 420.536,53.062 C420.536,59.263 425.606,64.334 431.807,64.334 Z M431.807,38.983 C439.607,38.983 445.848,45.262 445.848,53.062 C445.848,60.863 439.607,67.064 431.807,67.064 C424.007,67.064 417.805,60.863 417.805,53.062 C417.805,45.262 424.007,38.983 431.807,38.983 Z" id="Fill-14" fill="#FFFFFF"></path>
        <path d="M453.958,40.113 C453.958,39.723 454.27,39.373 454.699,39.373 L456.22,39.373 C456.61,39.373 456.961,39.723 456.961,40.113 L456.961,64.06 L468.193,64.06 C468.623,64.06 468.935,64.411 468.935,64.801 L468.935,65.932 C468.935,66.322 468.623,66.674 468.193,66.674 L454.699,66.674 C454.27,66.674 453.958,66.322 453.958,65.932 L453.958,40.113" id="Fill-15" fill="#FFFFFF"></path>
        <path d="M499.548,64.334 C505.75,64.334 510.859,59.263 510.859,53.062 C510.859,46.861 505.75,41.713 499.548,41.713 C493.347,41.713 488.277,46.861 488.277,53.062 C488.277,59.263 493.347,64.334 499.548,64.334 Z M499.548,38.983 C507.349,38.983 513.589,45.262 513.589,53.062 C513.589,60.863 507.349,67.064 499.548,67.064 C491.749,67.064 485.547,60.863 485.547,53.062 C485.547,45.262 491.749,38.983 499.548,38.983 Z" id="Fill-16" fill="#FFFFFF"></path>
        <path d="M521.7,40.113 C521.7,39.723 522.012,39.373 522.441,39.373 L537.807,39.373 C538.237,39.373 538.548,39.723 538.548,40.113 L538.548,41.245 C538.548,41.634 538.237,41.986 537.807,41.986 L524.703,41.986 L524.703,52.672 L535.896,52.672 C536.287,52.672 536.637,53.023 536.637,53.413 L536.637,54.544 C536.637,54.934 536.287,55.285 535.896,55.285 L524.703,55.285 L524.703,65.932 C524.703,66.322 524.352,66.674 523.961,66.674 L522.441,66.674 C522.012,66.674 521.7,66.322 521.7,65.932 L521.7,40.113" id="Fill-17" fill="#FFFFFF"></path>
        <path d="M566.587,63.983 C572.984,63.983 577.469,59.419 577.469,52.984 C577.469,46.588 572.984,42.025 566.587,42.025 L560.464,42.025 L560.464,63.983 L566.587,63.983 Z M557.501,40.113 C557.501,39.723 557.813,39.373 558.203,39.373 L566.939,39.373 C574.466,39.373 580.628,45.496 580.628,52.984 C580.628,60.551 574.466,66.674 566.939,66.674 L558.203,66.674 C557.813,66.674 557.501,66.322 557.501,65.932 L557.501,40.113 Z" id="Fill-18" fill="#FFFFFF"></path>
        <path d="M588.779,40.113 C588.779,39.723 589.09,39.373 589.52,39.373 L604.886,39.373 C605.315,39.373 605.628,39.723 605.628,40.113 L605.628,41.245 C605.628,41.634 605.315,41.986 604.886,41.986 L591.782,41.986 L591.782,51.502 L602.975,51.502 C603.366,51.502 603.716,51.853 603.716,52.243 L603.716,53.374 C603.716,53.803 603.366,54.115 602.975,54.115 L591.782,54.115 L591.782,64.06 L604.886,64.06 C605.315,64.06 605.628,64.411 605.628,64.801 L605.628,65.932 C605.628,66.322 605.315,66.674 604.886,66.674 L589.52,66.674 C589.09,66.674 588.779,66.322 588.779,65.932 L588.779,40.113" id="Fill-19" fill="#FFFFFF"></path>
        <path d="M611.867,62.578 L612.452,61.838 C612.842,61.33 613.154,61.135 613.7,61.603 C613.973,61.838 616.937,64.45 620.409,64.45 C623.568,64.45 625.634,62.462 625.634,60.004 C625.634,57.313 623.294,55.753 618.809,53.842 C614.519,52.009 611.945,50.371 611.945,45.925 C611.945,43.273 614.051,38.983 620.253,38.983 C624.075,38.983 626.921,40.971 626.921,40.971 C627.156,41.089 627.585,41.556 627.156,42.298 L626.766,42.961 C626.454,43.507 626.025,43.507 625.401,43.155 C623.762,42.18 622.398,41.595 620.213,41.595 C616.08,41.595 614.832,44.248 614.832,45.886 C614.832,48.655 616.821,49.864 620.096,51.229 C625.362,53.374 628.754,55.363 628.754,59.887 C628.754,63.944 624.894,67.064 620.331,67.064 C615.728,67.064 612.608,64.372 612.101,63.905 C611.79,63.632 611.321,63.28 611.867,62.578" id="Fill-20" fill="#FFFFFF"></path>
        <path d="M636.476,40.113 C636.476,39.723 636.827,39.373 637.217,39.373 L638.777,39.373 C639.168,39.373 639.518,39.723 639.518,40.113 L639.518,65.932 C639.518,66.322 639.168,66.674 638.777,66.674 L637.217,66.674 C636.827,66.674 636.476,66.322 636.476,65.932 L636.476,40.113" id="Fill-21" fill="#FFFFFF"></path>
        <path d="M661.709,38.983 C665.648,38.983 668.495,40.347 671.147,42.61 C671.46,42.922 671.499,43.39 671.186,43.702 C670.836,44.052 670.406,44.443 670.094,44.794 C669.743,45.184 669.509,45.145 669.08,44.755 C667.091,43 664.283,41.713 661.669,41.713 C655.507,41.713 650.828,46.861 650.828,52.906 C650.828,58.912 655.507,64.177 661.669,64.177 C665.96,64.177 668.69,62.539 668.69,62.539 L668.69,57.079 L664.205,57.079 C663.776,57.079 663.463,56.767 663.463,56.377 L663.463,54.934 C663.463,54.505 663.776,54.193 664.205,54.193 L670.952,54.193 C671.342,54.193 671.654,54.544 671.654,54.934 L671.654,63.865 C671.654,64.06 671.499,64.372 671.342,64.489 C671.342,64.489 667.364,67.064 661.709,67.064 C653.909,67.064 647.629,60.863 647.629,53.062 C647.629,45.262 653.909,38.983 661.709,38.983" id="Fill-22" fill="#FFFFFF"></path>
        <path d="M680.311,39.684 C680.311,39.295 680.662,38.983 681.052,38.983 L681.637,38.983 C681.91,38.983 682.105,39.06 682.261,39.295 L699.617,60.901 C699.656,60.901 699.656,60.901 699.695,60.901 L699.695,40.113 C699.695,39.723 700.006,39.373 700.436,39.373 L701.801,39.373 C702.191,39.373 702.542,39.723 702.542,40.113 L702.542,66.362 C702.542,66.752 702.191,67.064 701.801,67.064 L701.489,67.064 C701.215,67.064 701.021,66.986 700.865,66.752 L683.197,44.716 L683.158,44.716 L683.158,65.932 C683.158,66.322 682.846,66.674 682.418,66.674 L681.052,66.674 C680.662,66.674 680.311,66.322 680.311,65.932 L680.311,39.684" id="Fill-23" fill="#FFFFFF"></path>
        <path d="M204.817,86.316 C209.064,86.316 212.134,87.662 214.994,90.227 C215.372,90.563 215.372,91.068 215.036,91.404 L212.47,94.053 C212.176,94.39 211.755,94.39 211.419,94.053 C209.653,92.498 207.298,91.573 204.943,91.573 C199.56,91.573 195.565,96.072 195.565,101.371 C195.565,106.628 199.602,111.085 204.985,111.085 C207.508,111.085 209.653,110.118 211.419,108.688 C211.755,108.393 212.218,108.436 212.47,108.688 L215.078,111.38 C215.414,111.673 215.33,112.22 215.036,112.515 C212.176,115.291 208.56,116.594 204.817,116.594 C196.406,116.594 189.635,109.908 189.635,101.497 C189.635,93.087 196.406,86.316 204.817,86.316" id="Fill-24" fill="#FFFFFF"></path>
        <path d="M242.537,106.123 L238.332,96.872 L238.205,96.872 L234.084,106.123 L242.537,106.123 Z M224.37,115.08 L237.448,86.779 C237.575,86.526 237.785,86.316 238.163,86.316 L238.584,86.316 C239.004,86.316 239.172,86.526 239.299,86.779 L252.251,115.08 C252.503,115.627 252.167,116.173 251.536,116.173 L247.877,116.173 C247.247,116.173 246.952,115.922 246.658,115.333 L244.597,110.791 L232.023,110.791 L229.963,115.333 C229.794,115.753 229.416,116.173 228.743,116.173 L225.085,116.173 C224.454,116.173 224.118,115.627 224.37,115.08 Z" id="Fill-25" fill="#FFFFFF"></path>
        <path d="M274.033,100.362 C276.388,100.362 278.196,98.469 278.196,95.988 C278.196,93.675 276.388,91.909 274.033,91.909 L268.987,91.909 L268.987,100.362 L274.033,100.362 Z M263.52,87.536 C263.52,87.115 263.856,86.736 264.319,86.736 L274.201,86.736 C279.374,86.736 283.621,90.942 283.621,96.03 C283.621,101.245 279.374,105.492 274.244,105.492 L268.987,105.492 L268.987,115.375 C268.987,115.795 268.608,116.173 268.188,116.173 L264.319,116.173 C263.856,116.173 263.52,115.795 263.52,115.375 L263.52,87.536 Z" id="Fill-26" fill="#FFFFFF"></path>
        <path d="M295.857,87.536 C295.857,87.115 296.236,86.736 296.656,86.736 L300.567,86.736 C300.988,86.736 301.366,87.115 301.366,87.536 L301.366,115.375 C301.366,115.795 300.988,116.173 300.567,116.173 L296.656,116.173 C296.236,116.173 295.857,115.795 295.857,115.375 L295.857,87.536" id="Fill-27" fill="#FFFFFF"></path>
        <path d="M316.084,87.536 C316.084,87.115 316.42,86.736 316.883,86.736 L320.751,86.736 C321.172,86.736 321.551,87.115 321.551,87.536 L321.551,111.128 L332.274,111.128 C332.737,111.128 333.073,111.506 333.073,111.926 L333.073,115.375 C333.073,115.795 332.737,116.173 332.274,116.173 L316.883,116.173 C316.42,116.173 316.084,115.795 316.084,115.375 L316.084,87.536" id="Fill-28" fill="#FFFFFF"></path>
        <path d="M359.564,106.123 L355.359,96.872 L355.233,96.872 L351.112,106.123 L359.564,106.123 Z M341.397,115.08 L354.476,86.779 C354.602,86.526 354.813,86.316 355.191,86.316 L355.612,86.316 C356.032,86.316 356.2,86.526 356.327,86.779 L369.279,115.08 C369.531,115.627 369.195,116.173 368.564,116.173 L364.905,116.173 C364.274,116.173 363.98,115.922 363.686,115.333 L361.625,110.791 L349.051,110.791 L346.991,115.333 C346.822,115.753 346.444,116.173 345.771,116.173 L342.112,116.173 C341.482,116.173 341.145,115.627 341.397,115.08 Z" id="Fill-29" fill="#FFFFFF"></path>
        <path d="M380.548,87.073 C380.548,86.652 380.926,86.316 381.347,86.316 L381.978,86.316 C382.272,86.316 382.482,86.4 382.692,86.61 L399.85,104.903 L399.934,104.903 L399.934,87.536 C399.934,87.115 400.271,86.736 400.733,86.736 L404.602,86.736 C405.022,86.736 405.401,87.115 405.401,87.536 L405.401,115.837 C405.401,116.257 405.022,116.594 404.602,116.594 L404.013,116.594 C403.719,116.594 403.509,116.51 403.298,116.299 L386.057,97.292 L385.973,97.292 L385.973,115.375 C385.973,115.795 385.636,116.173 385.173,116.173 L381.347,116.173 C380.926,116.173 380.548,115.795 380.548,115.375 L380.548,87.073" id="Fill-30" fill="#FFFFFF"></path>
        <path d="M433.49,111.128 C438.789,111.128 443.163,106.796 443.163,101.497 C443.163,96.199 438.789,91.783 433.49,91.783 C428.192,91.783 423.86,96.199 423.86,101.497 C423.86,106.796 428.192,111.128 433.49,111.128 Z M433.49,86.316 C441.901,86.316 448.629,93.087 448.629,101.497 C448.629,109.908 441.901,116.594 433.49,116.594 C425.08,116.594 418.393,109.908 418.393,101.497 C418.393,93.087 425.08,86.316 433.49,86.316 Z" id="Fill-31" fill="#FFFFFF"></path>
        <path d="M478.989,87.536 C478.989,87.115 479.367,86.736 479.788,86.736 L483.783,86.736 C484.245,86.736 484.582,87.115 484.582,87.536 L484.582,105.072 C484.582,108.646 487.021,111.128 490.679,111.128 C494.338,111.128 496.819,108.646 496.819,105.114 L496.819,87.536 C496.819,87.115 497.156,86.736 497.619,86.736 L501.614,86.736 C502.034,86.736 502.413,87.115 502.413,87.536 L502.413,105.366 C502.413,111.757 497.324,116.594 490.679,116.594 C484.077,116.594 478.989,111.757 478.989,105.366 L478.989,87.536" id="Fill-32" fill="#FFFFFF"></path>
        <path d="M516.835,87.073 C516.835,86.652 517.213,86.316 517.633,86.316 L518.264,86.316 C518.559,86.316 518.769,86.4 518.979,86.61 L536.137,104.903 L536.221,104.903 L536.221,87.536 C536.221,87.115 536.558,86.736 537.02,86.736 L540.889,86.736 C541.31,86.736 541.688,87.115 541.688,87.536 L541.688,115.837 C541.688,116.257 541.31,116.594 540.889,116.594 L540.3,116.594 C540.006,116.594 539.795,116.51 539.586,116.299 L522.344,97.292 L522.259,97.292 L522.259,115.375 C522.259,115.795 521.923,116.173 521.461,116.173 L517.633,116.173 C517.213,116.173 516.835,115.795 516.835,115.375 L516.835,87.073" id="Fill-33" fill="#FFFFFF"></path>
        <path d="M556.404,87.536 C556.404,87.115 556.783,86.736 557.204,86.736 L561.114,86.736 C561.535,86.736 561.913,87.115 561.913,87.536 L561.913,115.375 C561.913,115.795 561.535,116.173 561.114,116.173 L557.204,116.173 C556.783,116.173 556.404,115.795 556.404,115.375 L556.404,87.536" id="Fill-34" fill="#FFFFFF"></path>
        <path d="M573.098,87.83 C572.846,87.283 573.182,86.736 573.813,86.736 L578.102,86.736 C578.481,86.736 578.733,86.989 578.818,87.199 L586.934,105.282 L587.144,105.282 L595.26,87.199 C595.344,86.989 595.596,86.736 595.975,86.736 L600.264,86.736 C600.895,86.736 601.232,87.283 600.979,87.83 L587.943,116.132 C587.817,116.383 587.607,116.594 587.228,116.594 L586.807,116.594 C586.429,116.594 586.219,116.383 586.092,116.132 L573.098,87.83" id="Fill-35" fill="#FFFFFF"></path>
        <path d="M612.164,87.536 C612.164,87.115 612.501,86.736 612.963,86.736 L630.079,86.736 C630.542,86.736 630.878,87.115 630.878,87.536 L630.878,90.984 C630.878,91.404 630.542,91.783 630.079,91.783 L617.63,91.783 L617.63,98.679 L628.018,98.679 C628.438,98.679 628.817,99.058 628.817,99.478 L628.817,102.969 C628.817,103.431 628.438,103.768 628.018,103.768 L617.63,103.768 L617.63,111.128 L630.079,111.128 C630.542,111.128 630.878,111.506 630.878,111.926 L630.878,115.375 C630.878,115.795 630.542,116.173 630.079,116.173 L612.963,116.173 C612.501,116.173 612.164,115.795 612.164,115.375 L612.164,87.536" id="Fill-36" fill="#FFFFFF"></path>
        <path d="M656.319,100.151 C658.547,100.151 660.482,98.217 660.482,95.862 C660.482,93.634 658.547,91.783 656.319,91.783 L649.463,91.783 L649.463,100.151 L656.319,100.151 Z M643.955,87.536 C643.955,87.115 644.292,86.736 644.754,86.736 L656.781,86.736 C661.828,86.736 665.949,90.773 665.949,95.778 C665.949,99.647 663.383,102.8 659.725,104.273 L665.486,114.954 C665.781,115.501 665.486,116.173 664.771,116.173 L660.356,116.173 C659.977,116.173 659.767,115.964 659.683,115.795 L654.089,104.651 L649.421,104.651 L649.421,115.375 C649.421,115.795 649.044,116.173 648.623,116.173 L644.754,116.173 C644.292,116.173 643.955,115.795 643.955,115.375 L643.955,87.536 Z" id="Fill-37" fill="#FFFFFF"></path>
        <path d="M678.059,113.314 C677.638,112.977 677.47,112.725 677.848,112.052 L679.362,109.445 C679.699,108.856 680.414,108.856 680.793,109.151 C682.516,110.454 684.409,111.757 687.142,111.757 C689.329,111.757 690.969,110.328 690.969,108.52 C690.969,106.375 689.161,104.903 685.628,103.473 C681.675,101.876 677.722,99.352 677.722,94.39 C677.722,90.647 680.498,86.316 687.184,86.316 C691.473,86.316 694.753,88.503 695.595,89.134 C696.015,89.385 696.141,90.1 695.847,90.521 L694.25,92.919 C693.913,93.423 693.282,93.759 692.777,93.423 C690.969,92.288 689.245,91.11 686.932,91.11 C684.535,91.11 683.231,92.456 683.231,94.053 C683.231,96.03 684.788,97.376 688.194,98.763 C692.273,100.404 696.983,102.842 696.983,108.267 C696.983,112.599 693.24,116.594 687.31,116.594 C682.011,116.594 679.278,114.365 678.059,113.314" id="Fill-38" fill="#FFFFFF"></path>
        <path d="M709.765,87.536 C709.765,87.115 710.144,86.736 710.565,86.736 L714.475,86.736 C714.896,86.736 715.274,87.115 715.274,87.536 L715.274,115.375 C715.274,115.795 714.896,116.173 714.475,116.173 L710.565,116.173 C710.144,116.173 709.765,115.795 709.765,115.375 L709.765,87.536" id="Fill-39" fill="#FFFFFF"></path>
        <path d="M734.744,91.783 L728.31,91.783 C727.847,91.783 727.511,91.404 727.511,90.984 L727.511,87.536 C727.511,87.115 727.847,86.736 728.31,86.736 L746.687,86.736 C747.15,86.736 747.486,87.115 747.486,87.536 L747.486,90.984 C747.486,91.404 747.15,91.783 746.687,91.783 L740.253,91.783 L740.253,115.375 C740.253,115.795 739.875,116.173 739.454,116.173 L735.544,116.173 C735.123,116.173 734.744,115.795 734.744,115.375 L734.744,91.783" id="Fill-40" fill="#FFFFFF"></path>
        <path d="M765.862,102.002 L756.274,87.956 C755.938,87.409 756.274,86.736 756.947,86.736 L761.237,86.736 C761.573,86.736 761.783,86.947 761.91,87.115 L768.638,96.787 L775.367,87.115 C775.493,86.947 775.703,86.736 776.04,86.736 L780.371,86.736 C781.044,86.736 781.379,87.409 781.044,87.956 L771.33,101.96 L771.33,115.375 C771.33,115.795 770.951,116.173 770.53,116.173 L766.662,116.173 C766.199,116.173 765.862,115.795 765.862,115.375 L765.862,102.002" id="Fill-42" fill="#FFFFFF"></path>
    </g>
</svg>