<?xml version="1.0" encoding="UTF-8"?>
<svg width="253px" height="46px" viewBox="0 0 253 46" version="1.1" xmlns="http://www.w3.org/2000/svg" xmlns:xlink="http://www.w3.org/1999/xlink">
    <!-- Generator: Sketch 49.3 (51167) - http://www.bohemiancoding.com/sketch -->
    <title>dialog</title>
    <desc>Created with Sketch.</desc>
    <defs></defs>
    <g id="dialog" stroke="none" stroke-width="1" fill="none" fill-rule="evenodd">
        <path d="M55.497,0.61 L49.345,0.61 C47.973,0.61 47.842,0.89 47.842,2.371 L47.842,44.24 C47.842,45.721 47.973,46 49.345,46 L55.497,46 C56.871,46 57.001,45.721 57.001,44.24 L57.001,2.371 C57.001,0.89 56.871,0.61 55.497,0.61" id="Fill-1" fill="#FFFFFF"></path>
        <path d="M182.922,31.461 C182.922,35.912 180.625,38.137 176.047,38.137 L168.306,38.137 C163.729,38.137 161.44,35.912 161.44,31.461 L161.44,15.443 C161.44,10.995 163.729,8.771 168.306,8.771 L176.047,8.771 C180.625,8.771 182.922,10.995 182.922,15.443 L182.922,31.461 Z M176.047,0.61 L168.306,0.61 C157.627,0.61 151.977,3.917 151.977,15.614 L151.977,30.994 C151.977,42.693 157.627,46 168.306,46 L176.047,46 C186.733,46 192.377,42.693 192.377,30.994 L192.377,15.614 C192.377,3.917 186.733,0.61 176.047,0.61 Z" id="Fill-2" fill="#FFFFFF"></path>
        <path d="M145.69,38.137 L126.393,38.137 L126.393,2.363 C126.393,0.878 126.266,0.61 124.891,0.61 L118.745,0.61 C117.368,0.61 117.234,0.878 117.234,2.363 L117.234,44.25 C117.234,45.622 117.336,46 118.776,46 L145.708,46 C147.247,46 147.439,45.701 147.439,44.219 L147.439,39.916 C147.439,38.434 147.217,38.137 145.69,38.137" id="Fill-3" fill="#FFFFFF"></path>
        <path d="M79.873,28.942 L86.985,9.918 L94.119,28.942 L79.873,28.942 Z M93.093,2.376 C92.607,1.135 92.344,0.61 90.424,0.61 L83.252,0.61 C81.865,0.61 81.501,1.104 81.005,2.358 L64.217,44.301 C63.78,45.33 63.824,46 65.121,46 L71.989,46 C73.514,46 73.732,45.376 74.151,44.24 L77.044,36.509 L96.968,36.509 L99.899,44.242 C100.399,45.615 100.617,46 102.777,46 L108.913,46 C110.074,46 110.467,45.535 109.912,44.24 L93.093,2.376 Z" id="Fill-4" fill="#FFFFFF"></path>
        <path d="M25.27,0.779 C25.27,0.779 8.383,0.547 4.626,0.94 C1.115,1.309 0,3.3 0,7.073 L0,29.031 L8.712,20.828 L8.712,12.416 C8.712,9.668 9.719,8.801 12.656,8.737 C15.589,8.674 19.599,8.579 22.787,8.733 C27.966,8.982 29.221,10.847 29.221,15.297 L29.221,31.613 C29.221,36.059 27.388,38.285 22.352,38.285 L12.656,38.285 C8.99,38.285 8.712,37.247 8.712,34.135 L8.712,31.998 L0,31.998 L0,46 L22.436,46 C33.427,46 38.921,42.527 38.921,30.994 L38.921,15.614 C38.921,5.309 34.294,1.068 25.27,0.779" id="Fill-6" fill="#FFFFFF"></path>
        <path d="M231.112,34.135 C231.112,37.247 230.831,38.285 227.168,38.285 L217.472,38.285 C212.436,38.285 210.604,36.059 210.604,31.613 L210.604,15.297 C210.604,10.847 212.293,8.898 217.472,8.624 C220.233,8.475 224.235,8.674 227.168,8.737 C230.102,8.801 231.112,9.668 231.112,12.416 L231.112,14.622 L239.825,14.622 L239.825,7.073 C239.825,3.3 238.723,1.152 235.195,0.94 C232.877,0.798 214.553,0.779 214.553,0.779 C205.531,1.068 200.901,5.309 200.901,15.614 L200.901,30.994 C200.901,42.527 206.393,46 217.387,46 L239.825,46 L239.825,17.712 L231.112,25.713 L231.112,34.135" id="Fill-8" fill="#FFFFFF"></path>
        <path d="M249.966,7.104 C249.966,6.82 249.89,6.611 249.731,6.478 C249.572,6.344 249.301,6.277 248.916,6.277 L247.537,6.277 L247.537,7.93 L249.042,7.93 C249.359,7.93 249.592,7.852 249.744,7.693 C249.894,7.534 249.966,7.338 249.966,7.104 Z M250.719,7.079 C250.719,7.413 250.627,7.709 250.444,7.968 C250.261,8.228 250.001,8.398 249.667,8.482 L250.894,10.611 L250.019,10.611 L248.916,8.532 L247.537,8.532 L247.537,10.611 L246.762,10.611 L246.762,5.601 L248.891,5.601 C249.576,5.601 250.053,5.739 250.318,6.014 C250.586,6.289 250.719,6.645 250.719,7.079 Z M244.807,8.207 C244.807,8.725 244.908,9.209 245.106,9.66 C245.309,10.11 245.58,10.507 245.922,10.849 C246.265,11.192 246.664,11.463 247.125,11.664 C247.584,11.864 248.071,11.964 248.588,11.964 C249.091,11.964 249.568,11.864 250.019,11.664 C250.468,11.463 250.866,11.192 251.208,10.849 C251.549,10.507 251.819,10.11 252.01,9.66 C252.202,9.209 252.3,8.725 252.3,8.207 C252.3,7.689 252.202,7.2 252.01,6.741 C251.819,6.281 251.549,5.88 251.208,5.538 C250.866,5.196 250.468,4.928 250.019,4.737 C249.568,4.545 249.091,4.448 248.588,4.448 C248.071,4.448 247.584,4.545 247.125,4.737 C246.664,4.928 246.265,5.196 245.922,5.538 C245.58,5.88 245.309,6.281 245.106,6.741 C244.908,7.2 244.807,7.689 244.807,8.207 Z M244.256,8.207 C244.256,7.606 244.369,7.042 244.592,6.515 C244.821,5.99 245.128,5.525 245.523,5.125 C245.914,4.724 246.369,4.411 246.886,4.185 C247.405,3.96 247.964,3.847 248.565,3.847 C249.167,3.847 249.727,3.96 250.245,4.185 C250.762,4.411 251.217,4.724 251.611,5.125 C252.002,5.525 252.311,5.99 252.536,6.515 C252.761,7.042 252.875,7.606 252.875,8.207 C252.875,8.807 252.761,9.371 252.536,9.897 C252.311,10.424 252.002,10.882 251.611,11.275 C251.217,11.668 250.762,11.976 250.245,12.202 C249.727,12.428 249.167,12.54 248.565,12.54 C247.964,12.54 247.405,12.428 246.886,12.202 C246.369,11.976 245.914,11.668 245.523,11.275 C245.128,10.882 244.821,10.424 244.592,9.897 C244.369,9.371 244.256,8.807 244.256,8.207 Z" id="Fill-9" fill="#FFFFFF"></path>
    </g>
</svg>