<?xml version="1.0" encoding="UTF-8"?>
<svg width="305px" height="48px" viewBox="0 0 305 48" version="1.1" xmlns="http://www.w3.org/2000/svg" xmlns:xlink="http://www.w3.org/1999/xlink">
    <!-- Generator: Sketch 49.3 (51167) - http://www.bohemiancoding.com/sketch -->
    <title>ecu</title>
    <desc>Created with Sketch.</desc>
    <defs></defs>
    <g id="ecu" stroke="none" stroke-width="1" fill="none" fill-rule="evenodd">
        <polygon id="Fill-1" fill="#FFFFFF" points="0.9375 22.3872 0.9375 1.4462 16.2495 1.4462 16.2495 5.7352 6.1645 5.7352 6.1645 9.7552 14.2725 9.7552 14.2725 14.0112 6.1645 14.0112 6.1645 18.0982 16.2495 18.0982 16.2495 22.3872"></polygon>
        <polygon id="Fill-2" fill="#FFFFFF" points="39.8397 6.2369 35.2487 22.0519 29.5537 22.0519 24.9627 6.2709 24.8287 22.3869 19.8697 22.3869 20.6067 1.4459 28.1457 1.4459 32.5017 17.1599 36.8577 1.4459 44.2957 1.4459 44.9997 22.3869 39.9407 22.3869"></polygon>
        <polygon id="Fill-3" fill="#FFFFFF" points="49.106 22.3875 54.434 22.3875 54.434 1.4465 49.106 1.4465"></polygon>
        <polygon id="Fill-4" fill="#FFFFFF" points="58.8243 22.3872 58.8243 1.4462 64.1513 1.4462 64.1513 17.9302 72.9303 17.9302 72.9303 22.3872"></polygon>
        <polygon id="Fill-5" fill="#FFFFFF" points="81.9107 14.4463 81.9107 22.3873 76.6837 22.3873 76.6837 14.4133 69.3797 1.4463 75.0417 1.4463 79.3647 9.7223 83.5527 1.4463 89.1817 1.4463"></polygon>
        <path d="M112.1817,6.9726 C110.6067,6.0346 108.7637,5.4646 106.8877,5.4646 C103.2687,5.4646 100.9227,7.9116 100.9227,11.8656 C100.9227,15.8526 103.1347,18.3656 106.9207,18.3656 C108.9647,18.3656 110.8747,17.6956 112.4497,16.6576 L113.5557,21.3826 C111.9137,22.2866 109.1327,22.8896 106.6867,22.8896 C99.9847,22.8896 95.5607,19.0366 95.5607,11.9996 C95.5607,5.2306 99.9507,0.9416 106.8537,0.9416 C109.4007,0.9416 111.8807,1.5776 113.7897,2.5166 L112.1817,6.9726 Z" id="Fill-6" fill="#FFFFFF"></path>
        <path d="M125.7211,5.5653 L122.9401,13.7753 L128.4021,13.7753 L125.7211,5.5653 Z M136.4111,22.3873 L131.1161,22.3873 L129.5751,17.9303 L121.8001,17.9303 L120.2931,22.3873 L114.9981,22.3873 L122.4371,1.4443 L129.1051,1.4443 L136.4111,22.3873 Z" id="Fill-8" fill="#FFFFFF"></path>
        <path d="M146.3981,11.5303 C148.6771,11.3623 149.9171,10.4243 149.9171,8.4143 C149.9171,6.5703 148.6431,5.6663 145.9621,5.6663 L143.7171,5.6663 L143.7171,11.5963 L146.3981,11.5303 Z M143.8181,22.3873 L138.4901,22.3873 L138.4901,1.4443 L146.9011,1.4443 C152.4631,1.4443 155.3791,4.0243 155.3791,8.0793 C155.3791,10.8933 153.9041,13.0383 151.0901,14.1103 L156.4511,22.3873 L150.4531,22.3873 L146.2641,15.3493 L143.8181,15.5513 L143.8181,22.3873 Z" id="Fill-10" fill="#FFFFFF"></path>
        <path d="M166.5045,11.5303 C168.7835,11.3623 170.0235,10.4243 170.0235,8.4143 C170.0235,6.5703 168.7495,5.6663 166.0685,5.6663 L163.8235,5.6663 L163.8235,11.5963 L166.5045,11.5303 Z M163.9245,22.3873 L158.5965,22.3873 L158.5965,1.4443 L167.0065,1.4443 C172.5695,1.4443 175.4855,4.0243 175.4855,8.0793 C175.4855,10.8933 174.0105,13.0383 171.1965,14.1103 L176.5575,22.3873 L170.5595,22.3873 L166.3705,15.3493 L163.9245,15.5513 L163.9245,22.3873 Z" id="Fill-12" fill="#FFFFFF"></path>
        <path d="M7.2141,47.4855 C3.1931,47.4855 0.9411,44.9655 0.9411,40.9975 L0.9411,30.3825 L2.6031,30.3825 L2.6031,40.7835 C2.6031,43.9745 4.1851,45.9035 7.2951,45.9035 C10.2701,45.9035 11.8791,44.1075 11.8791,40.7565 L11.8791,30.3825 L13.5681,30.3825 L13.5681,40.7305 C13.5681,44.8855 11.3961,47.4855 7.2141,47.4855" id="Fill-14" fill="#FFFFFF"></path>
        <polygon id="Fill-16" fill="#FFFFFF" points="29.4616 30.3821 31.1236 30.3821 31.1236 47.2981 29.2746 47.2981 19.6766 32.7951 19.6766 47.1371 18.0146 47.1371 18.0146 30.3821 19.9456 30.3821 29.4616 44.7511"></polygon>
        <polygon id="Fill-18" fill="#FFFFFF" points="36.027 47.1375 37.716 47.1375 37.716 30.3825 36.027 30.3825"></polygon>
        <polygon id="Fill-20" fill="#FFFFFF" points="49.1083 47.1369 47.0973 47.1369 40.9583 30.3819 42.7013 30.3819 48.1433 45.3679 53.5583 30.3819 55.3003 30.3819"></polygon>
        <polygon id="Fill-21" fill="#FFFFFF" points="58.3543 47.1369 58.3543 30.3819 68.4873 30.3819 68.4873 31.9639 60.0703 31.9639 60.0703 37.9689 67.0933 37.9689 67.0933 39.5229 60.0703 39.5229 60.0703 45.5549 68.4873 45.5549 68.4873 47.1369"></polygon>
        <path d="M76.983,38.7996 C79.208,38.7196 81.138,37.4866 81.138,35.2876 C81.138,33.0896 79.503,31.9366 76.581,31.9366 L73.98,31.9366 L73.98,38.9066 L76.983,38.7996 Z M73.98,47.1366 L72.265,47.1366 L72.265,30.3826 L76.769,30.3826 C80.897,30.3826 82.854,32.2856 82.854,35.2066 C82.854,37.7276 81.138,39.2556 78.967,39.9256 L83.605,47.1366 L81.621,47.1366 L77.332,40.2206 L73.98,40.4356 L73.98,47.1366 Z" id="Fill-22" fill="#FFFFFF"></path>
        <path d="M95.2904,42.7944 C95.2904,40.8374 93.6814,40.0594 91.0544,39.2824 C88.6954,38.5844 86.1754,37.5664 86.1754,34.5904 C86.1754,31.9364 88.4274,30.0334 91.5374,30.0334 C93.4674,30.0334 95.1564,30.5694 96.5774,31.4804 L95.9604,32.9824 C94.7004,32.1244 93.0654,31.5884 91.5644,31.5884 C89.0444,31.5884 87.8374,32.9284 87.8374,34.4574 C87.8374,36.3064 89.4994,37.0034 92.0734,37.8074 C94.4864,38.5324 96.9254,39.6304 96.9254,42.6594 C96.9254,45.4214 94.6204,47.4854 91.2694,47.4854 C89.2584,47.4854 87.4084,46.8954 85.8804,45.9314 L86.4974,44.4024 C87.8374,45.3134 89.4194,45.9574 91.3224,45.9574 C93.6544,45.9574 95.2904,44.5634 95.2904,42.7944" id="Fill-23" fill="#FFFFFF"></path>
        <polygon id="Fill-24" fill="#FFFFFF" points="100.837 47.1375 102.526 47.1375 102.526 30.3825 100.837 30.3825"></polygon>
        <polygon id="Fill-25" fill="#FFFFFF" points="113.1945 31.9904 113.1945 47.1364 111.4785 47.1364 111.4785 31.9904 105.5815 31.9904 105.5815 30.3824 119.0925 30.3824 119.0925 31.9904"></polygon>
        <polygon id="Fill-26" fill="#FFFFFF" points="128.3381 40.4079 128.3381 47.1369 126.6221 47.1369 126.6221 40.4079 120.7781 30.3819 122.7081 30.3819 127.5341 38.7199 132.2791 30.3819 134.1821 30.3819"></polygon>
        <path d="M165.9735,32.0717 L162.7565,40.7857 L169.1635,40.7857 L165.9735,32.0717 Z M173.2655,47.1387 L171.5235,47.1387 L169.7535,42.3397 L162.1665,42.3397 L160.3965,47.1387 L158.6545,47.1387 L165.0085,30.3837 L167.0185,30.3837 L173.2655,47.1387 Z" id="Fill-27" fill="#FFFFFF"></path>
        <path d="M180.7965,38.8011 C183.0215,38.7211 184.9515,37.4881 184.9515,35.2891 C184.9515,33.0911 183.3165,31.9381 180.3945,31.9381 L177.7945,31.9381 L177.7945,38.9081 L180.7965,38.8011 Z M177.7945,47.1391 L176.0785,47.1391 L176.0785,30.3831 L180.5825,30.3831 C184.7105,30.3831 186.6675,32.2861 186.6675,35.2081 C186.6675,37.7291 184.9515,39.2571 182.7805,39.9271 L187.4185,47.1391 L185.4345,47.1391 L181.1455,40.2221 L177.7945,40.4371 L177.7945,47.1391 Z" id="Fill-28" fill="#FFFFFF"></path>
        <polygon id="Fill-29" fill="#FFFFFF" points="196.0483 31.9916 196.0483 47.1386 194.3323 47.1386 194.3323 31.9916 188.4343 31.9916 188.4343 30.3836 201.9463 30.3836 201.9463 31.9916"></polygon>
        <polygon id="Fill-30" fill="#FFFFFF" points="211.0583 41.5891 211.0583 46.3881 209.5843 46.3881 209.5843 41.5891 204.8653 41.5891 204.9463 40.1141 209.5843 40.1141 209.5843 35.3431 211.0583 35.3431 211.0583 40.1141 215.6423 40.1141 215.7233 41.5891"></polygon>
        <path d="M227.8116,31.9652 L225.0766,31.9652 L225.0766,45.5572 L227.8656,45.5572 C232.1546,45.5572 235.0776,43.3582 235.0776,38.7742 C235.0776,34.5122 232.3956,31.9652 227.8116,31.9652 M227.7846,47.1392 L223.3606,47.1392 L223.3606,30.3832 L227.9186,30.3832 C233.4146,30.3832 236.7926,33.7072 236.7926,38.6402 C236.7926,43.9222 233.4956,47.1392 227.7846,47.1392" id="Fill-31" fill="#FFFFFF"></path>
        <polygon id="Fill-32" fill="#FFFFFF" points="240.0873 47.1388 240.0873 30.3828 250.2213 30.3828 250.2213 31.9648 241.8033 31.9648 241.8033 37.9698 248.8273 37.9698 248.8273 39.5248 241.8033 39.5248 241.8033 45.5568 250.2213 45.5568 250.2213 47.1388"></polygon>
        <path d="M262.256,42.7961 C262.256,40.8391 260.647,40.0611 258.02,39.2831 C255.661,38.5861 253.141,37.5681 253.141,34.5921 C253.141,31.9381 255.393,30.0341 258.503,30.0341 C260.433,30.0341 262.122,30.5711 263.543,31.4821 L262.926,32.9841 C261.666,32.1251 260.03,31.5891 258.529,31.5891 C256.01,31.5891 254.803,32.9301 254.803,34.4581 C254.803,36.3081 256.465,37.0051 259.039,37.8091 C261.452,38.5331 263.891,39.6321 263.891,42.6611 C263.891,45.4231 261.586,47.4871 258.235,47.4871 C256.224,47.4871 254.374,46.8981 252.846,45.9331 L253.462,44.4041 C254.803,45.3161 256.385,45.9591 258.288,45.9591 C260.62,45.9591 262.256,44.5651 262.256,42.7961" id="Fill-33" fill="#FFFFFF"></path>
        <polygon id="Fill-34" fill="#FFFFFF" points="267.803 47.1395 269.492 47.1395 269.492 30.3835 267.803 30.3835"></polygon>
        <path d="M281.2332,47.4875 C276.3812,47.4875 273.1372,44.1095 273.1372,38.8015 C273.1372,33.4665 276.5422,30.0345 281.2332,30.0345 C283.2972,30.0345 285.3082,30.6785 286.5422,31.4285 L285.9792,32.9835 C284.7182,32.1795 282.9492,31.5895 281.2062,31.5895 C277.5602,31.5895 274.8802,34.1895 274.8802,38.7475 C274.8802,43.1715 277.4262,45.9325 281.2602,45.9325 C282.8422,45.9325 284.2092,45.5035 285.2812,44.9135 L285.2812,40.3555 L280.4292,40.3555 L280.4292,38.8015 L286.9432,38.8015 L286.9432,45.8255 C285.3082,46.9245 283.1372,47.4875 281.2332,47.4875" id="Fill-35" fill="#FFFFFF"></path>
        <polygon id="Fill-36" fill="#FFFFFF" points="302.4366 30.3832 304.0996 30.3832 304.0996 47.3002 302.2496 47.3002 292.6516 32.7962 292.6516 47.1392 290.9886 47.1392 290.9886 30.3832 292.9196 30.3832 302.4366 44.7532"></polygon>
        <path d="M142.7848,35.8978 C141.0028,35.8978 139.7568,37.2238 139.7568,39.2338 C139.7568,41.2958 141.0028,42.6358 142.8378,42.6358 C144.6198,42.6358 145.8798,41.2958 145.8798,39.2868 C145.8798,37.2238 144.6198,35.8978 142.7848,35.8978 M142.8108,43.6548 C140.3598,43.6548 138.6048,41.9398 138.6048,39.2868 C138.6048,36.7818 140.3468,34.8788 142.8108,34.8788 C145.2628,34.8788 147.0178,36.5808 147.0178,39.2338 C147.0178,41.7388 145.2768,43.6548 142.8108,43.6548" id="Fill-37" fill="#FFFFFF"></path>
        <polygon id="Fill-38" fill="#FFFFFF" points="148.8389 35.0804 154.0099 35.0804 154.0099 36.1514 149.9779 36.1514 149.9779 38.8714 153.3139 38.8714 153.3139 39.9304 149.9779 39.9304 149.9779 43.4534 148.8389 43.4534"></polygon>
    </g>
</svg>