<?xml version="1.0" encoding="UTF-8"?>
<svg width="179px" height="68px" viewBox="0 0 179 68" version="1.1" xmlns="http://www.w3.org/2000/svg" xmlns:xlink="http://www.w3.org/1999/xlink">
    <!-- Generator: Sketch 49.3 (51167) - http://www.bohemiancoding.com/sketch -->
    <title>hcma</title>
    <desc>Created with Sketch.</desc>
    <defs></defs>
    <g id="hcma" stroke="none" stroke-width="1" fill="none" fill-rule="evenodd">
        <path d="M115.57,20.6 L101.79,0.45 L92,0.45 L92,38.78 L101.82,37.4 L101.82,15.32 L115.63,35.47 L129.56,15.11 L129.56,33.5 L139.41,32.11 L139.41,0.45 L129.41,0.45 L115.57,20.6 Z M166.9,0.45 L156.82,0.45 L143.6,31.52 L153.92,30.07 L161.71,11.07 L168.77,28 L178.06,26.69 L166.9,0.45 Z M67.62,11.15 C72.5490648,11.2077773 77.0150098,14.067379 79.13,18.52 L87.49,12.39 C83.5222597,5.10092951 75.9186031,0.531847472 67.62,0.45 L67.51,0.45 C54.81,0.51 44.51,11.45 44.51,24.83 L44.51,24.94 C44.4741381,32.378216 47.7775048,39.4400799 53.51,44.18 L86,39.62 C86.5448706,38.867601 87.0489302,38.0864756 87.51,37.28 L79.14,31.15 C77.0255943,35.5971526 72.5638794,38.4526501 67.64,38.51 C60.48,38.51 54.64,32.38 54.64,24.83 C54.64,17.28 60.46,11.15 67.62,11.15 Z M30.18,20.15 L9.94,20.15 L9.94,0.45 L0.07,0.45 L0.07,47.45 L9.94,47.45 L9.94,29.15 L30.18,29.15 L30.18,47.47 L40.05,46.08 L40.05,0.45 L30.18,0.45 L30.18,20.15 Z" id="Shape" fill="#FFFFFF" fill-rule="nonzero"></path>
        <path d="M121,55.31 L120.55,53.78 L117.61,53.78 L117.15,55.31 L115.57,55.31 L118.23,47.48 L119.89,47.48 L122.57,55.31 L121,55.31 Z M119.08,48.88 L118,52.49 L120.17,52.49 L119.08,48.88 Z" id="Shape" fill="#FFFFFF" fill-rule="nonzero"></path>
        <path d="M124.81,49.76 L124.81,50.55 C125.142791,49.9531798 125.787865,49.5995546 126.47,49.64 L126.58,49.64 L126.58,51 C125.862041,50.9209898 125.17933,51.3297988 124.91,52 C124.826968,52.295793 124.793183,52.6032347 124.81,52.91 L124.81,55.28 L123.53,55.28 L123.53,49.76 L124.81,49.76 Z" id="Shape" fill="#FFFFFF" fill-rule="nonzero"></path>
        <path d="M132.47,53.75 C132.099327,54.7940047 131.107824,55.4884583 130,55.48 C129.2392,55.4761072 128.513749,55.1583374 127.99504,54.6017659 C127.47633,54.0451943 127.210372,53.2991894 127.26,52.54 C127.222015,51.7828002 127.491612,51.0423802 128.00757,50.4868784 C128.523527,49.9313767 129.24206,49.6079342 130,49.59 C131.041957,49.5879704 131.983678,50.2105307 132.39,51.17 L131.2,51.73 C131.04432,51.1597629 130.52099,50.7682954 129.93,50.78 C129.03,50.78 128.57,51.58 128.57,52.5 C128.57,53.42 129.07,54.24 129.97,54.24 C130.607959,54.2113854 131.152092,53.7687691 131.31,53.15 L132.47,53.75 Z" id="Shape" fill="#FFFFFF" fill-rule="nonzero"></path>
        <path d="M137.16,55.31 L137.16,52.06 C137.16,51.25 136.76,50.86 136.16,50.86 C135.79146,50.8546092 135.436294,50.9979439 135.17473,51.2576263 C134.913166,51.5173086 134.76727,51.8714308 134.77,52.24 L134.77,55.31 L133.4,55.31 L133.4,47.48 L134.73,47.48 L134.73,50.33 C135.187381,49.8540909 135.819943,49.5866079 136.48,49.59 C137.02691,49.5288202 137.571947,49.7197815 137.961083,50.108917 C138.350219,50.4980526 138.54118,51.0430905 138.48,51.59 L138.48,55.34 L137.16,55.31 Z" id="Shape" fill="#FFFFFF" fill-rule="nonzero"></path>
        <path d="M139.72,48.9 L139.72,47.55 L141,47.55 L141,48.9 L139.72,48.9 Z M139.72,55.31 L139.72,49.76 L141,49.76 L141,55.31 L139.72,55.31 Z" id="Shape" fill="#FFFFFF" fill-rule="nonzero"></path>
        <path d="M142.15,49.76 L143,49.76 L143,47.76 L144.33,47.76 L144.33,49.76 L145.52,49.76 L145.52,50.76 L144.33,50.76 L144.33,53.51 C144.307231,53.7156136 144.352925,53.9229961 144.46,54.1 C144.602371,54.2110308 144.779619,54.2677503 144.96,54.26 C145.148318,54.2609041 145.336148,54.2407794 145.52,54.2 L145.52,55.32 C145.189522,55.3760189 144.85517,55.4061106 144.52,55.41 C143.33,55.41 142.96,54.97 142.96,54.06 L142.96,50.76 L142.15,50.76 L142.15,49.76 Z" id="Shape" fill="#FFFFFF" fill-rule="nonzero"></path>
        <path d="M147.59,52.8 C147.653842,53.6048841 148.343339,54.2148244 149.15,54.18 C149.741716,54.2135468 150.303504,53.9172613 150.61,53.41 L151.74,54.07 C151.125444,54.9748852 150.093538,55.5059022 149,55.48 C148.207984,55.5121665 147.440607,55.201011 146.894657,54.6263262 C146.348706,54.0516414 146.077286,53.2693271 146.15,52.48 C146.087186,51.7030487 146.365753,50.9372475 146.913078,50.3822399 C147.460404,49.8272324 148.222249,49.5380199 149,49.59 C151.13,49.59 151.74,51.29 151.74,52.8 L147.59,52.8 Z M150.23,51.8 C150.197635,51.1490204 149.651559,50.6429014 149,50.66 C148.313959,50.6442363 147.726877,51.1492996 147.64,51.83 L150.23,51.8 Z" id="Shape" fill="#FFFFFF" fill-rule="nonzero"></path>
        <path d="M157.78,53.75 C157.408376,54.8065502 156.399732,55.5045319 155.28,55.48 C154.517459,55.4788606 153.789368,55.1622917 153.268465,54.6053988 C152.747561,54.0485059 152.480268,53.3009183 152.53,52.54 C152.491628,51.7707946 152.770653,51.0195531 153.301847,50.4618946 C153.83304,49.9042361 154.569839,49.5890435 155.34,49.59 C156.381957,49.5879704 157.323678,50.2105307 157.73,51.17 L156.54,51.73 C156.391558,51.1591657 155.869645,50.7656594 155.28,50.78 C154.38,50.78 153.91,51.58 153.91,52.5 C153.91,53.42 154.41,54.24 155.31,54.24 C155.947959,54.2113854 156.492092,53.7687691 156.65,53.15 L157.78,53.75 Z" id="Shape" fill="#FFFFFF" fill-rule="nonzero"></path>
        <path d="M158.28,49.76 L159.08,49.76 L159.08,47.76 L160.42,47.76 L160.42,49.76 L161.61,49.76 L161.61,50.76 L160.42,50.76 L160.42,53.51 C160.397231,53.7156136 160.442925,53.9229961 160.55,54.1 C160.692371,54.2110308 160.869619,54.2677503 161.05,54.26 C161.238318,54.2609041 161.426148,54.2407794 161.61,54.2 L161.61,55.32 C161.279522,55.3760189 160.94517,55.4061106 160.61,55.41 C159.42,55.41 159.04,54.97 159.04,54.06 L159.04,50.76 L158.24,50.76 L158.28,49.76 Z" id="Shape" fill="#FFFFFF" fill-rule="nonzero"></path>
        <path d="M166.41,55.31 L166.41,54.75 C165.923256,55.2075751 165.277999,55.4585084 164.61,55.45 C163.98303,55.5053568 163.373827,55.2236002 163.01,54.71 C162.755729,54.2678216 162.643986,53.7579944 162.69,53.25 L162.69,49.76 L164,49.76 L164,53 C164,53.53 164.13,54.23 165.09,54.23 C165.535071,54.2417441 165.948861,54.001978 166.16,53.61 C166.333281,53.1890972 166.408514,52.7342824 166.38,52.28 L166.38,49.76 L167.71,49.76 L167.71,55.31 L166.41,55.31 Z" id="Shape" fill="#FFFFFF" fill-rule="nonzero"></path>
        <path d="M170.18,49.76 L170.18,50.55 C170.507629,49.9529947 171.150265,49.5985712 171.83,49.64 L172,49.64 L172,51 C171.282041,50.9209898 170.59933,51.3297988 170.33,52 C170.246968,52.295793 170.213183,52.6032347 170.23,52.91 L170.23,55.28 L168.94,55.28 L168.94,49.76 L170.18,49.76 Z" id="Shape" fill="#FFFFFF" fill-rule="nonzero"></path>
        <path d="M173.91,52.8 C173.978919,53.6064231 174.671399,54.2150997 175.48,54.18 C176.068214,54.2097721 176.625226,53.9139795 176.93,53.41 L178.06,54.07 C177.453256,54.962881 176.439455,55.4923108 175.36,55.48 C174.567242,55.5118074 173.799137,55.2009192 173.251681,54.6266646 C172.704224,54.0524099 172.430371,53.2703344 172.5,52.48 C172.436302,51.711552 172.705433,50.9527164 173.239074,50.3961227 C173.772716,49.839529 174.519552,49.5386997 175.29,49.57 C177.41,49.57 178.02,51.27 178.02,52.78 L173.91,52.8 Z M176.56,51.8 C176.549565,51.4790285 176.411962,51.1753708 176.177502,50.9559165 C175.943042,50.7364621 175.63096,50.6192142 175.31,50.63 C174.629221,50.6323388 174.061885,51.1520355 174,51.83 L176.56,51.8 Z" id="Shape" fill="#FFFFFF" fill-rule="nonzero"></path>
        <polygon id="Shape" fill="#FFFFFF" fill-rule="nonzero" points="141.95 61.61 139.69 61.61 139.69 59.28 138.25 59.28 138.25 61.61 136 61.61 136 62.9 138.25 62.9 138.25 65.23 139.69 65.23 139.69 62.9 141.95 62.9"></polygon>
        <path d="M147.4,58.2 C149.26,58.2 150.99,59.38 150.99,62.2 C150.99,64.71 149.62,66.05 147.31,66.05 L144.31,66.05 L144.31,58.2 L147.4,58.2 Z M145.81,64.72 L146.72,64.72 C148.42,64.72 149.43,64.4 149.43,62.19 C149.43,60.26 148.43,59.52 147.02,59.52 L145.81,59.52 L145.81,64.72 Z" id="Shape" fill="#FFFFFF" fill-rule="nonzero"></path>
        <path d="M153.23,63.53 C153.293842,64.3348841 153.983339,64.9448244 154.79,64.91 C155.381716,64.9435468 155.943504,64.6472613 156.25,64.14 L157.38,64.8 C156.771294,65.6958624 155.752981,66.2256858 154.67,66.21 C153.878949,66.2388568 153.113585,65.9266761 152.568386,65.3527831 C152.023188,64.7788901 151.750641,63.9985327 151.82,63.21 C151.753238,62.4425528 152.019947,61.6834879 152.55208,61.1264714 C153.084212,60.5694549 153.830305,60.2683574 154.6,60.3 C156.73,60.3 157.34,62 157.34,63.51 L153.23,63.53 Z M155.87,62.53 C155.859566,62.2116801 155.723017,61.9105651 155.490433,61.6929858 C155.257848,61.4754065 154.948308,61.3592127 154.63,61.37 C153.947316,61.3536453 153.361534,61.8532831 153.27,62.53 L155.87,62.53 Z" id="Shape" fill="#FFFFFF" fill-rule="nonzero"></path>
        <path d="M162.22,62.23 C161.93135,61.6767991 161.342499,61.3470424 160.72,61.39 C160.46,61.39 159.79,61.47 159.79,61.96 C159.79,62.45 160.13,62.44 160.93,62.59 L161.82,62.75 C162.647416,62.8020231 163.295991,63.481069 163.31,64.31 C163.31,65.31 162.31,66.21 160.81,66.21 C159.823342,66.2579259 158.86073,65.8960416 158.15,65.21 L159.15,64.4 C159.537112,64.8815133 160.133225,65.1460384 160.75,65.11 C161.55,65.11 161.84,64.7 161.84,64.45 C161.84,64.2 161.52,64.01 161.01,63.92 L160.33,63.8 C159.89,63.72 158.39,63.44 158.39,62.13 C158.39,61.03 159.45,60.32 160.78,60.32 C161.683949,60.2911781 162.555925,60.6560217 163.17,61.32 L162.22,62.23 Z" id="Shape" fill="#FFFFFF" fill-rule="nonzero"></path>
        <path d="M164.23,59.62 L164.23,58.28 L165.55,58.28 L165.55,59.62 L164.23,59.62 Z M164.23,66.04 L164.23,60.49 L165.55,60.49 L165.55,66 L164.23,66.04 Z" id="Shape" fill="#FFFFFF" fill-rule="nonzero"></path>
        <path d="M172,65.76 C172,67.37 170.9,67.89 169.32,67.89 C167.26,67.89 166.93,66.89 166.78,66.16 L168.24,66.16 C168.37,66.74 169.04,66.85 169.35,66.85 C170.14,66.85 170.68,66.57 170.68,65.62 L170.68,65.13 C170.207759,65.5198005 169.612271,65.7289302 169,65.72 C168.315491,65.7364651 167.657575,65.4548324 167.196991,64.9481902 C166.736407,64.4415481 166.518566,63.7598471 166.6,63.08 C166.525877,62.3714501 166.757566,61.6649325 167.236885,61.1378734 C167.716203,60.6108143 168.397615,60.3132838 169.11,60.32 C169.727792,60.2934268 170.317619,60.5789483 170.68,61.08 L170.68,60.49 L172,60.49 L172,65.76 Z M169.33,61.51 C168.940425,61.4996055 168.565109,61.6568355 168.299269,61.9418012 C168.033428,62.2267669 167.902609,62.6120844 167.94,63 C167.892071,63.3849052 168.017178,63.7712609 168.281628,64.0550135 C168.546078,64.3387661 168.922677,64.490738 169.31,64.47 C169.68861,64.4921009 170.057994,64.3477651 170.321319,64.0748293 C170.584645,63.8018935 170.715653,63.4275754 170.68,63.05 C170.719358,62.6585604 170.592201,62.2686245 170.329653,61.9756357 C170.067105,61.682647 169.693396,61.5136465 169.3,61.51 L169.33,61.51 Z" id="Shape" fill="#FFFFFF" fill-rule="nonzero"></path>
        <path d="M174.56,60.49 L174.56,61.14 C174.972145,60.6164631 175.603732,60.3135968 176.27,60.32 C176.766396,60.2879375 177.251708,60.4761923 177.596636,60.8346087 C177.941563,61.1930251 178.111072,61.685198 178.06,62.18 L178.06,66 L176.75,66 L176.75,62.92 C176.75,62.31 176.6,61.62 175.75,61.62 C175.491848,61.6130293 175.241008,61.7061983 175.05,61.88 C174.65,62.21 174.53,62.68 174.53,63.63 L174.53,66 L173.18,66 L173.18,60.49 L174.56,60.49 Z" id="Shape" fill="#FFFFFF" fill-rule="nonzero"></path>
    </g>
</svg>