<?xml version="1.0" encoding="UTF-8"?>
<svg width="288px" height="83px" viewBox="0 0 288 83" version="1.1" xmlns="http://www.w3.org/2000/svg" xmlns:xlink="http://www.w3.org/1999/xlink">
    <!-- Generator: Sketch 49.3 (51167) - http://www.bohemiancoding.com/sketch -->
    <title>lasalle</title>
    <desc>Created with Sketch.</desc>
    <defs></defs>
    <g id="lasalle" stroke="none" stroke-width="1" fill="none" fill-rule="evenodd">
        <polyline id="Fill-29" fill="#FFFFFF" points="98.219 21.257 102.285 21.257 102.285 36.522 111.282 36.522 111.282 39.958 98.219 39.958 98.219 21.257"></polyline>
        <path d="M121.298,34.975 L121.298,34.267 L118.701,34.267 C117.364,34.267 116.472,34.687 116.472,35.84 C116.472,36.837 117.232,37.414 118.649,37.414 C120.721,37.414 121.298,36.339 121.298,34.975 Z M112.747,36.181 C112.747,33.27 115.632,31.88 118.308,31.88 L121.298,31.88 L121.298,30.726 C121.298,29.466 120.459,28.837 118.937,28.837 C117.547,28.837 116.708,29.414 116.708,30.227 L116.708,30.647 L113.351,30.647 L113.351,30.227 C113.351,27.263 116.236,26.083 119.068,26.083 C122.164,26.083 125.049,27.211 125.049,30.594 L125.049,36.994 C125.049,37.833 125.18,39.67 125.285,39.958 L121.639,39.958 L121.508,38.568 L121.429,38.568 C120.275,39.958 118.937,40.246 117.364,40.246 C114.662,40.246 112.747,38.751 112.747,36.181 Z" id="Fill-30" fill="#FFFFFF"></path>
        <path d="M127.013,36.26 L130.082,34.319 C130.895,35.893 132.679,36.915 134.699,36.915 C136.351,36.915 138.003,36.313 138.003,34.791 C138.003,33.533 136.98,33.008 135.669,32.64 L132.469,31.827 C129.977,31.198 128.01,29.886 128.01,26.739 C128.01,23.224 131.053,20.942 134.935,20.942 C138.135,20.942 140.259,21.86 141.702,24.273 L138.764,26.188 C137.925,24.798 136.43,24.246 134.803,24.246 C133.361,24.246 132.023,24.824 132.023,26.293 C132.023,27.499 133.229,27.972 134.646,28.365 L137.741,29.152 C140.181,29.755 142.122,31.224 142.122,34.345 C142.122,38.096 138.738,40.246 134.751,40.246 C131.394,40.246 128.377,39.093 127.013,36.26" id="Fill-31" fill="#FFFFFF"></path>
        <path d="M152.425,34.975 L152.425,34.267 L149.829,34.267 C148.492,34.267 147.6,34.687 147.6,35.84 C147.6,36.837 148.36,37.414 149.777,37.414 C151.849,37.414 152.425,36.339 152.425,34.975 Z M143.875,36.181 C143.875,33.27 146.76,31.88 149.436,31.88 L152.425,31.88 L152.425,30.726 C152.425,29.466 151.587,28.837 150.065,28.837 C148.675,28.837 147.836,29.414 147.836,30.227 L147.836,30.647 L144.478,30.647 L144.478,30.227 C144.478,27.263 147.364,26.083 150.196,26.083 C153.292,26.083 156.177,27.211 156.177,30.594 L156.177,36.994 C156.177,37.833 156.308,39.67 156.414,39.958 L152.767,39.958 L152.636,38.568 L152.558,38.568 C151.404,39.958 150.065,40.246 148.492,40.246 C145.79,40.246 143.875,38.751 143.875,36.181 Z" id="Fill-32" fill="#FFFFFF"></path>
        <path d="M159.244,36.391 L159.244,21.257 L162.994,21.257 L162.994,35.946 C162.994,36.548 163.255,37.021 164.121,37.021 C164.621,37.021 164.96,36.968 165.486,36.915 L165.486,39.775 C164.751,39.985 163.703,40.168 162.81,40.168 C159.767,40.168 159.244,37.939 159.244,36.391" id="Fill-33" fill="#FFFFFF"></path>
        <path d="M167.582,36.391 L167.582,21.257 L171.332,21.257 L171.332,35.946 C171.332,36.548 171.595,37.021 172.46,37.021 C172.958,37.021 173.3,36.968 173.824,36.915 L173.824,39.775 C173.089,39.985 172.04,40.168 171.148,40.168 C168.107,40.168 167.582,37.939 167.582,36.391" id="Fill-34" fill="#FFFFFF"></path>
        <path d="M184.105,31.775 L184.105,31.355 C184.105,29.729 182.976,29.021 181.769,29.021 C180.511,29.021 179.251,29.755 179.251,31.513 L179.251,31.775 L184.105,31.775 Z M175.371,34.712 L175.371,32.116 C175.371,28.129 178.439,26.083 181.822,26.083 C184.839,26.083 187.777,27.866 187.777,31.513 L187.777,34.161 L179.251,34.161 L179.251,34.791 C179.251,36.444 180.695,37.283 182.242,37.283 C183.371,37.283 184.812,36.601 185.494,35.788 L187.566,37.729 C186.308,39.487 184.183,40.273 181.9,40.273 C178.517,40.273 175.371,38.542 175.371,34.712 Z" id="Fill-35" fill="#FFFFFF"></path>
        <path d="M196.349,33.663 L196.349,27.84 C196.349,23.328 199.89,20.942 204.007,20.942 C207.601,20.942 211.378,22.857 211.378,27.106 L211.378,27.84 L207.523,27.84 L207.523,27.473 C207.523,25.296 205.607,24.405 204.035,24.405 C202.33,24.405 200.414,25.323 200.414,27.709 L200.414,33.533 C200.414,35.605 202.093,36.811 204.138,36.811 C205.712,36.811 207.523,35.919 207.523,33.716 L207.523,33.375 L211.378,33.375 L211.378,34.11 C211.378,38.359 207.732,40.273 204.113,40.273 C200.021,40.273 196.349,38.096 196.349,33.663" id="Fill-36" fill="#FFFFFF"></path>
        <path d="M222.443,34.87 L222.443,31.487 C222.443,30.018 221.341,29.099 219.873,29.099 C218.587,29.099 217.38,29.834 217.38,31.565 L217.38,34.922 C217.38,36.391 218.429,37.283 219.951,37.283 C221.236,37.283 222.443,36.548 222.443,34.87 Z M213.552,34.87 L213.552,31.854 C213.552,28.024 216.751,26.083 219.847,26.083 C223.124,26.083 226.273,28.05 226.273,31.775 L226.273,34.581 C226.273,38.41 222.994,40.273 219.951,40.273 C216.673,40.273 213.552,38.594 213.552,34.87 Z" id="Fill-37" fill="#FFFFFF"></path>
        <path d="M228.867,36.391 L228.867,21.257 L232.617,21.257 L232.617,35.946 C232.617,36.548 232.878,37.021 233.744,37.021 C234.244,37.021 234.583,36.968 235.109,36.915 L235.109,39.775 C234.374,39.985 233.326,40.168 232.433,40.168 C229.39,40.168 228.867,37.939 228.867,36.391" id="Fill-38" fill="#FFFFFF"></path>
        <path d="M237.205,36.391 L237.205,21.257 L240.955,21.257 L240.955,35.946 C240.955,36.548 241.218,37.021 242.083,37.021 C242.582,37.021 242.923,36.968 243.447,36.915 L243.447,39.775 C242.712,39.985 241.664,40.168 240.771,40.168 C237.73,40.168 237.205,37.939 237.205,36.391" id="Fill-39" fill="#FFFFFF"></path>
        <path d="M253.728,31.775 L253.728,31.355 C253.728,29.729 252.599,29.021 251.392,29.021 C250.134,29.021 248.874,29.755 248.874,31.513 L248.874,31.775 L253.728,31.775 Z M244.994,34.712 L244.994,32.116 C244.994,28.129 248.062,26.083 251.445,26.083 C254.462,26.083 257.4,27.866 257.4,31.513 L257.4,34.161 L248.874,34.161 L248.874,34.791 C248.874,36.444 250.318,37.283 251.865,37.283 C252.994,37.283 254.435,36.601 255.117,35.788 L257.189,37.729 C255.931,39.487 253.806,40.273 251.523,40.273 C248.14,40.273 244.994,38.542 244.994,34.712 Z" id="Fill-40" fill="#FFFFFF"></path>
        <path d="M268.439,34.214 L268.439,31.487 C268.439,29.886 267.207,29.099 265.816,29.099 C264.583,29.099 263.324,29.782 263.324,31.591 L263.324,34.293 C263.324,35.814 264.453,36.705 265.921,36.705 C267.126,36.705 268.439,36.05 268.439,34.214 Z M259.73,42.398 L262.38,40.666 C263.218,41.716 264.32,42.188 265.527,42.188 C267.443,42.188 268.439,41.007 268.439,39.224 L268.439,37.86 L268.386,37.86 C267.468,39.067 266.236,39.591 264.767,39.591 C261.515,39.591 259.521,37.729 259.521,34.424 L259.521,31.538 C259.521,28.129 261.855,26.057 264.845,26.057 C266.314,26.057 267.757,26.818 268.492,27.814 L268.544,27.814 L268.544,26.345 L272.138,26.345 L272.138,38.7 C272.138,42.241 269.96,45.099 265.396,45.125 C263.193,45.099 260.779,44.26 259.73,42.398 Z" id="Fill-41" fill="#FFFFFF"></path>
        <path d="M283.439,31.775 L283.439,31.355 C283.439,29.729 282.312,29.021 281.105,29.021 C279.845,29.021 278.587,29.755 278.587,31.513 L278.587,31.775 L283.439,31.775 Z M274.705,34.712 L274.705,32.116 C274.705,28.129 277.773,26.083 281.158,26.083 C284.173,26.083 287.111,27.866 287.111,31.513 L287.111,34.161 L278.587,34.161 L278.587,34.791 C278.587,36.444 280.029,37.283 281.578,37.283 C282.705,37.283 284.148,36.601 284.83,35.788 L286.902,37.729 C285.642,39.487 283.517,40.273 281.236,40.273 C277.853,40.273 274.705,38.542 274.705,34.712 Z" id="Fill-42" fill="#FFFFFF"></path>
        <polyline id="Fill-43" fill="#FFFFFF" points="98.184 51.116 99.699 51.116 103.275 62.158 103.294 62.158 106.925 51.116 108.44 51.116 104.005 64.201 102.545 64.201 98.184 51.116"></polyline>
        <path d="M115.407,60.788 L115.407,59.912 L113.035,59.912 C111.867,59.912 110.754,60.223 110.754,61.591 C110.754,62.704 111.703,63.252 112.816,63.252 C114.641,63.252 115.407,62.23 115.407,60.788 Z M109.403,61.664 C109.403,59.675 111.21,58.908 112.798,58.908 L115.407,58.908 L115.407,57.631 C115.407,56.318 114.531,55.843 113.217,55.843 C112.141,55.843 111.046,56.226 111.046,57.267 L111.046,57.576 L109.805,57.576 L109.805,57.303 C109.805,55.442 111.557,54.766 113.272,54.766 C115.115,54.766 116.776,55.405 116.776,57.467 L116.776,61.902 C116.776,62.412 116.849,63.763 116.904,64.128 L115.572,64.128 C115.535,63.855 115.499,63.07 115.48,62.832 L115.444,62.832 C114.677,64.092 113.582,64.329 112.451,64.329 C110.735,64.329 109.403,63.362 109.403,61.664 Z" id="Fill-44" fill="#FFFFFF"></path>
        <path d="M119.236,54.967 L120.55,54.967 L120.55,56.555 L120.587,56.555 C121.226,55.368 122.375,54.766 123.598,54.766 C125.551,54.766 126.536,56.043 126.536,57.795 L126.536,64.128 L125.167,64.128 L125.167,58.307 C125.167,56.683 124.401,55.952 123.178,55.952 C121.791,55.952 120.587,56.992 120.587,58.726 L120.587,64.128 L119.236,64.128 L119.236,54.967" id="Fill-45" fill="#FFFFFF"></path>
        <path d="M128.613,60.66 L128.613,58.616 C128.613,56.19 130.183,54.784 132.409,54.784 C134.508,54.784 136.022,55.971 136.022,57.96 L136.022,58.198 L134.708,58.198 L134.708,57.887 C134.708,56.865 133.942,55.916 132.427,55.916 C130.913,55.916 130.018,56.956 130.018,58.49 L130.018,60.698 C130.018,62.175 130.803,63.198 132.445,63.198 C133.96,63.198 134.708,62.267 134.708,61.244 L134.708,60.99 L136.022,60.99 L136.022,61.19 C136.022,63.161 134.562,64.366 132.445,64.366 C130.164,64.366 128.613,63.033 128.613,60.66" id="Fill-46" fill="#FFFFFF"></path>
        <path d="M143.775,60.734 L143.775,58.307 C143.775,56.919 142.954,55.934 141.311,55.934 C139.797,55.934 138.866,56.828 138.866,58.379 L138.866,60.788 C138.866,62.23 139.742,63.198 141.366,63.198 C142.881,63.198 143.775,62.376 143.775,60.734 Z M137.497,60.825 L137.497,58.452 C137.497,56.043 139.249,54.784 141.311,54.784 C143.574,54.784 145.162,56.116 145.162,58.435 L145.162,60.679 C145.162,63.07 143.447,64.366 141.366,64.366 C139.122,64.366 137.497,63.143 137.497,60.825 Z" id="Fill-47" fill="#FFFFFF"></path>
        <path d="M147.221,61.299 L147.221,54.967 L148.59,54.967 L148.59,60.788 C148.59,62.412 149.374,63.124 150.597,63.124 C151.966,63.124 153.17,62.084 153.17,60.351 L153.17,54.967 L154.521,54.967 L154.521,64.128 L153.207,64.128 L153.207,62.54 L153.17,62.54 C152.532,63.745 151.382,64.347 150.159,64.347 C148.207,64.347 147.221,63.033 147.221,61.299" id="Fill-48" fill="#FFFFFF"></path>
        <polyline id="Fill-49" fill="#FFFFFF" points="156.068 54.967 157.529 54.967 160.066 62.431 160.083 62.431 162.675 54.967 164.062 54.967 160.722 64.164 159.373 64.164 156.068 54.967"></polyline>
        <path d="M171.431,58.872 L171.431,58.343 C171.431,56.956 170.611,55.916 169.078,55.916 C167.599,55.916 166.632,57.011 166.632,58.471 L166.632,58.872 L171.431,58.872 Z M165.228,60.643 L165.228,58.708 C165.228,56.19 166.943,54.784 169.15,54.784 C171.177,54.784 172.783,56.007 172.783,58.379 L172.783,59.822 L166.632,59.822 L166.632,60.771 C166.632,62.267 167.654,63.198 169.261,63.198 C170.318,63.198 171.085,62.65 171.578,62.03 L172.619,62.65 C171.796,63.927 170.484,64.366 169.169,64.366 C166.925,64.366 165.228,63.161 165.228,60.643 Z" id="Fill-50" fill="#FFFFFF"></path>
        <path d="M174.841,54.967 L176.173,54.967 L176.173,56.81 L176.21,56.81 C176.939,55.35 178.308,54.821 179.496,54.821 C179.732,54.821 179.97,54.839 180.169,54.875 L180.169,56.154 C179.859,56.099 179.568,56.099 179.332,56.099 C177.597,56.099 176.246,57.157 176.21,59.128 L176.21,64.128 L174.841,64.128 L174.841,54.967" id="Fill-51" fill="#FFFFFF"></path>
        <path d="M38.455,32.029 C38.455,38.698 43.442,44.533 50.107,44.566 L61.706,44.566 L61.706,54.797 C61.706,59.235 58.231,61.797 53.869,62.951 C49.504,64.104 41.045,66.392 41.045,66.392 C41.045,66.392 32.392,64.104 28.029,62.951 C23.667,61.797 20.191,59.235 20.191,54.797 L20.191,21.209 L38.456,21.209 C38.456,21.209 38.455,31.28 38.455,32.029" id="Fill-52" fill="#FFFFFF"></path>
        <path d="M61.717,40.07 L61.713,29.369 C61.713,24.931 58.31,21.327 53.872,21.214 L42.964,21.208 L42.968,31.908 C42.968,36.349 46.37,39.951 50.808,40.063 L61.717,40.07" id="Fill-53" fill="#FFFFFF"></path>
        <path d="M41.107,83 C18.439,83 0,64.557 0,41.892 C0,19.225 18.439,0.785 41.107,0.785 C63.773,0.785 82.215,19.225 82.215,41.892 C82.215,64.557 63.773,83 41.107,83 M41.107,5.814 C21.213,5.814 5.029,21.999 5.029,41.892 C5.029,61.785 21.213,77.97 41.107,77.97 C61,77.97 77.183,61.785 77.183,41.892 C77.183,21.999 61,5.814 41.107,5.814" id="Fill-55" fill="#FFFFFF"></path>
    </g>
</svg>