<?xml version="1.0" encoding="UTF-8"?>
<svg width="523px" height="49px" viewBox="0 0 523 49" version="1.1" xmlns="http://www.w3.org/2000/svg" xmlns:xlink="http://www.w3.org/1999/xlink">
    <!-- Generator: Sketch 49.3 (51167) - http://www.bohemiancoding.com/sketch -->
    <title>livingspace</title>
    <desc>Created with Sketch.</desc>
    <defs></defs>
    <g id="livingspace" stroke="none" stroke-width="1" fill="none" fill-rule="evenodd">
        <polyline id="Fill-1" fill="#FFFFFF" points="0.54 1.802 7.323 1.802 7.323 42.049 42.962 42.049 42.962 47.279 0.54 47.279 0.54 1.802"></polyline>
        <polygon id="Stroke-2" stroke="#FFFFFF" stroke-width="1.08" points="0.54 1.802 7.323 1.802 7.323 42.049 42.962 42.049 42.962 47.279 0.54 47.279"></polygon>
        <polygon id="Fill-4" fill="#FFFFFF" points="50.829 47.448 57.714 47.448 57.714 1.55 50.829 1.55"></polygon>
        <polygon id="Stroke-5" stroke="#FFFFFF" stroke-width="1.08" points="50.829 47.448 57.714 47.448 57.714 1.55 50.829 1.55"></polygon>
        <polyline id="Fill-7" fill="#FFFFFF" points="91.442 47.279 65.557 1.802 72.824 1.802 93.533 38.252 114.241 1.802 121.609 1.802 95.623 47.279 91.442 47.279"></polyline>
        <polygon id="Stroke-8" stroke="#FFFFFF" stroke-width="1.08" points="91.442 47.279 65.557 1.802 72.824 1.802 93.533 38.252 114.241 1.802 121.609 1.802 95.623 47.279"></polygon>
        <polygon id="Fill-10" fill="#FFFFFF" points="128.589 47.448 135.473 47.448 135.473 1.55 128.589 1.55"></polygon>
        <polygon id="Stroke-11" stroke="#FFFFFF" stroke-width="1.08" points="128.589 47.448 135.473 47.448 135.473 1.55 128.589 1.55"></polygon>
        <polyline id="Fill-13" fill="#FFFFFF" points="144.43 1.802 147.974 1.802 183.408 35.805 183.408 1.802 190.192 1.802 190.192 47.279 186.751 47.279 151.214 13.276 151.214 47.279 144.43 47.279 144.43 1.802"></polyline>
        <polygon id="Stroke-14" stroke="#FFFFFF" stroke-width="1.08" points="144.43 1.802 147.974 1.802 183.408 35.805 183.408 1.802 190.192 1.802 190.192 47.279 186.751 47.279 151.214 13.276 151.214 47.279 144.43 47.279"></polygon>
        <path d="M243.696,28.296 L228.813,28.296 L228.813,23.064 L250.479,23.064 L250.479,36.731 C245.214,44.325 236.509,48.46 225.776,48.46 C209.475,48.46 197.528,38.503 197.528,24.666 C197.528,10.829 209.475,0.789 225.776,0.789 C235.9,0.789 244.505,4.669 249.67,11.421 L243.999,14.796 C240.559,9.311 233.674,6.104 225.776,6.104 C213.628,6.104 204.515,13.867 204.515,24.666 C204.515,35.467 213.628,43.146 225.776,43.146 C233.369,43.146 239.342,40.444 243.696,34.96 L243.696,28.296" id="Fill-16" fill="#FFFFFF"></path>
        <path d="M243.696,28.296 L228.813,28.296 L228.813,23.064 L250.479,23.064 L250.479,36.731 C245.214,44.325 236.509,48.46 225.776,48.46 C209.475,48.46 197.528,38.503 197.528,24.666 C197.528,10.829 209.475,0.789 225.776,0.789 C235.9,0.789 244.505,4.669 249.67,11.421 L243.999,14.796 C240.559,9.311 233.674,6.104 225.776,6.104 C213.628,6.104 204.515,13.867 204.515,24.666 C204.515,35.467 213.628,43.146 225.776,43.146 C233.369,43.146 239.342,40.444 243.696,34.96 L243.696,28.296 Z" id="Stroke-17" stroke="#FFFFFF" stroke-width="1.08"></path>
        <path d="M262.349,35.552 C270.143,40.613 278.747,43.229 286.747,43.229 C297.175,43.229 303.755,39.095 303.755,33.695 C303.755,29.56 299.504,26.187 291,25.596 C281.686,25.004 274.294,24.919 268.522,22.727 C263.461,20.702 260.729,17.409 260.729,13.362 C260.729,6.356 268.928,0.789 281.889,0.789 C291.099,0.789 300.112,3.406 308.008,8.213 L304.059,12.938 C297.276,8.383 289.782,6.104 281.987,6.104 C273.384,6.104 267.814,9.311 267.814,13.108 C267.814,14.796 268.727,16.061 270.445,17.157 C275.103,20.11 282.9,19.436 292.924,20.364 C304.363,21.462 310.943,26.945 310.943,33.864 C310.943,41.711 302.237,48.46 286.849,48.46 C276.116,48.46 266.903,45.928 258.399,40.444 L262.349,35.552" id="Fill-19" fill="#FFFFFF"></path>
        <path d="M262.349,35.552 C270.143,40.613 278.747,43.229 286.747,43.229 C297.175,43.229 303.755,39.095 303.755,33.695 C303.755,29.56 299.504,26.187 291,25.596 C281.686,25.004 274.294,24.919 268.522,22.727 C263.461,20.702 260.729,17.409 260.729,13.362 C260.729,6.356 268.928,0.789 281.889,0.789 C291.099,0.789 300.112,3.406 308.008,8.213 L304.059,12.938 C297.276,8.383 289.782,6.104 281.987,6.104 C273.384,6.104 267.814,9.311 267.814,13.108 C267.814,14.796 268.727,16.061 270.445,17.157 C275.103,20.11 282.9,19.436 292.924,20.364 C304.363,21.462 310.943,26.945 310.943,33.864 C310.943,41.711 302.237,48.46 286.849,48.46 C276.116,48.46 266.903,45.928 258.399,40.444 L262.349,35.552 Z" id="Stroke-20" stroke="#FFFFFF" stroke-width="1.08"></path>
        <path d="M350.21,22.051 C357.095,22.051 360.638,19.436 360.638,14.626 C360.638,9.903 357.095,7.033 350.515,7.033 L326.115,7.033 L326.115,22.051 L350.21,22.051 Z M319.331,1.802 L350.616,1.802 C361.348,1.802 367.728,6.527 367.728,14.12 C367.728,21.715 361.752,27.367 351.526,27.367 L326.115,27.367 L326.115,47.279 L319.331,47.279 L319.331,1.802 Z" id="Fill-22" fill="#FFFFFF"></path>
        <path d="M350.21,22.051 C357.095,22.051 360.638,19.436 360.638,14.626 C360.638,9.903 357.095,7.033 350.515,7.033 L326.115,7.033 L326.115,22.051 L350.21,22.051 Z M319.331,1.802 L350.616,1.802 C361.348,1.802 367.728,6.527 367.728,14.12 C367.728,21.715 361.752,27.367 351.526,27.367 L326.115,27.367 L326.115,47.279 L319.331,47.279 L319.331,1.802 Z" id="Stroke-23" stroke="#FFFFFF" stroke-width="1.08"></path>
        <path d="M402.046,29.73 L390.001,9.565 L378.054,29.73 L402.046,29.73 Z M387.165,1.802 L392.833,1.802 L419.866,47.279 L412.476,47.279 L405.085,35.045 L374.913,35.045 L367.724,47.279 L360.437,47.279 L387.165,1.802 Z" id="Fill-25" fill="#FFFFFF"></path>
        <path d="M402.046,29.73 L390.001,9.565 L378.054,29.73 L402.046,29.73 Z M387.165,1.802 L392.833,1.802 L419.866,47.279 L412.476,47.279 L405.085,35.045 L374.913,35.045 L367.724,47.279 L360.437,47.279 L387.165,1.802 Z" id="Stroke-26" stroke="#FFFFFF" stroke-width="1.08"></path>
        <path d="M472.115,36.143 C467.053,44.072 458.041,48.46 447.005,48.46 C430.705,48.46 418.76,38.503 418.76,24.666 C418.76,10.829 430.705,0.789 447.005,0.789 C457.133,0.789 465.735,4.669 470.899,11.421 L465.23,14.796 C461.788,9.311 454.903,6.104 447.005,6.104 C434.856,6.104 425.744,13.867 425.744,24.666 C425.744,35.467 434.856,43.146 447.005,43.146 C455.513,43.146 462.295,39.601 466.647,32.768 L472.115,36.143" id="Fill-28" fill="#FFFFFF"></path>
        <path d="M472.115,36.143 C467.053,44.072 458.041,48.46 447.005,48.46 C430.705,48.46 418.76,38.503 418.76,24.666 C418.76,10.829 430.705,0.789 447.005,0.789 C457.133,0.789 465.735,4.669 470.899,11.421 L465.23,14.796 C461.788,9.311 454.903,6.104 447.005,6.104 C434.856,6.104 425.744,13.867 425.744,24.666 C425.744,35.467 434.856,43.146 447.005,43.146 C455.513,43.146 462.295,39.601 466.647,32.768 L472.115,36.143 Z" id="Stroke-29" stroke="#FFFFFF" stroke-width="1.08"></path>
        <polyline id="Fill-31" fill="#FFFFFF" points="479.233 1.802 522.161 1.802 522.161 7.033 486.017 7.033 486.017 20.364 522.002 20.364 521.98 25.596 486.017 25.596 486.017 42.049 521.973 42.049 521.973 47.279 479.233 47.279 479.233 1.802"></polyline>
        <polygon id="Stroke-32" stroke="#FFFFFF" stroke-width="1.08" points="479.233 1.802 522.161 1.802 522.161 7.033 486.017 7.033 486.017 20.364 522.002 20.364 521.98 25.596 486.017 25.596 486.017 42.049 521.973 42.049 521.973 47.279 479.233 47.279"></polygon>
    </g>
</svg>