<?xml version="1.0" encoding="UTF-8"?>
<svg width="384px" height="126px" viewBox="0 0 384 126" version="1.1" xmlns="http://www.w3.org/2000/svg" xmlns:xlink="http://www.w3.org/1999/xlink">
    <!-- Generator: Sketch 49.3 (51167) - http://www.bohemiancoding.com/sketch -->
    <title>local</title>
    <desc>Created with Sketch.</desc>
    <defs></defs>
    <g id="local" stroke="none" stroke-width="1" fill="none" fill-rule="evenodd">
        <polygon id="Fill-1" fill="#FFFFFF" points="0 123.393 14.571 123.393 14.571 1 0 1"></polygon>
        <path d="M42.2532,85.024 C42.2532,88.909 42.8452,92.499 44.0342,95.79 C45.2202,99.084 46.8922,101.889 49.0522,104.209 C51.2102,106.531 53.8542,108.365 56.9852,109.713 C60.1142,111.064 63.6232,111.737 67.5092,111.737 C71.3942,111.737 74.9002,111.064 78.0322,109.713 C81.1612,108.365 83.8052,106.531 85.9652,104.209 C88.1232,101.889 89.7952,99.084 90.9832,95.79 C92.1702,92.499 92.7642,88.909 92.7642,85.024 C92.7642,81.138 92.1702,77.551 90.9832,74.258 C89.7952,70.967 88.1232,68.162 85.9652,65.839 C83.8052,63.52 81.1612,61.686 78.0322,60.335 C74.9002,58.987 71.3942,58.311 67.5092,58.311 C63.6232,58.311 60.1142,58.987 56.9852,60.335 C53.8542,61.686 51.2102,63.52 49.0522,65.839 C46.8922,68.162 45.2202,70.967 44.0342,74.258 C42.8452,77.551 42.2532,81.138 42.2532,85.024 M26.7112,85.024 C26.7112,79.413 27.7632,74.177 29.8682,69.32 C31.9732,64.463 34.8592,60.201 38.5292,56.53 C42.1972,52.862 46.5152,49.973 51.4812,47.869 C56.4442,45.764 61.7872,44.712 67.5092,44.712 C73.2282,44.712 78.5712,45.764 83.5362,47.869 C88.5002,49.973 92.8172,52.862 96.4882,56.53 C100.1562,60.201 103.0452,64.463 105.1492,69.32 C107.2542,74.177 108.3072,79.413 108.3072,85.024 C108.3072,90.637 107.2542,95.899 105.1492,100.809 C103.0452,105.721 100.1562,109.984 96.4882,113.599 C92.8172,117.216 88.5002,120.074 83.5362,122.179 C78.5712,124.283 73.2282,125.336 67.5092,125.336 C61.7872,125.336 56.4442,124.283 51.4812,122.179 C46.5152,120.074 42.1972,117.216 38.5292,113.599 C34.8592,109.984 31.9732,105.721 29.8682,100.809 C27.7632,95.899 26.7112,90.637 26.7112,85.024" id="Fill-2" fill="#FFFFFF"></path>
        <path d="M175.8167,67.0538 C173.1177,64.2488 170.2847,62.1158 167.3167,60.6578 C164.3477,59.2018 160.8137,58.4728 156.7127,58.4728 C152.7187,58.4728 149.2377,59.2018 146.2707,60.6578 C143.3007,62.1158 140.8187,64.1148 138.8237,66.6488 C136.8247,69.1858 135.3147,72.0998 134.2907,75.3908 C133.2627,78.6848 132.7527,82.1098 132.7527,85.6718 C132.7527,89.2338 133.3447,92.6078 134.5327,95.7898 C135.7197,98.9748 137.3917,101.7548 139.5517,104.1278 C141.7097,106.5028 144.2997,108.3648 147.3227,109.7128 C150.3427,111.0638 153.7427,111.7368 157.5227,111.7368 C161.6227,111.7368 165.1307,111.0078 168.0457,109.5518 C170.9597,108.0938 173.6557,105.9648 176.1407,103.1568 L186.5017,113.5168 C182.7227,117.7268 178.3257,120.7498 173.3077,122.5838 C168.2887,124.4178 162.9717,125.3358 157.3607,125.3358 C151.4237,125.3358 145.9997,124.3648 141.0897,122.4218 C136.1777,120.4788 131.9427,117.7548 128.3807,114.2458 C124.8197,110.7408 122.0677,106.5308 120.1247,101.6188 C118.1817,96.7088 117.2107,91.2848 117.2107,85.3478 C117.2107,79.4128 118.1817,73.9618 120.1247,68.9958 C122.0677,64.0328 124.7917,59.7678 128.2997,56.2068 C131.8067,52.6448 136.0157,49.8668 140.9277,47.8688 C145.8377,45.8728 151.3147,44.8738 157.3607,44.8738 C162.9717,44.8738 168.3417,45.8728 173.4687,47.8688 C178.5937,49.8668 183.0457,52.9158 186.8257,57.0158 L175.8167,67.0538 Z" id="Fill-4" fill="#FFFFFF"></path>
        <path d="M241.222,86.4811 C237.766,86.4811 234.233,86.6711 230.618,87.0471 C227,87.4271 223.709,88.1561 220.742,89.2331 C217.772,90.3141 215.344,91.8231 213.456,93.7661 C211.567,95.7091 210.623,98.1931 210.623,101.2131 C210.623,105.6401 212.106,108.8231 215.076,110.7661 C218.043,112.7081 222.063,113.6801 227.137,113.6801 C231.128,113.6801 234.529,113.0061 237.336,111.6561 C240.141,110.3081 242.408,108.5551 244.136,106.3951 C245.862,104.2361 247.103,101.8361 247.86,99.1901 C248.613,96.5461 248.993,93.9281 248.993,91.3371 L248.993,86.4811 L241.222,86.4811 Z M200.1,56.0441 C204.201,52.2681 208.949,49.4351 214.347,47.5451 C219.743,45.6581 225.138,44.7121 230.536,44.7121 C236.147,44.7121 240.979,45.4161 245.026,46.8161 C249.074,48.2211 252.392,50.1101 254.983,52.4831 C257.574,54.8581 259.489,57.5831 260.73,60.6581 C261.97,63.7341 262.592,66.9471 262.592,70.2911 L262.592,109.4701 C262.592,112.1691 262.645,114.6511 262.754,116.9181 C262.86,119.1841 263.022,121.3441 263.24,123.3931 L250.288,123.3931 C249.964,119.5081 249.802,115.6221 249.802,111.7371 L249.478,111.7371 C246.241,116.7021 242.408,120.2111 237.984,122.2601 C233.557,124.3091 228.432,125.3361 222.604,125.3361 C219.042,125.3361 215.642,124.8501 212.405,123.8791 C209.166,122.9071 206.332,121.4511 203.905,119.5081 C201.476,117.5651 199.559,115.1651 198.158,112.3031 C196.753,109.4451 196.052,106.1261 196.052,102.3471 C196.052,97.3831 197.159,93.2281 199.371,89.8811 C201.582,86.5371 204.605,83.8101 208.438,81.7051 C212.267,79.6011 216.747,78.0901 221.875,77.1721 C227,76.2561 232.479,75.7951 238.308,75.7951 L248.993,75.7951 L248.993,72.5581 C248.993,70.6151 248.613,68.6731 247.86,66.7301 C247.103,64.7871 245.97,63.0341 244.459,61.4681 C242.947,59.9051 241.06,58.6631 238.793,57.7441 C236.527,56.8291 233.827,56.3681 230.699,56.3681 C227.891,56.3681 225.437,56.6391 223.332,57.1781 C221.227,57.7191 219.31,58.3921 217.584,59.2021 C215.857,60.0111 214.291,60.9571 212.89,62.0341 C211.486,63.1151 210.138,64.1391 208.843,65.1111 L200.1,56.0441 Z" id="Fill-6" fill="#FFFFFF"></path>
        <polygon id="Fill-9" fill="#FFFFFF" points="280.562 123.394 295.132 123.394 295.132 1 280.562 1"></polygon>
        <path d="M383.6995,103.7648 C383.6995,115.6218 374.0875,125.2338 362.2305,125.2338 C350.3735,125.2338 340.7615,115.6218 340.7615,103.7648 C340.7615,91.9078 350.3735,82.2958 362.2305,82.2958 C374.0875,82.2958 383.6995,91.9078 383.6995,103.7648" id="Fill-11" fill="#FFFFFF"></path>
    </g>
</svg>