<?xml version="1.0" encoding="UTF-8"?>
<svg width="269px" height="28px" viewBox="0 0 269 28" version="1.1" xmlns="http://www.w3.org/2000/svg" xmlns:xlink="http://www.w3.org/1999/xlink">
    <!-- Generator: Sketch 49.3 (51167) - http://www.bohemiancoding.com/sketch -->
    <title>revery</title>
    <desc>Created with Sketch.</desc>
    <defs></defs>
    <g id="revery" stroke="none" stroke-width="1" fill="none" fill-rule="evenodd">
        <path d="M10.357,10.83 C10.357,7.844 11.164,5.428 12.781,3.583 C14.399,1.739 16.545,0.816 19.219,0.816 C21.896,0.816 24.015,1.656 25.573,3.342 C27.135,5.028 27.915,7.319 27.915,10.216 C27.915,10.996 27.891,11.605 27.841,12.038 L14.613,12.038 C14.648,13.484 15.117,14.724 16.014,15.76 C16.913,16.798 18.043,17.315 19.406,17.315 C20.51,17.315 21.504,17.03 22.389,16.461 C23.276,15.89 23.95,14.985 24.407,13.748 C24.704,13.822 25.962,14.184 28.179,14.833 C27.945,15.579 27.604,16.289 27.158,16.961 C26.713,17.632 26.146,18.268 25.457,18.868 C24.769,19.463 23.902,19.939 22.854,20.294 C21.807,20.648 20.658,20.826 19.406,20.826 C16.755,20.826 14.583,19.9 12.894,18.048 C11.203,16.196 10.357,13.792 10.357,10.83 M14.817,8.972 L23.531,8.972 C23.469,7.509 23.077,6.369 22.359,5.553 C21.641,4.737 20.596,4.327 19.219,4.327 C17.919,4.327 16.875,4.784 16.088,5.702 C15.301,6.616 14.877,7.705 14.817,8.972" id="Fill-1" fill="#FFFFFF"></path>
        <polyline id="Fill-2" fill="#FFFFFF" points="41.59 1.204 36.684 15.438 31.778 1.204 27.468 1.204 34.66 20.455 38.729 20.455 45.882 1.204 41.59 1.204"></polyline>
        <path d="M45.013,10.83 C45.013,7.844 45.82,5.428 47.438,3.583 C49.055,1.739 51.201,0.816 53.875,0.816 C56.552,0.816 58.668,1.656 60.229,3.342 C61.791,5.028 62.571,7.319 62.571,10.216 C62.571,10.996 62.547,11.605 62.497,12.038 L49.269,12.038 C49.304,13.484 49.773,14.724 50.669,15.76 C51.569,16.798 52.7,17.315 54.062,17.315 C55.166,17.315 56.16,17.03 57.045,16.461 C57.932,15.89 58.606,14.985 59.063,13.748 C59.36,13.822 60.618,14.184 62.835,14.833 C62.601,15.579 62.259,16.289 61.814,16.961 C61.366,17.632 60.802,18.268 60.114,18.868 C59.425,19.463 58.559,19.939 57.511,20.294 C56.463,20.648 55.314,20.826 54.062,20.826 C51.412,20.826 49.239,19.9 47.55,18.048 C45.858,16.196 45.013,13.792 45.013,10.83 M49.474,8.972 L58.187,8.972 C58.125,7.509 57.733,6.369 57.015,5.553 C56.297,4.737 55.249,4.327 53.875,4.327 C52.575,4.327 51.53,4.784 50.744,5.702 C49.957,6.616 49.533,7.705 49.474,8.972" id="Fill-3" fill="#FFFFFF"></path>
        <path d="M76.356,1.205 L80.612,1.205 C81.093,2.58 81.892,4.868 82.999,8.07 C84.108,11.272 84.966,13.73 85.572,15.44 L90.478,1.205 L94.734,1.205 C94.001,3.164 92.903,6.106 91.434,10.032 C89.967,13.958 88.872,16.9 88.154,18.856 L84.773,27.999 L80.778,27.999 L83.509,20.456 L76.356,1.205" id="Fill-4" fill="#FFFFFF"></path>
        <path d="M101.972,1.201 L95.029,20.455 L96.564,20.455 L98.205,15.94 L107.364,15.94 L109.009,20.455 L110.531,20.455 L103.613,1.201 L101.972,1.201 Z M102.796,3.312 L106.845,14.554 L98.728,14.554 L102.796,3.312 Z" id="Fill-5" fill="#FFFFFF"></path>
        <path d="M112.828,20.456 L112.828,1.202 L120.138,1.202 C121.658,1.202 122.872,1.728 123.777,2.778 C124.685,3.829 125.139,5.164 125.139,6.782 C125.139,8.42 124.685,9.762 123.783,10.8 C122.878,11.845 121.658,12.365 120.126,12.365 L119.672,12.365 L126.101,20.456 L124.27,20.456 L117.773,12.365 L114.297,12.365 L114.297,20.456 L112.828,20.456 Z M114.297,10.96 L120.126,10.96 C121.159,10.96 122.008,10.536 122.673,9.688 C123.338,8.838 123.67,7.868 123.67,6.782 C123.67,5.695 123.338,4.728 122.673,3.879 C122.008,3.03 121.159,2.606 120.126,2.606 L114.297,2.606 L114.297,10.96 Z" id="Fill-6" fill="#FFFFFF"></path>
        <path d="M127.752,15.962 C127.149,14.479 126.85,12.769 126.85,10.828 C126.85,8.887 127.149,7.177 127.752,5.693 C128.352,4.212 129.236,3.049 130.402,2.203 C131.568,1.357 132.949,0.936 134.54,0.936 C135.386,0.936 136.175,1.072 136.911,1.342 C137.644,1.615 138.249,1.948 138.719,2.343 C139.19,2.74 139.611,3.191 139.982,3.699 C140.351,4.207 140.624,4.655 140.802,5.046 C140.98,5.438 141.113,5.809 141.202,6.156 L139.733,6.423 C139.618,6.121 139.484,5.815 139.327,5.506 C139.173,5.201 138.941,4.848 138.642,4.447 C138.336,4.046 138.006,3.696 137.644,3.399 C137.285,3.1 136.831,2.847 136.281,2.636 C135.735,2.429 135.154,2.325 134.54,2.325 C132.584,2.325 131.076,3.067 130.022,4.554 C128.966,6.041 128.44,8.13 128.44,10.828 C128.44,13.526 128.966,15.619 130.022,17.102 C131.076,18.589 132.584,19.334 134.54,19.334 C135.163,19.334 135.753,19.227 136.309,19.013 C136.866,18.8 137.323,18.542 137.686,18.239 C138.045,17.936 138.377,17.583 138.68,17.185 C138.982,16.782 139.208,16.431 139.359,16.128 C139.511,15.826 139.636,15.529 139.733,15.236 L141.202,15.502 C141.113,15.85 140.98,16.218 140.802,16.61 C140.624,17.002 140.351,17.453 139.982,17.957 C139.611,18.467 139.19,18.918 138.719,19.313 C138.249,19.712 137.644,20.043 136.911,20.314 C136.175,20.586 135.386,20.723 134.54,20.723 C132.949,20.723 131.568,20.298 130.402,19.453 C129.236,18.607 128.352,17.444 127.752,15.962" id="Fill-7" fill="#FFFFFF"></path>
        <polyline id="Fill-8" fill="#FFFFFF" points="155.611 1.201 155.611 9.841 145.49 9.841 145.49 1.201 144.024 1.201 144.024 20.455 145.49 20.455 145.49 11.242 155.611 11.242 155.611 20.455 157.134 20.455 157.134 1.201 155.611 1.201"></polyline>
        <polygon id="Fill-9" fill="#FFFFFF" points="160.783 20.454 162.252 20.454 162.252 1.201 160.783 1.201"></polygon>
        <polyline id="Fill-10" fill="#FFFFFF" points="164.669 1.201 164.669 2.522 169.932 2.522 169.932 20.455 171.4 20.455 171.4 2.522 176.595 2.522 176.595 1.201 164.669 1.201"></polyline>
        <polyline id="Fill-11" fill="#FFFFFF" points="179.026 1.201 179.026 20.455 191.219 20.455 191.219 19.066 180.496 19.066 180.496 11.242 190.15 11.242 190.15 9.841 180.496 9.841 180.496 2.602 191.219 2.602 191.219 1.201 179.026 1.201"></polyline>
        <path d="M194.272,15.962 C193.67,14.479 193.37,12.769 193.37,10.828 C193.37,8.887 193.67,7.177 194.272,5.693 C194.871,4.212 195.756,3.049 196.923,2.203 C198.089,1.357 199.469,0.936 201.06,0.936 C201.905,0.936 202.695,1.072 203.431,1.342 C204.164,1.615 204.77,1.948 205.238,2.343 C205.711,2.74 206.132,3.191 206.503,3.699 C206.871,4.207 207.144,4.655 207.322,5.046 C207.5,5.438 207.634,5.809 207.723,6.156 L206.254,6.423 C206.138,6.121 206.004,5.815 205.847,5.506 C205.692,5.201 205.464,4.848 205.161,4.447 C204.855,4.046 204.526,3.696 204.164,3.399 C203.805,3.1 203.351,2.847 202.802,2.636 C202.256,2.429 201.674,2.325 201.06,2.325 C199.104,2.325 197.596,3.067 196.543,4.554 C195.486,6.041 194.961,8.13 194.961,10.828 C194.961,13.526 195.486,15.619 196.543,17.102 C197.596,18.589 199.104,19.334 201.06,19.334 C201.683,19.334 202.273,19.227 202.828,19.013 C203.387,18.8 203.844,18.542 204.206,18.239 C204.564,17.936 204.897,17.583 205.2,17.185 C205.503,16.782 205.729,16.431 205.88,16.128 C206.031,15.826 206.155,15.529 206.254,15.236 L207.723,15.502 C207.634,15.85 207.5,16.218 207.322,16.61 C207.144,17.002 206.871,17.453 206.503,17.957 C206.132,18.467 205.711,18.918 205.238,19.313 C204.77,19.712 204.164,20.043 203.431,20.314 C202.695,20.586 201.905,20.723 201.06,20.723 C199.469,20.723 198.089,20.298 196.923,19.453 C195.756,18.607 194.871,17.444 194.272,15.962" id="Fill-12" fill="#FFFFFF"></path>
        <polyline id="Fill-13" fill="#FFFFFF" points="209.165 1.201 209.165 2.522 214.428 2.522 214.428 20.455 215.896 20.455 215.896 2.522 221.091 2.522 221.091 1.201 209.165 1.201"></polyline>
        <path d="M223.523,14.247 L223.523,1.203 L224.992,1.203 L224.992,14.247 C224.992,15.226 225.235,16.108 225.726,16.897 C226.215,17.684 226.859,18.287 227.654,18.705 C228.453,19.124 229.313,19.333 230.24,19.333 C231.664,19.333 232.894,18.856 233.923,17.897 C234.956,16.942 235.473,15.725 235.473,14.247 L235.473,1.203 L236.941,1.203 L236.941,14.247 C236.941,16.214 236.315,17.785 235.06,18.959 C233.805,20.135 232.198,20.723 230.24,20.723 C228.958,20.723 227.809,20.464 226.794,19.948 C225.779,19.432 224.98,18.678 224.398,17.684 C223.814,16.692 223.523,15.546 223.523,14.247" id="Fill-14" fill="#FFFFFF"></path>
        <path d="M240.604,20.456 L240.604,1.202 L247.913,1.202 C249.433,1.202 250.646,1.728 251.552,2.778 C252.46,3.829 252.914,5.164 252.914,6.782 C252.914,8.42 252.46,9.762 251.558,10.8 C250.652,11.845 249.433,12.365 247.901,12.365 L247.447,12.365 L253.876,20.456 L252.045,20.456 L245.548,12.365 L242.072,12.365 L242.072,20.456 L240.604,20.456 Z M242.072,10.96 L247.901,10.96 C248.935,10.96 249.783,10.536 250.448,9.688 C251.113,8.838 251.445,7.868 251.445,6.782 C251.445,5.695 251.113,4.728 250.448,3.879 C249.783,3.03 248.935,2.606 247.901,2.606 L242.072,2.606 L242.072,10.96 Z" id="Fill-15" fill="#FFFFFF"></path>
        <polyline id="Fill-16" fill="#FFFFFF" points="256.188 1.201 256.188 20.455 268.378 20.455 268.378 19.066 257.657 19.066 257.657 11.242 267.313 11.242 267.313 9.841 257.657 9.841 257.657 2.602 268.378 2.602 268.378 1.201 256.188 1.201"></polyline>
        <path d="M0,20.455 L0,1.205 L3.698,1.205 C6.663,1.205 8.491,1.205 9.156,1.205 L10.388,4.44 L8.212,4.44 C4.713,4.44 4.107,6.651 4.107,10.118 L4.107,20.455 L0,20.455" id="Fill-17" fill="#FFFFFF"></path>
        <path d="M65.009,20.455 L65.009,1.205 L68.707,1.205 C71.672,1.205 73.482,1.205 74.15,1.205 L75.397,4.44 L73.221,4.44 C69.722,4.44 69.117,6.651 69.117,10.118 L69.117,20.455 L65.009,20.455" id="Fill-18" fill="#FFFFFF"></path>
    </g>
</svg>