<?xml version="1.0" encoding="UTF-8"?>
<svg width="527px" height="216px" viewBox="0 0 527 216" version="1.1" xmlns="http://www.w3.org/2000/svg" xmlns:xlink="http://www.w3.org/1999/xlink">
    <!-- Generator: Sketch 49.3 (51167) - http://www.bohemiancoding.com/sketch -->
    <title>rize</title>
    <desc>Created with Sketch.</desc>
    <defs></defs>
    <g id="rize" stroke="none" stroke-width="1" fill="none" fill-rule="evenodd">
        <path d="M51.576,106.006 L70.67,106.006 C102.301,106.006 106.004,86.059 106.004,75.799 C106.004,56.707 92.043,47.301 71.24,47.301 L51.576,47.301 L51.576,106.006 Z M0,0 L66.682,0 C103.727,0 117.975,4.559 131.652,15.104 C149.033,28.779 157.584,51.009 157.584,72.662 C157.584,96.887 145.045,132.507 105.152,139.06 L162.429,210.871 L100.875,210.871 L52.148,142.767 L51.576,142.767 L51.576,210.871 L0,210.871 L0,0 Z" id="Fill-1" fill="#FFFFFF"></path>
        <path d="M174.512,210.871 L221.814,210.871 L221.814,52.716 L174.512,52.716 L174.512,210.871 Z M174.512,35.904 L201.183,0 L248.484,0 L221.814,35.904 L174.512,35.904 Z" id="Fill-2" fill="#FFFFFF"></path>
        <polyline id="Fill-3" fill="#FFFFFF" points="356.433 174.964 356.433 210.871 238.741 210.871 238.741 178.382 305.422 88.621 238.741 88.621 238.741 52.716 356.433 52.716 356.433 88.621 294.594 174.964 356.433 174.964"></polyline>
        <path d="M479.52,114.267 C477.522,104.864 468.119,87.199 443.613,87.199 C419.104,87.199 409.701,104.864 407.708,114.267 L479.52,114.267 Z M521.404,161.287 C513.713,178.955 502.6,192.634 489.207,201.753 C476.098,211.156 460.425,216 444.182,216 C398.873,216 360.406,179.238 360.406,132.222 C360.406,88.052 395.169,47.301 443.327,47.301 C491.485,47.301 526.82,85.488 526.82,133.646 C526.82,139.916 526.25,142.48 525.68,146.185 L407.137,146.185 C409.986,164.992 425.66,176.107 444.182,176.107 C458.715,176.107 466.408,169.55 472.964,161.287 L521.404,161.287 Z" id="Fill-5" fill="#FFFFFF"></path>
    </g>
</svg>