<?xml version="1.0" encoding="UTF-8"?>
<svg width="23px" height="22px" viewBox="0 0 23 22" version="1.1" xmlns="http://www.w3.org/2000/svg" xmlns:xlink="http://www.w3.org/1999/xlink">
    <!-- Generator: Sketch 48.1 (47250) - http://www.bohemiancoding.com/sketch -->
    <title>business</title>
    <desc>Created with Sketch.</desc>
    <defs></defs>
    <g id="Page-1" stroke="none" stroke-width="1" fill="none" fill-rule="evenodd">
        <g id="business" fill="#FFFFFF">
            <path d="M15.6,14.8 C16.1,14.8 16.5,14.9 16.9,15.2 L17.6,14.6 C17.6,12.3 16.6,10.2 15.1,9 C14.2,10 13.1,10.6 11.8,10.6 C10.5,10.6 9.3,10 8.5,9 C7,10.2 6,12.3 6,14.7 L6,19.3 C6,20 6.5,20.6 7.1,20.6 L12.8,20.6 C12.5,20 12.4,19.4 12.4,18.7 C12.4,16.5 13.8,14.8 15.6,14.8 Z" id="Shape" fill-rule="nonzero"></path>
            <path d="M11.9,8.9 C13.8,8.9 15.3,7.1 15.3,4.9 C15.3,1.9 13.8,0.9 11.9,0.9 C10,0.9 8.5,1.8 8.5,4.9 C8.4,7.1 10,8.9 11.9,8.9 Z" id="Shape" fill-rule="nonzero"></path>
            <path d="M5.4,9.5 C5.9,9.5 6.4,9.4 6.4,9.4 C7,8.7 7.2,8.4 7.8,7.9 C7.8,7.9 7.2,6.9 7.1,5.8 C6.9,4.6 7.4,3.6 7.4,3.6 C6.9,3.2 6.2,3 5.5,3 C3.9,3 2.6,3.8 2.6,6.3 C2.5,9.2 5.1,9.5 5.4,9.5 Z" id="Shape" fill-rule="nonzero"></path>
            <path d="M0,14 L0,17.9 C0,18.5 0.5,19 1.1,19 L4.6,19 L4.6,14.8 C4.6,13.4 5,12 5.6,10.8 C4.3,10.7 3.2,10.2 2.3,9.3 C0.9,10.4 0,12.1 0,14 Z" id="Shape" fill-rule="nonzero"></path>
            <path d="M16.0446702,18 L16.0446702,16.8 L15.5446702,16.8 L15.5446702,18 L14.3446702,18 L14.3446702,18.5 L15.5446702,18.5 L15.5446702,19.7 L16.0446702,19.7 L16.0446702,18.5 L17.2446703,18.5 L17.2446703,18 L16.0446702,18 Z M15.7946702,20.7200982 C14.4304727,20.7200982 13.324572,19.6141976 13.324572,18.25 C13.324572,16.8858024 14.4304727,15.7799018 15.7946702,15.7799018 C17.1588678,15.7799018 18.2647684,16.8858024 18.2647684,18.25 C18.2647684,19.6141976 17.1588678,20.7200982 15.7946702,20.7200982 Z" id="Combined-Shape"></path>
        </g>
    </g>
</svg>