<?xml version="1.0" encoding="UTF-8"?>
<svg width="23px" height="22px" viewBox="0 0 23 22" version="1.1" xmlns="http://www.w3.org/2000/svg" xmlns:xlink="http://www.w3.org/1999/xlink">
    <!-- Generator: Sketch 48.1 (47250) - http://www.bohemiancoding.com/sketch -->
    <title>individual</title>
    <desc>Created with Sketch.</desc>
    <defs></defs>
    <g id="Page-1" stroke="none" stroke-width="1" fill="none" fill-rule="evenodd">
        <g id="individual" fill="#FFFFFF" fill-rule="nonzero">
            <path d="M17.5994381,14.6015195 C17.5998123,14.634289 17.6,14.6671163 17.6,14.7 L17.6,19.3 C17.6,20 17.1,20.6 16.5,20.6 L15.3812252,20.6 L7.1,20.6 C6.5,20.6 6,20 6,19.3 L6,14.7 C6,14.6671163 6.00018773,14.634289 6.00056191,14.6015195 L6,14.6 C6,12.5834899 6.76867921,10.7207156 7.96907038,9.48343135 C8.13788827,9.30943233 8.31514741,9.14788207 8.5,9 C9.3,10 10.5,10.6 11.8,10.6 C13.1,10.6 14.2,10 15.1,9 C16.6,10.2 17.6,12.3 17.6,14.6 L17.5994381,14.6015195 Z" id="Combined-Shape"></path>
            <path d="M11.9,8.9 C13.8,8.9 15.3,7.1 15.3,4.9 C15.3,1.9 13.8,0.9 11.9,0.9 C10,0.9 8.5,1.8 8.5,4.9 C8.4,7.1 10,8.9 11.9,8.9 Z" id="Shape"></path>
        </g>
    </g>
</svg>